<svg xmlns="http://www.w3.org/2000/svg" xmlns:svgjs="http://svgjs.com/svgjs" xmlns:xlink="http://www.w3.org/1999/xlink" style="enable-background:new 0 0 512 512" width="512" height="512" x="0" y="0" version="1.1" viewBox="0 0 60 60" xml:space="preserve"><g><g xmlns="http://www.w3.org/2000/svg" id="Page-1" fill="none" fill-rule="evenodd"><g id="047---Angry-Bot" fill-rule="nonzero" transform="translate(-1 -1)"><path id="Shape" fill="#5865f2" d="m60 33.636c0 19.773-12.984 26.364-29 26.364s-29-6.591-29-26.364c0-18.454 12.984-31.636 29-31.636s29 13.182 29 31.636z" data-original="#f5f5f5"/><path id="Shape" fill="#4751c2" d="m31 2c-.5033333 0-1.0033333.013-1.5.039 15.319.8 27.5 13.723 27.5 31.6 0 19.149-12.181 25.934-27.5 26.341.4966667.0133333.9966667.02 1.5.02 16.016 0 29-6.591 29-26.364 0-18.454-12.984-31.636-29-31.636z" data-original="#cfd8dc"/><rect id="Rectangle-path" width="50" height="28" x="6" y="23" fill="#ed4245" data-original="#607d8b" rx="14"/><path id="Shape" fill="#cc2629" d="m42 23h-3c7.7319864.0000001 13.9999998 6.2680136 13.9999998 14s-6.2680134 13.9999999-13.9999998 14h3c7.7319864-.0000001 13.9999998-6.2680136 13.9999998-14s-6.2680134-13.9999999-13.9999998-14z" data-original="#37474f"/><path id="Shape" fill="#fff" d="m31 40c2.7614237 0 5 2.2385763 5 5 0 .5522847-.4477153 1-1 1h-8c-.5522847 0-1-.4477153-1-1 0-2.7614237 2.2385763-5 5-5z" data-original="#00bcd4"/><circle id="Oval" cx="8" cy="4" r="2" fill="#57f287" data-original="#02a9f4"/><circle id="Oval" cx="54" cy="4" r="2" fill="#57f287" data-original="#02a9f4"/><path id="Shape" fill="#fff" d="m20.36 32.84c.4190684.6423395.6415004 1.3930475.64 2.16.0012138 1.9487261-1.4020686 3.6147334-3.322652 3.9447245s-3.7994719-.7720796-4.4487785-2.6094516.1199528-3.8752684 1.8214305-4.8252729z" data-original="#00bcd4"/><path id="Shape" fill="#fff" d="m46.95 31.51c1.7014777.9500045 2.4707371 2.9879009 1.8214305 4.8252729s-2.5281951 2.9394427-4.4487785 2.6094516-3.3238658-1.9959984-3.322652-3.9447245c-.0015004-.7669525.2209316-1.5176605.64-2.16z" data-original="#00bcd4"/><g fill="#000"><path id="Shape" fill="#000" d="m31 39c-3.3123376.0033074-5.9966926 2.6876624-6 6 0 1.1045695.8954305 2 2 2h8c1.1045695 0 2-.8954305 2-2-.0033074-3.3123376-2.6876624-5.9966926-6-6zm-4 6c0-2.209139 1.790861-4 4-4s4 1.790861 4 4z" data-original="#000000"/><path id="Shape" fill="#000" d="m20 22c-8.2842712 0-15 6.7157288-15 15s6.7157288 15 15 15h22c8.2842712 0 15-6.7157288 15-15s-6.7157288-15-15-15zm35 15c-.008266 7.1762751-5.8237249 12.991734-13 13h-22c-7.1797017 0-13-5.8202983-13-13s5.8202983-13 13-13h22c7.1762751.008266 12.991734 5.8237249 13 13z" data-original="#000000"/><path id="Shape" fill="#000" d="m28 20h6c.5522847 0 1-.4477153 1-1s-.4477153-1-1-1h-6c-.5522847 0-1 .4477153-1 1s.4477153 1 1 1z" data-original="#000000"/><path id="Shape" fill="#000" d="m30 17h2c.5522847 0 1-.4477153 1-1s-.4477153-1-1-1h-2c-.5522847 0-1 .4477153-1 1s.4477153 1 1 1z" data-original="#000000"/><path id="Shape" fill="#000" d="m55 6.816c1.3775467-.4870363 2.2038721-1.89566623 1.9567957-3.33573306s-1.4956868-2.49269406-2.9567957-2.49269406-2.7097193 1.05262723-2.9567957 2.49269406.579249 2.84869676 1.9567957 3.33573306v4.2c-5.5020636-6.41349313-13.5500406-10.07751758-22-10.016-8.4493134-.0625167-16.4971824 3.59999533-22 10.012v-4.2c1.3775467-.4870363 2.2038721-1.89566623 1.9567957-3.33573306s-1.4956868-2.49269406-2.9567957-2.49269406-2.70971927 1.05262723-2.95679568 2.49269406.57924899 2.84869676 1.95679568 3.33573306v6.768c-4.00319138 5.9151732-6.0972303 12.9151962-6 20.057 0 17.901 10.374 27.363 30 27.363s30-9.462 30-27.363c.0964101-7.1404444-1.9975927-14.1389509-6-20.053zm-1-3.816c.5522847 0 1 .44771525 1 1s-.4477153 1-1 1-1-.44771525-1-1 .4477153-1 1-1zm-46 0c.55228475 0 1 .44771525 1 1s-.44771525 1-1 1-1-.44771525-1-1 .44771525-1 1-1zm23 56c-12.773 0-28-4.4-28-25.363 0-17.466 12.037-30.637 28-30.637s28 13.171 28 30.637c0 20.963-15.227 25.363-28 25.363z" data-original="#000000"/><path id="Shape" fill="#000" d="m21.97 33.242c.1334945-.5356925-.1923791-1.0782184-.728-1.212l-8-2c-.5300108-.1192665-1.0582917.2064318-1.1897969.7335393-.1315052.5271076.1818752 1.0627873.7057969 1.2064607l.231.058c-1.4002823 1.8873176-1.2972469 4.4950839.2475773 6.2660374 1.5448241 1.7709536 4.1144569 2.2270772 6.1744087 1.0959908 2.0599519-1.1310863 3.0541991-3.544079 2.389014-5.7980282.0792613-.1042725.1370438-.2232365.17-.35zm-4.97 4.758c-1.3006221.010463-2.45747-.8246428-2.8570116-2.0624205-.3995417-1.2377778.0507289-2.5916444 1.1120116-3.3435795l4.445 1.111c.1971539.4032448.2997549.8461392.3 1.295 0 1.6568542-1.3431458 3-3 3z" data-original="#000000"/><path id="Shape" fill="#000" d="m40.03 33.242c.0338623.1269936.0926723.2459736.173.35-.6667779 2.2543401.3269578 4.6687115 2.3874507 5.800529 2.060493 1.1318176 4.6311624.6753545 6.1760352-1.0966529s1.6466476-4.380904.2445141-6.2678761l.231-.058c.5239217-.1436734.8373021-.6793531.7057969-1.2064607-.1315052-.5271075-.6597861-.8528058-1.1897969-.7335393l-8 2c-.5356209.1337816-.8614945.6763075-.728 1.212zm7.97 1.758c0 1.6568542-1.3431458 3-3 3s-3-1.3431458-3-3c-.0005166-.4505491.102104-.8952385.3-1.3l4.443-1.111c.7825883.5545452 1.2504203 1.4518746 1.257 2.411z" data-original="#000000"/></g></g></g></g></svg>