<svg xmlns="http://www.w3.org/2000/svg" xmlns:svgjs="http://svgjs.com/svgjs" xmlns:xlink="http://www.w3.org/1999/xlink" style="enable-background:new 0 0 512 512" width="512" height="512" x="0" y="0" version="1.1" viewBox="0 0 57 60" xml:space="preserve"><g><g xmlns="http://www.w3.org/2000/svg" id="Page-1" fill="none" fill-rule="evenodd"><g id="028---Bot-Fixing" fill-rule="nonzero" transform="translate(0 -1)"><path id="Shape" fill="#5865f2" d="m39 21.636c0 12.273-8.507 16.364-19 16.364s-19-4.091-19-16.364c0-11.454 8.507-19.636 19-19.636s19 8.182 19 19.636z" data-original="#f5f5f5"/><path id="Shape" fill="#4751c2" d="m20 2c-.506 0-1 .036-1.5.073 9.79.741 17.5 8.662 17.5 19.563 0 11.681-7.71 15.941-17.5 16.326.5.02.994.038 1.5.038 10.493 0 19-4.091 19-16.364 0-11.454-8.507-19.636-19-19.636z" data-original="#cfd8dc"/><circle id="Oval" cx="3" cy="4" r="2" fill="#57f287" data-original="#02a9f4"/><circle id="Oval" cx="37" cy="4" r="2" fill="#57f287" data-original="#02a9f4"/><path id="Shape" fill="#5865f2" d="m31.4 43.13c.0030864.1402945-.0035964.2806336-.02.42l-.58 5.22-.31 2.78c-.2803577 2.5332395-2.4212939 4.4501744-4.97 4.45h-11.04c-2.5487061.0001744-4.68964233-1.9167605-4.97-4.45l-.89-8c-.15640871-1.4132687.29629586-2.8262862 1.24485592-3.8855434.94856008-1.0592572 2.30324678-1.6645539 3.72514408-1.6644566h12.82c1.3485689-.0022023 2.6404698.5421768 3.5807715 1.5088597s1.448735 2.2731483 1.4092285 3.6211403z" data-original="#f5f5f5"/><path id="Shape" fill="#4751c2" d="m26.41 38h-3c1.3485689-.0022023 2.6404698.5421768 3.5807715 1.5088597s1.448735 2.2731483 1.4092285 3.6211403c.0030864.1402945-.0035964.2806336-.02.42l-.58 5.22-.31 2.78c-.2803577 2.5332395-2.4212939 4.4501744-4.97 4.45h3c2.5487061.0001744 4.6896423-1.9167605 4.97-4.45l.31-2.78.58-5.22c.0164036-.1393664.0230864-.2797055.02-.42.0395065-1.347992-.4689268-2.6544574-1.4092285-3.6211403s-2.2322026-1.511062-3.5807715-1.5088597z" data-original="#cfd8dc"/><path id="Shape" fill="#7f8e94" d="m15 56h10v1c0 1.6568542-1.3431458 3-3 3h-4c-1.6568542 0-3-1.3431458-3-3z" data-original="#7f8e94"/><path id="Shape" fill="#545c60" d="m22 56v1c0 1.6568542-1.3431458 3-3 3h3c1.6568542 0 3-1.3431458 3-3v-1z" data-original="#545c60"/><path id="Shape" fill="#9e9e9e" d="m17 38h6v3c0 1.6568542-1.3431458 3-3 3s-3-1.3431458-3-3z" data-original="#9e9e9e"/><path id="Shape" fill="#57f287" d="m54.96 42.63c-1.7867978 3.3677077-5.4973771 5.2490154-9.27 4.7l-5.84 11.07c-.7731987 1.466316-2.588684 2.0281985-4.055 1.2549999-1.4663159-.7731986-2.0281986-2.5886839-1.255-4.0549999l1.72-3.25 1.9-3.6 2.23-4.23c-2.5857001-2.7984725-3.1257039-6.9232901-1.3475247-10.2930634 1.7781793-3.3697733 5.4880175-5.2520124 9.2575247-4.6969366l-3.96 7.5c-.5074029.9781041-.1327379 2.1823842.84 2.7l1.77.93c.9749305.5148193 2.1826111.1435693 2.7-.83l3.96-7.5c2.5914049 2.7983886 3.1327048 6.9283058 1.35 10.3z" data-original="#02a9f4"/><path id="Shape" fill="#28d65e" d="m41.34 37.03c-.5074029.9781041-.1327379 2.1823842.84 2.7l1.77.93c.7707726.4056275 1.7157.2634631 2.333-.351l-1.1-.579c-.9727379-.5176158-1.3474029-1.7218959-.84-2.7l3.96-7.5c-1.0131696-.1461133-2.0439519-.1163434-3.047.088z" data-original="#0377bc"/><path id="Shape" fill="#28d65e" d="m53.61 32.33-1.348 2.553c1.290422 2.9937738.8584001 6.4516043-1.1289411 9.0358538-1.9873413 2.5842495-5.2183216 3.8896231-8.4430589 3.4111462l-5.84 11.07c-.2640256.4964962-.662582.9085688-1.15 1.189.032.018.059.043.092.061.7039486.3736774 1.5276555.4518893 2.2893524.2173767.761697-.2345126 1.3987744-.7624734 1.7706476-1.4673767l5.84-11.07c3.7728808.5579367 7.487365-1.3246528 9.2681273-4.6973088 1.7807623-3.3726559 1.2404593-7.5017731-1.3481273-10.3026912z" data-original="#0377bc"/><path id="Shape" fill="#7f8e94" d="m38.16 48.75-1.9 3.6c-2.0695471-.7606414-3.9373253-1.9853019-5.46-3.58l.58-5.22c.0164036-.1393664.0230864-.2797055.02-.42 1.05 1.63 3.42 4.73 6.76 5.62z" data-original="#7f8e94"/><rect id="Rectangle-path" width="30" height="18" x="5" y="14" fill="#ed4245" data-original="#607d8b" rx="9"/><path id="Shape" fill="#cc2629" d="m26 14h-3c4.9705627.0000001 8.9999999 4.0294373 8.9999999 9s-4.0294372 8.9999999-8.9999999 9h3c4.9705627-.0000001 8.9999999-4.0294373 8.9999999-9s-4.0294372-8.9999999-8.9999999-9z" data-original="#37474f"/><circle id="Oval" cx="12" cy="22" r="2" fill="#fff" data-original="#00bcd4"/><circle id="Oval" cx="28" cy="22" r="2" fill="#fff" data-original="#00bcd4"/><g fill="#000"><path id="Shape" fill="#000" d="m0 21.636c0 8.3 3.71 13.729 10.806 16.057-2.19690539 1.1368278-3.4634442 3.5123341-3.183 5.97l.889 8c.32039783 2.8535515 2.6247285 5.0760045 5.488 5.293v.044c0 2.209139 1.790861 4 4 4h4c2.209139 0 4-1.790861 4-4v-.044c2.8632715-.2169955 5.1676022-2.4394485 5.488-5.293l.094-.842c1.0003556.8148663 2.1030522 1.4953108 3.28 2.024l-1.208 2.287c-.6671935 1.263827-.609462 2.7875948.1514476 3.9973149.7609095 1.20972 2.1093969 1.921607 3.5375 1.8675 1.428103-.054107 2.7188589-.8659879 3.3860524-2.1298149l5.531-10.473c4.0937715.3069193 7.9585622-1.9218392 9.7433513-5.6188234s1.1261953-8.1094922-1.6603513-11.1241766c-.2217665-.2358309-.5427245-.3517324-.864-.312-.321608.042349-.6026937.2380652-.754.525l-3.958 7.5c-.1239006.2346718-.3359977.4104725-.5895817.4886859-.2535841.0782134-.5278577.052425-.7624183-.0716859l-1.769-.934c-.4858337-.2598894-.6718344-.8624958-.417-1.351l3.959-7.496c.1514192-.2867815.154366-.629184.0079049-.9185291s-.4241412-.4896995-.7449049-.5374709c-4.0611218-.6009056-8.0763771 1.3441227-10.1222964 4.9033378-2.0459193 3.559215-1.7058518 8.0077838.8572964 11.2146622l-1.511 2.86c-2.1769135-1.0186552-4.0099239-2.6494264-5.275-4.693-.0499881-2.1702805-1.281091-4.1400451-3.21-5.136 7.1-2.328 10.81-7.755 10.81-16.057.0143062-3.1901958-.6682627-6.3450295-2-9.244v-5.576c1.3775467-.4870363 2.2038721-1.89566623 1.9567957-3.33573306s-1.4956868-2.49269406-2.9567957-2.49269406-2.7097193 1.05262723-2.9567957 2.49269406.579249 2.84869676 1.9567957 3.33573306v2.173c-3.7258278-5.09581029-9.6879434-8.07276913-16-7.989-6.3120566-.08376913-12.27417217 2.89318971-16 7.989v-2.173c1.37754669-.4870363 2.20387209-1.89566623 1.95679568-3.33573306s-1.49568678-2.49269406-2.95679568-2.49269406-2.70971927 1.05262723-2.95679568 2.49269406.579249 2.84869676 1.95679568 3.33573306v5.576c-1.33173726 2.8989705-2.01430622 6.0538042-2 9.244zm37-18.636c.5522847 0 1 .44771525 1 1s-.4477153 1-1 1-1-.44771525-1-1 .4477153-1 1-1zm-34 0c.55228475 0 1 .44771525 1 1s-.44771525 1-1 1-1-.44771525-1-1 .44771525-1 1-1zm19 36v2c0 1.1045695-.8954305 2-2 2s-2-.8954305-2-2v-2zm0 20h-4c-1.1045695 0-2-.8954305-2-2h8c0 1.1045695-.8954305 2-2 2zm19.122-15.153c-2.117925-2.2922403-2.70779-5.6076196-1.5104689-8.4897012 1.1973211-2.8820815 3.9627607-4.8035457 7.0814689-4.9202988l-3.232 6.125c-.7731928 1.4649616-.2127173 3.2793444 1.252 4.053l1.768.934c1.4644067.7743273 3.2792592.215188 4.054-1.249l3.233-6.124c1.6635866 2.6410001 1.63721 6.0088746-.0675377 8.6234945-1.7047476 2.6146199-4.7757943 3.9973515-7.8634623 3.5405055-.4186946-.0584483-.8294339.1503142-1.029.523l-5.848 11.07c-.3247678.6478579-.9745896 1.0693448-1.6985686 1.1017241-.7239789.0323793-1.4088323-.3294155-1.7901375-.9456949s-.3993984-1.3906128-.0472939-2.0240292l5.847-11.074c.1974767-.3744327.1377974-.8326415-.149-1.144zm-4.39 5.453-.934 1.77c-1.4642874-.6561945-2.8001131-1.5677389-3.945-2.692l.289-2.6c1.2418661 1.5081811 2.8117835 2.7128105 4.59 3.522zm-6.343-5.861-.729 6.561h-6.66c-.5522847 0-1 .4477153-1 1s.4477153 1 1 1h6.385c-.4505093 1.7646279-2.0397723 2.9994865-3.861 3h-11.048c-1.8212277-.0005135-3.4104907-1.2353721-3.861-3h6.385c.5522847 0 1-.4477153 1-1s-.4477153-1-1-1h-6.66l-.729-6.558c-.1257195-1.1307656.23603647-2.2615646.9947323-3.1093952.7586958-.8478307 1.8425348-1.3324613 2.9802677-1.3326048h2.414v2c0 2.209139 1.790861 4 4 4s4-1.790861 4-4v-2h2.414c1.1377329.0001435 2.2215719.4847741 2.9802677 1.3326048.7586958.8478306 1.1204518 1.9786296.9947323 3.1093952zm-10.389-40.439c10.262 0 18 8.012 18 18.636 0 10.195-6.056 15.364-18 15.364s-18-5.169-18-15.364c0-10.624 7.738-18.636 18-18.636z" data-original="#000000"/><path id="Shape" fill="#000" d="m12 25c1.6568542 0 3-1.3431458 3-3s-1.3431458-3-3-3-3 1.3431458-3 3 1.3431458 3 3 3zm0-4c.5522847 0 1 .4477153 1 1s-.4477153 1-1 1-1-.4477153-1-1 .4477153-1 1-1z" data-original="#000000"/><path id="Shape" fill="#000" d="m28 25c1.6568542 0 3-1.3431458 3-3s-1.3431458-3-3-3-3 1.3431458-3 3 1.3431458 3 3 3zm0-4c.5522847 0 1 .4477153 1 1s-.4477153 1-1 1-1-.4477153-1-1 .4477153-1 1-1z" data-original="#000000"/><path id="Shape" fill="#000" d="m14 33h12c5.5228475 0 10-4.4771525 10-10s-4.4771525-10-10-10h-12c-5.5228475 0-10 4.4771525-10 10s4.4771525 10 10 10zm0-18h12c4.418278 0 8 3.581722 8 8s-3.581722 8-8 8h-12c-4.418278 0-8-3.581722-8-8s3.581722-8 8-8z" data-original="#000000"/><path id="Shape" fill="#000" d="m20 28c1.35546.0583036 2.6818413-.4043376 3.707-1.293.3865882-.3856403.3892686-1.0110603.006-1.4-.3831869-.3913371-1.0090244-.4042273-1.408-.029-.6570317.5090244-1.4749835.7652332-2.305.722-.8276815.0432642-1.643525-.2110662-2.3-.717-.3985064-.3506401-1.0015362-.3288293-1.37367.049684-.3721338.3785132-.3836925.9818266-.02633 1.374316 1.023374.8869696 2.346923 1.3494963 3.7 1.293z" data-original="#000000"/><path id="Shape" fill="#000" d="m18 12h4c.5522847 0 1-.4477153 1-1s-.4477153-1-1-1h-4c-.5522847 0-1 .4477153-1 1s.4477153 1 1 1z" data-original="#000000"/><path id="Shape" fill="#000" d="m19 9h2c.5522847 0 1-.44771525 1-1s-.4477153-1-1-1h-2c-.5522847 0-1 .44771525-1 1s.4477153 1 1 1z" data-original="#000000"/></g></g></g></g></svg>