<svg xmlns="http://www.w3.org/2000/svg" width="672" height="258" fill="none" viewBox="0 0 672 258"><path fill="#FFC819" d="M40.7252 55.686L46.9721 53.6026C47.2788 53.462 47.5387 53.2362 47.7209 52.9521C47.9032 52.668 48 52.3376 48 52C48 51.6624 47.9032 51.332 47.7209 51.0479C47.5387 50.7638 47.2788 50.538 46.9721 50.3974L40.7252 48.314C40.2985 48.1213 39.9568 47.7793 39.7641 47.3524L37.5217 41.1022C37.4164 40.7816 37.2125 40.5024 36.9393 40.3045C36.666 40.1066 36.3373 40 36 40C35.6627 40 35.334 40.1066 35.0607 40.3045C34.7875 40.5024 34.5836 40.7816 34.4783 41.1022L32.2359 47.3524C32.0432 47.7793 31.7015 48.1213 31.2748 48.314L25.0279 50.3974C24.7212 50.538 24.4613 50.7638 24.2791 51.0479C24.0968 51.332 24 51.6624 24 52C24 52.3376 24.0968 52.668 24.2791 52.9521C24.4613 53.2362 24.7212 53.462 25.0279 53.6026L31.2748 55.686C31.5017 55.7549 31.7081 55.8786 31.8757 56.0464C32.0433 56.2141 32.167 56.4206 32.2359 56.6476L34.4783 62.8978C34.5836 63.2184 34.7875 63.4976 35.0607 63.6955C35.334 63.8934 35.6627 64 36 64C36.3373 64 36.666 63.8934 36.9393 63.6955C37.2125 63.4976 37.4164 63.2184 37.5217 62.8978L39.7641 56.6476C39.833 56.4206 39.9567 56.2141 40.1243 56.0464C40.2919 55.8786 40.4983 55.7549 40.7252 55.686Z"/><path fill="#FF785F" d="M225.963 21.5092L227.926 17.5831C228.004 17.3723 228.02 17.1434 227.972 16.9236C227.924 16.7038 227.814 16.5024 227.655 16.3433C227.496 16.1842 227.294 16.0741 227.074 16.0261C226.855 15.9781 226.626 15.9942 226.415 16.0725L222.489 18.0347C222.197 18.145 221.875 18.1449 221.583 18.0345L217.58 16.1456C217.379 16.0441 217.152 16.0086 216.93 16.0441C216.707 16.0796 216.502 16.1843 216.343 16.3433C216.184 16.5023 216.08 16.7074 216.044 16.9295C216.009 17.1516 216.044 17.3792 216.146 17.58L218.034 21.5826C218.145 21.8746 218.145 22.1969 218.035 22.4888L216.072 26.4149C215.994 26.6258 215.978 26.8547 216.026 27.0745C216.074 27.2942 216.184 27.4956 216.343 27.6547C216.502 27.8138 216.704 27.9239 216.924 27.972C217.143 28.02 217.372 28.0039 217.583 27.9256L221.509 25.9633C221.649 25.8888 221.804 25.8499 221.962 25.8499C222.12 25.85 222.276 25.889 222.415 25.9636L226.418 27.8524C226.619 27.9539 226.846 27.9894 227.069 27.9539C227.291 27.9184 227.496 27.8137 227.655 27.6547C227.814 27.4958 227.918 27.2906 227.954 27.0685C227.989 26.8465 227.954 26.6188 227.852 26.4181L225.964 22.4154C225.889 22.276 225.85 22.1204 225.85 21.9623C225.85 21.8042 225.889 21.6486 225.963 21.5092Z"/><path fill="#5AE6DC" d="M630.005 34.1676C630.005 32.9705 629.035 32 627.837 32C626.64 32 625.67 32.9705 625.67 34.1676V36.3713C625.67 37.5684 626.64 38.5389 627.837 38.5389C629.035 38.5389 630.005 37.5684 630.005 36.3713V34.1676Z"/><path fill="#5AE6DC" d="M630.005 51.6285C630.005 50.4314 629.035 49.4609 627.838 49.4609C626.641 49.4609 625.67 50.4314 625.67 51.6285V53.8322C625.67 55.0293 626.641 55.9998 627.838 55.9998C629.035 55.9998 630.005 55.0293 630.005 53.8322V51.6285Z"/><path fill="#5AE6DC" d="M637.832 46.2097C639.029 46.2097 640 45.2392 640 44.0421C640 42.845 639.029 41.8745 637.832 41.8745H635.628C634.431 41.8745 633.461 42.845 633.461 44.0421C633.461 45.2392 634.431 46.2097 635.628 46.2097H637.832Z"/><path fill="#5AE6DC" d="M620.371 46.0895C621.568 46.0895 622.539 45.1191 622.539 43.922C622.539 42.7249 621.568 41.7544 620.371 41.7544H618.168C616.97 41.7544 616 42.7249 616 43.922C616 45.1191 616.97 46.0895 618.168 46.0895H620.371Z"/><path fill="#5AE6DC" d="M35.2203 208.628C34.4836 207.889 33.2892 207.889 32.5525 208.628C31.8158 209.367 31.8158 210.566 32.5525 211.305L33.9086 212.665C34.6453 213.404 35.8397 213.404 36.5764 212.665C37.3131 211.926 37.3131 210.728 36.5764 209.989L35.2203 208.628Z"/><path fill="#5AE6DC" d="M45.9655 219.409C45.2288 218.67 44.0344 218.67 43.2977 219.409C42.561 220.148 42.561 221.346 43.2977 222.085L44.6538 223.446C45.3905 224.185 46.5849 224.185 47.3216 223.446C48.0583 222.707 48.0583 221.508 47.3216 220.769L45.9655 219.409Z"/><path fill="#5AE6DC" d="M47.4475 211.231C48.1842 210.492 48.1842 209.293 47.4475 208.554C46.7108 207.815 45.5164 207.815 44.7797 208.554L43.4236 209.915C42.6869 210.654 42.6869 211.852 43.4236 212.591C44.1603 213.33 45.3547 213.33 46.0914 212.591L47.4475 211.231Z"/><path fill="#5AE6DC" d="M36.6284 221.937C37.3651 221.198 37.3651 220 36.6284 219.26C35.8917 218.521 34.6973 218.521 33.9606 219.26L32.6045 220.621C31.8678 221.36 31.8678 222.558 32.6045 223.297C33.3412 224.037 34.5356 224.037 35.2723 223.297L36.6284 221.937Z"/><path fill="#FFC819" d="M451.15 218.457L455.315 217.068C455.519 216.975 455.692 216.824 455.814 216.635C455.935 216.445 456 216.225 456 216C456 215.775 455.935 215.555 455.814 215.365C455.692 215.176 455.519 215.025 455.315 214.932L451.15 213.543C450.866 213.414 450.638 213.186 450.509 212.902L449.014 208.735C448.944 208.521 448.808 208.335 448.626 208.203C448.444 208.071 448.225 208 448 208C447.775 208 447.556 208.071 447.374 208.203C447.192 208.335 447.056 208.521 446.986 208.735L445.491 212.902C445.362 213.186 445.134 213.414 444.85 213.543L440.685 214.932C440.481 215.025 440.308 215.176 440.186 215.365C440.065 215.555 440 215.775 440 216C440 216.225 440.065 216.445 440.186 216.635C440.308 216.824 440.481 216.975 440.685 217.068L444.85 218.457C445.001 218.503 445.139 218.586 445.25 218.698C445.362 218.809 445.445 218.947 445.491 219.098L446.986 223.265C447.056 223.479 447.192 223.665 447.374 223.797C447.556 223.929 447.775 224 448 224C448.225 224 448.444 223.929 448.626 223.797C448.808 223.665 448.944 223.479 449.014 223.265L450.509 219.098C450.555 218.947 450.638 218.809 450.75 218.698C450.861 218.586 450.999 218.503 451.15 218.457Z"/></svg>