<svg xmlns="http://www.w3.org/2000/svg" xmlns:svgjs="http://svgjs.com/svgjs" xmlns:xlink="http://www.w3.org/1999/xlink" style="enable-background:new 0 0 512 512" width="512" height="512" x="0" y="0" version="1.1" viewBox="0 0 511.762 511.762" xml:space="preserve"><g><g xmlns="http://www.w3.org/2000/svg"><g><path fill="#5865F2" d="m362.612 174.449c78.182.595 141.761 64.781 141.649 142.964-.078 54.59-30.8 101.99-75.883 125.94-1.844.98-2.992 2.902-2.992 4.99v34.477c0 4.831-5.657 7.447-9.338 4.318l-31.821-27.048c-1.226-1.042-2.835-1.499-4.431-1.294-5.991.768-12.096 1.17-18.296 1.17-78.844 0-142.76-63.916-142.76-142.76.001-79.215 64.518-143.361 143.872-142.757z" data-original="#fe93bb"/></g><g><path fill="#5776e3" d="m504.26 317.415c-.08 54.59-30.8 101.99-75.88 125.939-1.85.98-2.99 2.9-2.99 4.99v34.48c0 4.83-5.66 7.44-9.34 4.31l-15.36-13.05c.01-.04.01-.08.01-.12v-34.48c0-2.09 1.15-4.01 2.99-4.99 45.08-23.95 75.81-71.35 75.89-125.94.08-57.16-33.88-106.839-82.71-129.649 61.68 15.851 107.48 72.131 107.39 138.51z" data-original="#fe76a8"/></g><g><path fill="#57F287" d="m149.15 23.257c-78.182.595-141.761 64.781-141.65 142.965.078 54.59 30.8 101.99 75.883 125.94 1.844.98 2.992 2.902 2.992 4.99v34.477c0 4.831 5.657 7.447 9.338 4.318l31.821-27.048c1.226-1.042 2.835-1.499 4.431-1.294 5.991.768 12.096 1.17 18.296 1.17 78.844 0 142.76-63.916 142.76-142.76 0-79.216-64.517-143.361-143.871-142.758z" data-original="#d1f19e"/></g><g><path fill="#3b8e68" d="m293.021 166.016c0 78.84-63.92 142.759-142.759 142.759-6.2 0-12.31-.4-18.3-1.17-1.59-.21-3.2.25-4.43 1.29l-31.82 27.05c-3.68 3.13-9.34.51-9.34-4.32v-17.1l26.48-22.51c1.23-1.04 2.84-1.49 4.43-1.29 5.99.77 12.1 1.17 18.3 1.17 78.84 0 142.759-63.92 142.759-142.759 0-31.8-10.4-61.18-27.99-84.91 26.34 25.9 42.67 61.93 42.67 101.79z" data-original="#bbec6c"/></g><g><path fill="#000" d="m361.522 364.266c8.724 9.86 18.131 19.275 28.202 28.192 7.063 6.254 16.132 9.539 25.281 9.539 4.979 0 9.983-.974 14.699-2.971 3.813-1.616 5.596-6.018 3.98-9.832-1.617-3.814-6.018-5.597-9.832-3.98-8.087 3.427-17.581 1.861-24.185-3.987-10.176-9.01-19.633-18.549-28.358-28.555 27.046-33.64 39.496-63.263 43.785-75.101h11.684c4.143 0 7.5-3.358 7.5-7.5s-3.357-7.5-7.5-7.5h-17.179c-.009 0-.018 0-.027 0h-40.57v-26.396c0-4.142-3.357-7.5-7.5-7.5s-7.5 3.358-7.5 7.5v26.396h-57.777c-4.142 0-7.5 3.358-7.5 7.5s3.357 7.5 7.5 7.5h102.752c-5.154 12.651-16.497 36.448-37.509 63.224-8.505-10.832-16.185-22.157-22.984-33.927-2.07-3.587-6.659-4.815-10.245-2.744-3.587 2.072-4.815 6.659-2.743 10.246 7.692 13.317 16.457 26.083 26.21 38.24-11.748 13.506-25.954 27.443-43.037 40.841-3.26 2.556-3.83 7.271-1.273 10.53 1.479 1.886 3.682 2.872 5.906 2.872 1.619 0 3.251-.522 4.623-1.599 17.186-13.478 31.582-27.423 43.597-40.988z" data-original="#000000"/><path fill="#000" d="m362.669 166.949c-22.028-.172-43.337 4.384-62.814 13.158.434-4.641.666-9.341.666-14.093 0-40.353-15.774-78.23-44.418-106.657-28.363-28.147-65.903-43.604-105.832-43.604-.391 0-.786.001-1.178.005-33.656.256-65.44 11.489-91.917 32.484-3.245 2.574-3.79 7.291-1.217 10.536 2.575 3.246 7.291 3.79 10.537 1.216 23.831-18.897 52.431-29.007 82.71-29.238.355-.003.707-.004 1.062-.004 35.941 0 69.739 13.916 95.268 39.251 25.784 25.589 39.984 59.686 39.984 96.01 0 74.583-60.678 135.26-135.26 135.26-5.77 0-11.604-.373-17.342-1.108-3.69-.475-7.426.625-10.242 3.019l-28.802 24.481v-30.514c0-4.878-2.672-9.328-6.974-11.614-44.277-23.522-71.829-69.246-71.9-119.326-.043-30.302 9.816-59.013 28.514-83.027 2.545-3.269 1.958-7.98-1.311-10.525-3.267-2.544-7.981-1.959-10.525 1.311-20.772 26.679-31.726 58.583-31.678 92.263.079 55.259 30.271 105.741 78.875 132.022v33.374c0 5.192 2.928 9.772 7.641 11.951 1.796.831 3.689 1.238 5.564 1.238 3.045 0 6.042-1.075 8.49-3.157l31.202-26.522c6.122.753 12.339 1.135 18.488 1.135 21.965 0 42.843-4.739 61.668-13.245-.438 4.685-.687 9.41-.687 14.176 0 28.6 8.068 56.42 23.331 80.453 14.852 23.384 35.813 42.202 60.62 54.42 3.718 1.831 8.212.301 10.042-3.414 1.83-3.716.301-8.212-3.415-10.042-22.335-11.001-41.21-27.947-54.585-49.006-13.733-21.625-20.993-46.665-20.993-72.411 0-7.701.655-15.297 1.909-22.737 34.535-21.019 59.96-55.57 68.88-96.231 19.566-10.64 41.577-16.293 64.464-16.293.353 0 .707.001 1.061.004 74.107.563 134.312 61.328 134.207 135.454-.071 50.08-27.623 95.804-71.901 119.327-4.302 2.285-6.974 6.735-6.974 11.614v30.513l-28.803-24.483c-2.813-2.391-6.543-3.49-10.24-3.017-15.443 1.98-31.237 1.282-46.258-1.987-4.052-.884-8.044 1.686-8.924 5.732-.882 4.047 1.686 8.043 5.732 8.924 16.441 3.58 33.69 4.385 50.595 2.305l31.202 26.522c2.448 2.082 5.445 3.157 8.491 3.157 1.874 0 3.768-.407 5.563-1.238 4.713-2.179 7.641-6.759 7.641-11.951v-33.374c48.603-26.281 78.796-76.763 78.875-132.022.118-82.346-66.765-149.849-149.092-150.475z" data-original="#000000"/><path fill="#000" d="m91.451 237.57c3.866 1.474 8.203-.469 9.677-4.339l11.46-30.089h75.448l11.347 30.068c1.133 3.003 3.987 4.854 7.018 4.854.88 0 1.775-.156 2.647-.485 3.875-1.462 5.831-5.79 4.368-9.665l-52.914-140.217c-.025-.069-.053-.138-.081-.206-1.66-4.037-5.552-6.644-9.916-6.644-.004 0-.008 0-.012 0-4.369.005-8.261 2.621-9.914 6.665-.022.056-.045.112-.066.169l-53.401 140.21c-1.475 3.872.468 8.205 4.339 9.679zm59.035-133.931 31.89 84.503h-64.074z" data-original="#000000"/></g></g></g></svg>