<svg xmlns="http://www.w3.org/2000/svg" xmlns:svgjs="http://svgjs.com/svgjs" xmlns:xlink="http://www.w3.org/1999/xlink" style="enable-background:new 0 0 512 512" width="512" height="512" x="0" y="0" version="1.1" viewBox="0 0 60 60" xml:space="preserve"><g><g xmlns="http://www.w3.org/2000/svg" id="Page-1" fill="none" fill-rule="evenodd"><g id="025---Bot-Confused" fill-rule="nonzero" transform="translate(-1 -1)"><path id="Shape" fill="#5865f2" d="m60 33.636c0 19.773-12.984 26.364-29 26.364s-29-6.591-29-26.364c0-18.454 12.984-31.636 29-31.636s29 13.182 29 31.636z" data-original="#f5f5f5"/><path id="Shape" fill="#4751c2" d="m31 2c-.5033333 0-1.0033333.013-1.5.039 15.319.8 27.5 13.723 27.5 31.6 0 19.149-12.181 25.934-27.5 26.341.4966667.0133333.9966667.02 1.5.02 16.016 0 29-6.591 29-26.364 0-18.454-12.984-31.636-29-31.636z" data-original="#cfd8dc"/><rect id="Rectangle-path" width="50" height="28" x="6" y="23" fill="#ed4245" data-original="#607d8b" rx="14"/><path id="Shape" fill="#cc2629" d="m42 23h-3c7.7319864.0000001 13.9999998 6.2680136 13.9999998 14s-6.2680134 13.9999999-13.9999998 14h3c7.7319864-.0000001 13.9999998-6.2680136 13.9999998-14s-6.2680134-13.9999999-13.9999998-14z" data-original="#37474f"/><circle id="Oval" cx="8" cy="4" r="2" fill="#57f287" data-original="#02a9f4"/><circle id="Oval" cx="54" cy="4" r="2" fill="#57f287" data-original="#02a9f4"/><circle id="Oval" cx="17" cy="34" r="4" fill="#fff" data-original="#00bcd4"/><circle id="Oval" cx="45" cy="34" r="4" fill="#fff" data-original="#00bcd4"/><g fill="#000"><path id="Shape" fill="#000" d="m20 22c-8.2842712 0-15 6.7157288-15 15s6.7157288 15 15 15h22c8.2842712 0 15-6.7157288 15-15s-6.7157288-15-15-15zm35 15c-.008266 7.1762751-5.8237249 12.991734-13 13h-22c-7.1797017 0-13-5.8202983-13-13s5.8202983-13 13-13h22c7.1762751.008266 12.991734 5.8237249 13 13z" data-original="#000000"/><path id="Shape" fill="#000" d="m28 20h6c.5522847 0 1-.4477153 1-1s-.4477153-1-1-1h-6c-.5522847 0-1 .4477153-1 1s.4477153 1 1 1z" data-original="#000000"/><path id="Shape" fill="#000" d="m30 17h2c.5522847 0 1-.4477153 1-1s-.4477153-1-1-1h-2c-.5522847 0-1 .4477153-1 1s.4477153 1 1 1z" data-original="#000000"/><path id="Shape" fill="#000" d="m55 6.816c1.3775467-.4870363 2.2038721-1.89566623 1.9567957-3.33573306s-1.4956868-2.49269406-2.9567957-2.49269406-2.7097193 1.05262723-2.9567957 2.49269406.579249 2.84869676 1.9567957 3.33573306v4.2c-5.5020636-6.41349313-13.5500406-10.07751758-22-10.016-8.4493134-.0625167-16.4971824 3.59999533-22 10.012v-4.2c1.3775467-.4870363 2.2038721-1.89566623 1.9567957-3.33573306s-1.4956868-2.49269406-2.9567957-2.49269406-2.70971927 1.05262723-2.95679568 2.49269406.57924899 2.84869676 1.95679568 3.33573306v6.768c-4.00305402 5.9148643-6.09708956 12.9145271-6 20.056 0 17.902 10.374 27.364 30 27.364s30-9.462 30-27.364c.0962694-7.1401135-1.9977301-14.1382597-6-20.052zm-1-3.816c.5522847 0 1 .44771525 1 1s-.4477153 1-1 1-1-.44771525-1-1 .4477153-1 1-1zm-46 0c.55228475 0 1 .44771525 1 1s-.44771525 1-1 1-1-.44771525-1-1 .44771525-1 1-1zm23 56c-12.773 0-28-4.4-28-25.364 0-17.465 12.038-30.636 28-30.636s28 13.171 28 30.636c0 20.964-15.227 25.364-28 25.364z" data-original="#000000"/><path id="Shape" fill="#000" d="m22 34c0-2.7614237-2.2385763-5-5-5s-5 2.2385763-5 5 2.2385763 5 5 5c2.7600532-.0033061 4.9966939-2.2399468 5-5zm-8 0c0-1.6568542 1.3431458-3 3-3s3 1.3431458 3 3-1.3431458 3-3 3-3-1.3431458-3-3z" data-original="#000000"/><path id="Shape" fill="#000" d="m40 34c0 2.7614237 2.2385763 5 5 5s5-2.2385763 5-5-2.2385763-5-5-5c-2.7600532.0033061-4.9966939 2.2399468-5 5zm5-3c1.6568542 0 3 1.3431458 3 3s-1.3431458 3-3 3-3-1.3431458-3-3 1.3431458-3 3-3z" data-original="#000000"/><path id="Shape" fill="#000" d="m44.379 42.481c-.8001181-.9987528-2.0345125-1.5479901-3.3120789-1.4736922s-2.4399719.762923-3.1189211 1.8476922l-.3.474c-.3563439.567825-.9796223.9125272-1.65.9125272s-1.2936561-.3447022-1.65-.9125272c-.7213871-1.1557612-1.9875818-1.858043-3.35-1.858043s-2.6286129.7022818-3.35 1.858043c-.3563439.567825-.9796223.9125272-1.65.9125272s-1.2936561-.3447022-1.65-.9125272l-.3-.473c-.6783585-1.085548-1.8409235-1.7748285-3.1188365-1.8491465-1.277913-.0743181-2.5125418.4755516-3.3121635 1.4751465l-1.4 1.752c-.2257827.278788-.284927.6571601-.154992.9915513.129935.3343913.4290378.5735586.7838204.6267553s.7108772-.0877292.9331716-.3693066l1.4-1.752c.3943724-.493528 1.003682-.7650347 1.6343542-.7282637s1.2043003.3772482 1.5386458.9132637l.3.473c.7210369 1.1562448 1.9873568 1.8589323 3.35 1.8589323s2.6289631-.7026875 3.35-1.8589323c.3566895-.5673457.9798443-.9116471 1.65-.9116471s1.2933105.3443014 1.65.9116471c.7210369 1.1562448 1.9873568 1.8589323 3.35 1.8589323s2.6289631-.7026875 3.35-1.8589323l.3-.473c.3343455-.5360155.9079736-.8764927 1.5386458-.9132637s1.2399818.2347357 1.6343542.7282637l1.4 1.752c.2222944.2815774.578389.4225033.9331716.3693066s.6538854-.292364.7838204-.6267553c.129935-.3343912.0707907-.7127633-.154992-.9915513z" data-original="#000000"/></g></g></g></g></svg>