<svg xmlns="http://www.w3.org/2000/svg" xmlns:svgjs="http://svgjs.com/svgjs" xmlns:xlink="http://www.w3.org/1999/xlink" style="enable-background:new 0 0 512 512" width="512" height="512" x="0" y="0" version="1.1" viewBox="0 0 57 60" xml:space="preserve"><g><g xmlns="http://www.w3.org/2000/svg" id="Page-1" fill="none" fill-rule="evenodd"><g id="046---Dead-Bot" fill-rule="nonzero" transform="translate(0 -1)"><path id="Shape" fill="#5865f2" d="m55.7 33.61c2.252 16.9-8.536 24.066-22.769 25.963s-26.521-2.196-28.773-19.092c-2.1-15.77 7.934-28.572 22.168-30.469s27.274 7.828 29.374 23.598z" data-original="#f5f5f5"/><path id="Shape" fill="#4751c2" d="m55.7 33.61c-2-15.01-13.9-24.532-27.318-23.785 12.149.715 22.47 9.908 24.32 23.785 2.252 16.9-8.536 24.066-22.769 25.963-1.5626667.2086667-3.0983333.342-4.607.4 2.5424519.0857234 5.0875593-.0481064 7.607-.4 14.233-1.897 25.021-9.067 22.767-25.963z" data-original="#cfd8dc"/><rect id="Rectangle-path" width="44" height="24" x="8.158" y="26.757" fill="#ed4245" data-original="#607d8b" rx="12" transform="matrix(.991 -.132 .132 .991 -4.857 4.325)"/><path id="Shape" fill="#cc2629" d="m51.965 35.85c-.8744324-6.5498429-6.8795807-11.1602125-13.433-10.313 5.9941564.7306449 10.5102479 5.8039456 10.5417166 11.842386.0314687 6.0384405-4.4315009 11.1585346-10.4177166 11.951614l-19.825 2.643h-.047c1.0115071.1299954 2.0354929.1299954 3.047 0l19.825-2.643c3.1547811-.4205659 6.0132688-2.0771737 7.9465945-4.6053689 1.9333258-2.5281952 2.7831121-5.7208688 2.3624055-8.8756311z" data-original="#37474f"/><circle id="Oval" cx="4.783" cy="14.901" r="3" fill="#57f287" data-original="#02a9f4"/><circle id="Oval" cx="48.397" cy="9.087" r="3" fill="#57f287" data-original="#02a9f4"/><g fill="#000"><path id="Shape" fill="#000" d="m50.716 18.917-.816-6.138c1.3299934-.5356282 2.270085-1.7439897 2.4622226-3.16485673s-.3932561-2.83551325-1.5332226-3.70514327c-1.3378016-1.0316904-3.1795302-1.11165652-4.6017186-.19980229-1.4221885.91185423-2.1181545 2.61889559-1.7389315 4.26519082.3792231 1.64629527 1.7518591 2.87683547 3.4296501 3.07461147l.427 3.2c-5.8500922-5.7357762-14.0437846-8.40942564-22.151-7.228-8.1323896.9859992-15.3380609 5.7124787-19.482 12.779l-.428-3.206c1.55843007-.6345492 2.55182655-2.1779696 2.48394989-3.8592637-.06787665-1.6812941-1.18245832-3.1396119-2.78696883-3.6464679s-3.3545797.0465344-4.37598106 1.3837316c-.87533663 1.1384803-1.070962 2.6596715-.51216056 3.9825822s1.78572159 2.2432144 3.21216056 2.4094178l.815 6.136c-2.03246675 4.9364853-2.70712792 10.3268693-1.954 15.612 1.791 13.433 9.9 20.4 23.575 20.4 2.1151849-.0084342 4.2274838-.1570936 6.323-.445 17.509-2.334 25.68-11.7 23.629-27.086-.6555934-5.3014193-2.7194666-10.3304051-5.977-14.564zm-4.3-9.565c-.0716168-.52643261.0691666-1.0597277.3912876-1.48221833s.799106-.69945441 1.3257124-.76978167c.0879061-.01104385.1764034-.01672104.265-.017 1.0700462.00033921 1.9502644.84285068 1.9974228 1.91185723.0471583 1.06900657-.7554516 1.98575467-1.8213112 2.08031757-1.0658596.094563-2.0173304-.6665632-2.1591116-1.7271748zm-43.616 5.814c-.07016799-.5257947.07141835-1.0579277.39360914-1.4793262.32219079-.4213986.79859146-.6975408 1.32439086-.7676738.08783026-.0119307.17636314-.0179443.265-.018 1.07004617.0003392 1.9502644.8428507 1.99742277 1.9118572.04715837 1.0690066-.75545155 1.9857547-1.82131118 2.0803176-1.06585963.094563-2.01733041-.6665632-2.15911159-1.7271748zm30 43.416c-16.445 2.194-25.745-3.943-27.652-18.233-1.978-14.849 7.183-27.462 21.31-29.349 1.1469761-.1533419 2.3028196-.2308435 3.46-.232 12.606 0 22.978 9.352 24.793 22.97 1.904 14.294-5.467 22.652-21.911 24.844z" data-original="#000000"/><path id="Shape" fill="#000" d="m38.353 24.55-19.825 2.642c-4.6039031.6136036-8.53073133 3.6367498-10.30128653 7.9306486-1.77055521 4.2938988-1.1158479 9.2062049 1.71750001 12.8865001 2.83334792 3.6802952 7.41488342 5.569455 12.01878652 4.9558513l19.825-2.643c7.1008275-.9656745 12.0810078-7.4955606 11.1342405-14.5989338-.9467673-7.1033731-7.463372-12.1009196-14.5692405-11.1730662zm10.456 19.568c-1.7673655 2.3233951-4.3904281 3.8435832-7.285 4.222l-19.824 2.642c-6.0117764.783599-11.5242063-3.4447556-12.32530357-9.4542253-.80109729-6.0094698 3.41119147-11.5341859 9.41830357-12.3527747l19.824-2.643c.4896272-.0654935.9830132-.0988981 1.477-.1 4.1818085.0077381 7.9975505 2.3859937 9.846304 6.1369526 1.8487536 3.7509589 1.4107264 8.2257906-1.130304 11.5470474z" data-original="#000000"/><path id="Shape" fill="#000" d="m25.069 24.294c.0444842-.0000385.0889162-.0030451.133-.009l5.947-.793c.3611627-.0387509.6729125-.2702961.8143702-.6048554.1414577-.3345592.0903761-.7195161-.1334381-1.0056058-.2238142-.2860898-.5851617-.4283189-.9439321-.3715388l-5.948.793c-.5209775.0703565-.8985251.5320856-.8640103 1.0566581s.4693057.932853.9950103.9343419z" data-original="#000000"/><path id="Shape" fill="#000" d="m26.522 20.064c.0444619.0002931.0888938-.0023795.133-.008l1.984-.264c.5371259-.083746.9089665-.581239.8371915-1.1200951-.0717749-.5388562-.5608718-.9216733-1.1011915-.8619049l-1.983.263c-.5207976.0703193-.8983075.5317555-.864067 1.0561623.0342406.5244068.4685473.9328364.994067.9348377z" data-original="#000000"/><path id="Shape" fill="#000" d="m18.971 38.735 2.4-3.137c.2267926-.2829695.2826193-.6665442.1458956-1.002421-.1367238-.3358768-.444569-.5714133-.8045123-.615543-.3599433-.0441298-.7155702.1100637-.9293833.402964l-2.4 3.138-3.138-2.4c-.4389846-.3204525-1.0535428-.2316141-1.3838057.2000382-.3302629.4316522-.255295 1.0480562.1688057 1.3879618l3.138 2.4-2.4 3.138c-.232749.2822972-.2927489.6691666-.1564403 1.0087012.1363085.3395346.4471617.5775224.8105009.6205158.3633391.0429934.7211515-.1158721.9329394-.414217l2.4-3.139 3.138 2.4c.4391304.313041 1.0473856.2214913 1.3749153-.2069413s.2563416-1.0394056-.1609153-1.3810587z" data-original="#000000"/><path id="Shape" fill="#000" d="m43.769 35.43 2.384-3.139c.2342859-.2828486.2946668-.6713654.1572753-1.0119778-.1373914-.3406124-.4504422-.5784996-.8154101-.6196297-.3649678-.0411301-.7231118.1211166-.9328652.4226075l-2.377 3.129-3.114-2.4c-.4379764-.3200627-1.0512659-.232571-1.3822721.1971944-.3310063.4297655-.259009 1.0450664.1622721 1.3868056l3.124 2.4-2.384 3.145c-.2294596.2834314-.2864384.6692987-.148691 1.0069535.1377473.3376547.448378.5735546.8106172.6156006.3622391.042046.7186459-.116429.9300738-.4135541l2.376-3.127 3.113 2.4c.4371238.3353514 1.0631478.2539683 1.4-.182.3355756-.4368624.2546449-1.0628454-.181-1.4z" data-original="#000000"/><path id="Shape" fill="#000" d="m30.68 42.758c-2.0744364.3318111-3.9647979 1.3862623-5.337 2.977-.3346121.4326468-.259558 1.0538526.1684664 1.3943575.4280243.340505 1.0501996.2739641 1.3965336-.1493575 1.058181-1.1881529 2.4900427-1.9797513 4.059-2.244 1.5714853-.1844641 3.1567859.2039612 4.465 1.094.2840261.2168602.6621707.2657212.9919902.1281775.3298196-.1375438.5612067-.4405961.607-.7950001.0457934-.3544039-.100964-.7063172-.3849902-.9231774-1.7333967-1.2226144-3.8619826-1.7513714-5.966-1.482z" data-original="#000000"/><path id="Shape" fill="#000" d="m36.241 7.349c-.2485449.26901333-.3301409.65237789-.2126907.99929024s.415153.60186204.7760016.66455995c.3608485.06269791.7271025-.07688843.9546891-.36385019l.858-1c.8458335-.9374013.8458335-2.3625987 0-3.3-.0953491-.09146582-.1492546-.21787334-.1492546-.35s.0539055-.25853418.1492546-.35l.857-1c.3589851-.41973641.3097364-1.05101491-.11-1.41s-1.0510149-.30973641-1.41.11l-.855 1c-.8467598.93704498-.8467598 2.36295502 0 3.3.0953491.09146582.1492546.21787334.1492546.35s-.0539055.25853418-.1492546.35z" data-original="#000000"/><path id="Shape" fill="#000" d="m40.526 7.35c-.3589851.41973641-.3097364 1.05101489.11 1.40999996s1.0510149.30973641 1.41-.10999996l.855-1c.8467598-.93704498.8467598-2.36295502 0-3.3-.0953491-.09146582-.1492546-.21787334-.1492546-.35s.0539055-.25853418.1492546-.35l.858-1c.2485449-.26901333.3301409-.65237789.2126907-.99929024s-.415153-.60186204-.7760016-.66455995c-.3608485-.06269791-.7271025.07688843-.9546891.36385019l-.858 1c-.8458335.9374013-.8458335 2.3625987 0 3.3.0953491.09146582.1492546.21787334.1492546.35s-.0539055.25853418-.1492546.35z" data-original="#000000"/><path id="Shape" fill="#000" d="m10.241 9.349c-.24854487.26901333-.33014085.6523779-.2126907.9992902.1174502.3469124.415153.6018621.7760016.66456.3608485.0626979.7271025-.0768884.9546891-.3638502l.858-1c.8458335-.9374013.8458335-2.3625987 0-3.3-.0953491-.09146582-.1492546-.21787334-.1492546-.35s.0539055-.25853418.1492546-.35l.857-1c.2322226-.27152185.30195-.64630768.1829165-.98317931-.1190335-.33687162-.4087439-.58465022-.76-.65-.3512561-.06534977-.7106939.06165746-.9429165.33317931l-.855 1c-.8467598.93704498-.8467598 2.36295502 0 3.3.0953491.09146582.1492546.21787334.1492546.35s-.0539055.25853418-.1492546.35z" data-original="#000000"/><path id="Shape" fill="#000" d="m14.526 9.35c-.3589851.41973641-.3097364 1.0510149.11 1.41s1.0510149.3097364 1.41-.11l.855-1c.8467598-.93704498.8467598-2.36295502 0-3.3-.0953491-.09146582-.1492546-.21787334-.1492546-.35s.0539055-.25853418.1492546-.35l.858-1c.2485449-.26901333.3301409-.65237789.2126907-.99929024s-.415153-.60186204-.7760016-.66455995c-.3608485-.06269791-.7271025.07688843-.9546891.36385019l-.858 1c-.8458335.9374013-.8458335 2.3625987 0 3.3.0953491.09146582.1492546.21787334.1492546.35s-.0539055.25853418-.1492546.35z" data-original="#000000"/></g></g></g></g></svg>