<svg xmlns="http://www.w3.org/2000/svg" xmlns:svgjs="http://svgjs.com/svgjs" xmlns:xlink="http://www.w3.org/1999/xlink" style="enable-background:new 0 0 512 512" width="512" height="512" x="0" y="0" version="1.1" viewBox="0 0 60 60" xml:space="preserve"><g><g xmlns="http://www.w3.org/2000/svg" id="Page-1" fill="none" fill-rule="evenodd"><g id="050---Bot-Audio-Wave" fill-rule="nonzero" transform="translate(-1 -1)"><path id="Shape" fill="#5865f2" d="m60 33.636c0 19.773-12.984 26.364-29 26.364s-29-6.591-29-26.364c0-18.454 12.984-31.636 29-31.636s29 13.182 29 31.636z" data-original="#f5f5f5"/><path id="Shape" fill="#4751c2" d="m31 2c-.5033333 0-1.0033333.013-1.5.039 15.319.8 27.5 13.723 27.5 31.6 0 19.149-12.181 25.934-27.5 26.341.4966667.0133333.9966667.02 1.5.02 16.016 0 29-6.591 29-26.364 0-18.454-12.984-31.636-29-31.636z" data-original="#cfd8dc"/><rect id="Rectangle-path" width="50" height="28" x="6" y="23" fill="#ed4245" data-original="#607d8b" rx="14"/><path id="Shape" fill="#cc2629" d="m42 23h-3c7.7319864.0000001 13.9999998 6.2680136 13.9999998 14s-6.2680134 13.9999999-13.9999998 14h3c7.7319864-.0000001 13.9999998-6.2680136 13.9999998-14s-6.2680134-13.9999999-13.9999998-14z" data-original="#37474f"/><circle id="Oval" cx="8" cy="4" r="2" fill="#57f287" data-original="#02a9f4"/><circle id="Oval" cx="54" cy="4" r="2" fill="#57f287" data-original="#02a9f4"/><g fill="#000"><path id="Shape" fill="#000" d="m20 22c-8.2842712 0-15 6.7157288-15 15s6.7157288 15 15 15h22c8.2842712 0 15-6.7157288 15-15s-6.7157288-15-15-15zm35 15c-.008266 7.1762751-5.8237249 12.991734-13 13h-22c-7.1797017 0-13-5.8202983-13-13s5.8202983-13 13-13h22c7.1762751.008266 12.991734 5.8237249 13 13z" data-original="#000000"/><path id="Shape" fill="#000" d="m28 20h6c.5522847 0 1-.4477153 1-1s-.4477153-1-1-1h-6c-.5522847 0-1 .4477153-1 1s.4477153 1 1 1z" data-original="#000000"/><path id="Shape" fill="#000" d="m30 17h2c.5522847 0 1-.4477153 1-1s-.4477153-1-1-1h-2c-.5522847 0-1 .4477153-1 1s.4477153 1 1 1z" data-original="#000000"/><path id="Shape" fill="#000" d="m55 6.816c1.3775467-.4870363 2.2038721-1.89566623 1.9567957-3.33573306s-1.4956868-2.49269406-2.9567957-2.49269406-2.7097193 1.05262723-2.9567957 2.49269406.579249 2.84869676 1.9567957 3.33573306v4.2c-5.5020636-6.41349313-13.5500406-10.07751758-22-10.016-8.4493134-.0625167-16.4971824 3.59999533-22 10.012v-4.2c1.3775467-.4870363 2.2038721-1.89566623 1.9567957-3.33573306s-1.4956868-2.49269406-2.9567957-2.49269406-2.70971927 1.05262723-2.95679568 2.49269406.57924899 2.84869676 1.95679568 3.33573306v6.768c-4.00319138 5.9151732-6.0972303 12.9151962-6 20.057 0 17.901 10.374 27.363 30 27.363s30-9.462 30-27.363c.0964101-7.1404444-1.9975927-14.1389509-6-20.053zm-1-3.816c.5522847 0 1 .44771525 1 1s-.4477153 1-1 1-1-.44771525-1-1 .4477153-1 1-1zm-46 0c.55228475 0 1 .44771525 1 1s-.44771525 1-1 1-1-.44771525-1-1 .44771525-1 1-1zm23 56c-12.773 0-28-4.4-28-25.363 0-17.466 12.037-30.637 28-30.637s28 13.171 28 30.637c0 20.963-15.227 25.363-28 25.363z" data-original="#000000"/><path id="Shape" fill="#000" d="m40.071 33c-.4043152-.0320874-.7872384.1859331-.966.55l-1.959 3.921-3.207-8.816c-.1446866-.3936326-.5196186-.6551666-.939-.655-.4213271.0016283-.7964362.2671639-.938.664l-4.03 11.272-1.084-3.252c-.1359555-.4081936-.5177607-.6836733-.948-.684h-4.219l-1.811-7.242c-.1058848-.4271313-.4785498-.7348437-.918-.758-.4402591-.0278992-.845284.2406188-.991.657l-3.326 9.143-.9-1.356c-.1863429-.2785753-.4998489-.4452779-.835-.444h-3c-.55228475 0-1 .4477153-1 1s.44771525 1 1 1h2.465l1.7 2.555c.2092882.313252.5768665.4822977.9509048.4373117.3740382-.044986.6910513-.2963682.8200952-.6503117l2.883-7.928 1.208 4.828c.1113402.4464152.5129114.7592527.973.758h4.279l1.773 5.316c.1346536.4043831.5108168.6789782.937.684h.011c.4224284-.0003642.7990642-.2661305.941-.664l4.068-11.387 3.052 8.393c.1367152.3753105.4836602.6332633.8824431.6560944.3987828.0228311.7729009-.1938395.9515569-.5510944l1.919-3.841 2.238 6.71c.1348836.4103745.5180268.6877501.95.6877501s.8151164-.2773756.95-.6877501l1.769-5.316h6.279c.5522847 0 1-.4477153 1-1s-.4477153-1-1-1h-7c-.4302393.0003267-.8120445.2758064-.948.684l-1.052 3.154-2.052-6.154c-.1268869-.3845314-.4731441-.6545883-.877-.684z" data-original="#000000"/></g></g></g></g></svg>