<svg xmlns="http://www.w3.org/2000/svg" xmlns:svgjs="http://svgjs.com/svgjs" xmlns:xlink="http://www.w3.org/1999/xlink" style="enable-background:new 0 0 512 512" width="512" height="512" x="0" y="0" version="1.1" viewBox="0 0 60 60" xml:space="preserve"><g><g xmlns="http://www.w3.org/2000/svg" id="Page-1" fill="none" fill-rule="evenodd"><g id="023---Bot-Loading" fill-rule="nonzero" transform="translate(-1 -1)"><path id="Shape" fill="#5865f2" d="m60 33.636c0 19.773-12.984 26.364-29 26.364s-29-6.591-29-26.364c0-18.454 12.984-31.636 29-31.636s29 13.182 29 31.636z" data-original="#f5f5f5"/><path id="Shape" fill="#4751c2" d="m31 2c-.5033333 0-1.0033333.013-1.5.039 15.319.8 27.5 13.723 27.5 31.6 0 19.149-12.181 25.934-27.5 26.341.4966667.0133333.9966667.02 1.5.02 16.016 0 29-6.591 29-26.364 0-18.454-12.984-31.636-29-31.636z" data-original="#cfd8dc"/><rect id="Rectangle-path" width="50" height="28" x="6" y="23" fill="#ed4245" data-original="#607d8b" rx="14"/><path id="Shape" fill="#cc2629" d="m42 23h-3c7.7319864.0000001 13.9999998 6.2680136 13.9999998 14s-6.2680134 13.9999999-13.9999998 14h3c7.7319864-.0000001 13.9999998-6.2680136 13.9999998-14s-6.2680134-13.9999999-13.9999998-14z" data-original="#37474f"/><circle id="Oval" cx="8" cy="4" r="2" fill="#02a9f4" data-original="#02a9f4"/><circle id="Oval" cx="54" cy="4" r="2" fill="#02a9f4" data-original="#02a9f4"/><path id="Shape" fill="#cc2629" d="m52 37c.0039999 1.3273046-.5214997 2.6013996-1.4600501 3.5399499-.9385503.9385504-2.2126453 1.46405-3.5399499 1.4600501l-7 .0000227v-10.0000227h7c2.7614237 0 5 2.2385763 5 5z" data-original="#37474f"/><path id="Shape" fill="#fee75c" d="m40 32v10h-25c-2.7614237 0-5-2.2385763-5-5s2.2385763-5 5-5z" data-original="#a4c400"/><path id="Rectangle-path" fill="#d8c23e" d="m37 32h3v10h-3z" data-original="#90ac00"/><g fill="#000"><path id="Shape" fill="#000" d="m20 22c-8.2842712 0-15 6.7157288-15 15s6.7157288 15 15 15h22c8.2842712 0 15-6.7157288 15-15s-6.7157288-15-15-15zm35 15c-.008266 7.1762751-5.8237249 12.991734-13 13h-22c-7.1797017 0-13-5.8202983-13-13s5.8202983-13 13-13h22c7.1762751.008266 12.991734 5.8237249 13 13z" data-original="#000000"/><path id="Shape" fill="#000" d="m28 20h6c.5522847 0 1-.4477153 1-1s-.4477153-1-1-1h-6c-.5522847 0-1 .4477153-1 1s.4477153 1 1 1z" data-original="#000000"/><path id="Shape" fill="#000" d="m30 17h2c.5522847 0 1-.4477153 1-1s-.4477153-1-1-1h-2c-.5522847 0-1 .4477153-1 1s.4477153 1 1 1z" data-original="#000000"/><path id="Shape" fill="#000" d="m55 6.816c1.3775467-.4870363 2.2038721-1.89566623 1.9567957-3.33573306s-1.4956868-2.49269406-2.9567957-2.49269406-2.7097193 1.05262723-2.9567957 2.49269406.579249 2.84869676 1.9567957 3.33573306v4.2c-5.5020636-6.41349313-13.5500406-10.07751758-22-10.016-8.4493134-.0625167-16.4971824 3.59999533-22 10.012v-4.2c1.3775467-.4870363 2.2038721-1.89566623 1.9567957-3.33573306s-1.4956868-2.49269406-2.9567957-2.49269406-2.70971927 1.05262723-2.95679568 2.49269406.57924899 2.84869676 1.95679568 3.33573306v6.768c-4.00305402 5.9148643-6.09708956 12.9145271-6 20.056 0 17.902 10.374 27.364 30 27.364s30-9.462 30-27.364c.0962694-7.1401135-1.9977301-14.1382597-6-20.052zm-1-3.816c.5522847 0 1 .44771525 1 1s-.4477153 1-1 1-1-.44771525-1-1 .4477153-1 1-1zm-46 0c.55228475 0 1 .44771525 1 1s-.44771525 1-1 1-1-.44771525-1-1 .44771525-1 1-1zm23 56c-12.773 0-28-4.4-28-25.364 0-17.465 12.038-30.636 28-30.636s28 13.171 28 30.636c0 20.964-15.227 25.364-28 25.364z" data-original="#000000"/><path id="Shape" fill="#000" d="m9 37c.00330738 3.3123376 2.6876624 5.9966926 6 6h32c3.3137085 0 6-2.6862915 6-6s-2.6862915-6-6-6h-32c-3.3123376.0033074-5.99669262 2.6876624-6 6zm30 4h-2.233l2.233-3.721zm0-7.607-4.566 7.607h-2.668l4.8-8h2.434zm-9.566 7.607h-2.668l4.8-8h2.668zm-5 0h-2.668l4.8-8h2.668zm-5 0h-2.668l4.8-8h2.668zm-4.968-.054c-.779634-.1035973-1.5107284-.4371156-2.1-.958l4.2-6.988h2.668zm-.285-7.86-3.009 5.014c-.1092575-.3566433-.1671721-.7270277-.172-1.1.0025128-1.8923285 1.3291538-3.5246683 3.181-3.914zm36.819 3.914c0 2.209139-1.790861 4-4 4h-6v-8h6c2.209139 0 4 1.790861 4 4z" data-original="#000000"/></g></g></g></g></svg>