<svg xmlns="http://www.w3.org/2000/svg" xmlns:svgjs="http://svgjs.com/svgjs" xmlns:xlink="http://www.w3.org/1999/xlink" style="enable-background:new 0 0 512 512" width="512" height="512" x="0" y="0" version="1.1" viewBox="0 0 48 60" xml:space="preserve"><g><g xmlns="http://www.w3.org/2000/svg" id="Page-1" fill="none" fill-rule="evenodd"><g id="004---Chat-Bot" fill-rule="nonzero" transform="translate(-1 -1)"><path id="Shape" fill="#5865f2" d="m48 26c0 15-10.3 20-23 20s-23-5-23-20c0-14 10.3-24 23-24s23 10 23 24z" data-original="#f5f5f5"/><path id="Shape" fill="#4751c2" d="m25 2c-.5 0-1 .021-1.5.053 12 .753 21.5 10.503 21.5 23.947 0 14.4-9.5 19.584-21.5 19.973.5.016 1 .027 1.5.027 12.7 0 23-5 23-20 0-14-10.3-24-23-24z" data-original="#cfd8dc"/><rect id="Rectangle-path" width="38" height="22" x="6" y="15" fill="#ed4245" data-original="#607d8b" rx="11"/><path id="Shape" fill="#cc2629" d="m33 15h-3c6.0751322 0 11 4.9248678 11 11s-4.9248678 11-11 11h3c6.0751322 0 11-4.9248678 11-11s-4.9248678-11-11-11z" data-original="#37474f"/><circle id="Oval" cx="6" cy="4" r="2" fill="#57f287" data-original="#02a9f4"/><circle id="Oval" cx="44" cy="4" r="2" fill="#57f287" data-original="#02a9f4"/><path id="Shape" fill="#5865f2" d="m14 46h22c2.209139 0 4 1.790861 4 4v2c0 4.418278-3.581722 8-8 8h-14c-4.418278 0-8-3.581722-8-8v-2c0-2.209139 1.790861-4 4-4z" data-original="#f5f5f5"/><path id="Shape" fill="#4751c2" d="m36 46h-3c2.209139 0 4 1.790861 4 4v2c0 4.418278-3.581722 8-8 8h3c4.418278 0 8-3.581722 8-8v-2c0-2.209139-1.790861-4-4-4z" data-original="#cfd8dc"/><circle id="Oval" cx="14" cy="24" r="3" fill="#fff" data-original="#00bcd4"/><circle id="Oval" cx="36" cy="24" r="3" fill="#fff" data-original="#00bcd4"/><path id="Shape" fill="#fff" d="m22 28h6c.5522847 0 1 .4477153 1 1 0 2.209139-1.790861 4-4 4s-4-1.790861-4-4c0-.5522847.4477153-1 1-1z" data-original="#00bcd4"/><path id="Shape" fill="#9e9e9e" d="m20 46h10v5c0 2.7614237-2.2385763 5-5 5s-5-2.2385763-5-5z" data-original="#9e9e9e"/><path id="Shape" fill="#707070" d="m27 46v5c-.0055366 2.1764172-1.4223853 4.097664-3.5 4.746 1.5162558.5066858 3.1840091.247652 4.4751436-.6950748 1.2911344-.9427268 2.0457384-2.4523865 2.0248564-4.0509252v-5z" data-original="#707070"/><g fill="#000"><path id="Shape" fill="#000" d="m1 26c0 9.673 4.131 16.119 12.046 19.1-2.3451243.4586198-4.03935896 2.5104611-4.046 4.9v2c.00606096 4.9680501 4.0319499 8.993939 9 9h14c4.9680501-.006061 8.993939-4.0319499 9-9v-2c-.006641-2.3895389-1.7008757-4.4413802-4.046-4.9 7.915-2.981 12.046-9.427 12.046-19.1.0531633-5.0167237-1.3351719-9.9432313-4-14.194v-4.99c1.3775467-.4870363 2.2038721-1.89566623 1.9567957-3.33573306s-1.4956868-2.49269406-2.9567957-2.49269406-2.7097193 1.05262723-2.9567957 2.49269406.579249 2.84869676 1.9567957 3.33573306v2.3c-4.5084222-5.22891869-11.0963403-8.19933777-18-8.116-6.9038212-.08308784-13.4917663 2.8877094-18 8.117v-2.3c1.37754669-.4870363 2.20387209-1.89566623 1.95679568-3.33573306s-1.49568678-2.49269406-2.95679568-2.49269406-2.70971927 1.05262723-2.95679568 2.49269406.57924899 2.84869676 1.95679568 3.33573306v4.99c-2.66464364 4.2504815-4.0529714 9.1766155-4 14.193zm43-23c.5522847 0 1 .44771525 1 1s-.4477153 1-1 1-1-.44771525-1-1 .4477153-1 1-1zm-38 0c.55228475 0 1 .44771525 1 1s-.44771525 1-1 1-1-.44771525-1-1 .44771525-1 1-1zm23 44v4c0 2.209139-1.790861 4-4 4s-4-1.790861-4-4v-4zm10 3v2c-.0044086 3.8641657-3.1358343 6.9955914-7 7h-14c-3.8641657-.0044086-6.9955914-3.1358343-7-7v-2c0-1.6568542 1.3431458-3 3-3h5v4c0 3.3137085 2.6862915 6 6 6s6-2.6862915 6-6v-4h5c1.6568542 0 3 1.3431458 3 3zm-14-47c12.542 0 22 9.888 22 23 0 12.607-7.4 19-22 19s-22-6.393-22-19c0-13.112 9.458-23 22-23z" data-original="#000000"/><path id="Shape" fill="#000" d="m17 38h16c6.6274169-.0000001 11.9999998-5.3725831 11.9999998-12s-5.3725829-11.9999999-11.9999998-12h-16c-6.6274169.0000001-11.99999982 5.3725831-11.99999982 12s5.37258292 11.9999999 11.99999982 12zm0-22h16c5.5228475 0 10 4.4771525 10 10s-4.4771525 10-10 10h-16c-5.5228475 0-10-4.4771525-10-10s4.4771525-10 10-10z" data-original="#000000"/><path id="Shape" fill="#000" d="m22 12h6c.5522847 0 1-.4477153 1-1s-.4477153-1-1-1h-6c-.5522847 0-1 .4477153-1 1s.4477153 1 1 1z" data-original="#000000"/><path id="Shape" fill="#000" d="m24 9h2c.5522847 0 1-.44771525 1-1s-.4477153-1-1-1h-2c-.5522847 0-1 .44771525-1 1s.4477153 1 1 1z" data-original="#000000"/><path id="Shape" fill="#000" d="m14 28c2.209139 0 4-1.790861 4-4s-1.790861-4-4-4-4 1.790861-4 4 1.790861 4 4 4zm0-6c1.1045695 0 2 .8954305 2 2s-.8954305 2-2 2-2-.8954305-2-2 .8954305-2 2-2z" data-original="#000000"/><path id="Shape" fill="#000" d="m36 28c2.209139 0 4-1.790861 4-4s-1.790861-4-4-4-4 1.790861-4 4 1.790861 4 4 4zm0-6c1.1045695 0 2 .8954305 2 2s-.8954305 2-2 2-2-.8954305-2-2 .8954305-2 2-2z" data-original="#000000"/><path id="Shape" fill="#000" d="m25 34c2.7600532-.0033061 4.9966939-2.2399468 5-5 0-1.1045695-.8954305-2-2-2h-6c-1.1045695 0-2 .8954305-2 2 .0033061 2.7600532 2.2399468 4.9966939 5 5zm3-5c0 1.6568542-1.3431458 3-3 3s-3-1.3431458-3-3z" data-original="#000000"/><circle id="Oval" cx="25" cy="51" r="1" fill="#000" data-original="#000000"/></g></g></g></g></svg>