<svg xmlns="http://www.w3.org/2000/svg" xmlns:svgjs="http://svgjs.com/svgjs" xmlns:xlink="http://www.w3.org/1999/xlink" style="enable-background:new 0 0 512 512" width="512" height="512" x="0" y="0" version="1.1" viewBox="0 0 60 60" xml:space="preserve"><g><g xmlns="http://www.w3.org/2000/svg" id="Page-1" fill="none" fill-rule="evenodd"><g id="049---Love-Bot" fill-rule="nonzero" transform="translate(-1 -1)"><path id="Shape" fill="#5865f2" d="m60 33.636c0 19.773-12.984 26.364-29 26.364s-29-6.591-29-26.364c0-18.454 12.984-31.636 29-31.636s29 13.182 29 31.636z" data-original="#f5f5f5"/><path id="Shape" fill="#4751c2" d="m31 2c-.5033333 0-1.0033333.013-1.5.039 15.319.8 27.5 13.723 27.5 31.6 0 19.149-12.181 25.934-27.5 26.341.4966667.0133333.9966667.02 1.5.02 16.016 0 29-6.591 29-26.364 0-18.454-12.984-31.636-29-31.636z" data-original="#cfd8dc"/><rect id="Rectangle-path" width="50" height="28" x="6" y="23" fill="#ed4245" data-original="#607d8b" rx="14"/><path id="Shape" fill="#cc2629" d="m42 23h-3c7.7319864.0000001 13.9999998 6.2680136 13.9999998 14s-6.2680134 13.9999999-13.9999998 14h3c7.7319864-.0000001 13.9999998-6.2680136 13.9999998-14s-6.2680134-13.9999999-13.9999998-14z" data-original="#37474f"/><path id="Shape" fill="#fff" d="m27 40h8c.5522847 0 1 .4477153 1 1 0 2.7614237-2.2385763 5-5 5s-5-2.2385763-5-5c0-.5522847.4477153-1 1-1z" data-original="#00bcd4"/><circle id="Oval" cx="8" cy="4" r="2" fill="#57f287" data-original="#02a9f4"/><circle id="Oval" cx="54" cy="4" r="2" fill="#57f287" data-original="#02a9f4"/><path id="Shape" fill="#e91e63" d="m17 32.125c.6366406-.7118064 1.545034-1.1205834 2.5-1.125 1.48 0 2.5 1.458 2.5 3.136s-1.054 4.586-5 5.864c-3.946-1.278-5-4.179-5-5.864s1.02-3.136 2.5-3.136c.954966.0044166 1.8633594.4131936 2.5 1.125z" data-original="#e91e63"/><path id="Shape" fill="#e91e63" d="m45 32.125c.6366406-.7118064 1.545034-1.1205834 2.5-1.125 1.48 0 2.5 1.458 2.5 3.136s-1.054 4.586-5 5.864c-3.946-1.278-5-4.179-5-5.864s1.02-3.136 2.5-3.136c.954966.0044166 1.8633594.4131936 2.5 1.125z" data-original="#e91e63"/><g fill="#000"><path id="Shape" fill="#000" d="m35 39h-8c-1.1045695 0-2 .8954305-2 2 0 3.3137085 2.6862915 6 6 6s6-2.6862915 6-6c0-1.1045695-.8954305-2-2-2zm-4 6c-2.209139 0-4-1.790861-4-4h8c0 2.209139-1.790861 4-4 4z" data-original="#000000"/><path id="Shape" fill="#000" d="m20 22c-8.2842712 0-15 6.7157288-15 15s6.7157288 15 15 15h22c8.2842712 0 15-6.7157288 15-15s-6.7157288-15-15-15zm35 15c-.008266 7.1762751-5.8237249 12.991734-13 13h-22c-7.1797017 0-13-5.8202983-13-13s5.8202983-13 13-13h22c7.1762751.008266 12.991734 5.8237249 13 13z" data-original="#000000"/><path id="Shape" fill="#000" d="m28 20h6c.5522847 0 1-.4477153 1-1s-.4477153-1-1-1h-6c-.5522847 0-1 .4477153-1 1s.4477153 1 1 1z" data-original="#000000"/><path id="Shape" fill="#000" d="m30 17h2c.5522847 0 1-.4477153 1-1s-.4477153-1-1-1h-2c-.5522847 0-1 .4477153-1 1s.4477153 1 1 1z" data-original="#000000"/><path id="Shape" fill="#000" d="m55 6.816c1.3775467-.4870363 2.2038721-1.89566623 1.9567957-3.33573306s-1.4956868-2.49269406-2.9567957-2.49269406-2.7097193 1.05262723-2.9567957 2.49269406.579249 2.84869676 1.9567957 3.33573306v4.2c-5.5020636-6.41349313-13.5500406-10.07751758-22-10.016-8.4493134-.0625167-16.4971824 3.59999533-22 10.012v-4.2c1.3775467-.4870363 2.2038721-1.89566623 1.9567957-3.33573306s-1.4956868-2.49269406-2.9567957-2.49269406-2.70971927 1.05262723-2.95679568 2.49269406.57924899 2.84869676 1.95679568 3.33573306v6.768c-4.00319138 5.9151732-6.0972303 12.9151962-6 20.057 0 17.901 10.374 27.363 30 27.363s30-9.462 30-27.363c.0964101-7.1404444-1.9975927-14.1389509-6-20.053zm-1-3.816c.5522847 0 1 .44771525 1 1s-.4477153 1-1 1-1-.44771525-1-1 .4477153-1 1-1zm-46 0c.55228475 0 1 .44771525 1 1s-.44771525 1-1 1-1-.44771525-1-1 .44771525-1 1-1zm23 56c-12.773 0-28-4.4-28-25.363 0-17.466 12.037-30.637 28-30.637s28 13.171 28 30.637c0 20.963-15.227 25.363-28 25.363z" data-original="#000000"/><path id="Shape" fill="#000" d="m19.5 30c-.8959935.0018352-1.7693956.2813239-2.5.8-.7306044-.5186761-1.6040065-.7981648-2.5-.8-1.963 0-3.5 1.817-3.5 4.137 0 2.293 1.49 5.453 5.691 6.814.200833.0652506.417167.0652506.618 0 4.201-1.361 5.691-4.521 5.691-6.814 0-2.32-1.537-4.137-3.5-4.137zm-2.5 8.943c-3.885-1.41-4-4.456-4-4.806 0-1.051.562-2.137 1.5-2.137.6553676.0032631 1.2801536.2776477 1.726.758.1888529.2279444.4689901.360506.765.362h.009c.2968761-.0017109.5780271-.1336947.769-.361.4471427-.4815883 1.0738417-.7563801 1.731-.759.938 0 1.5 1.086 1.5 2.137 0 .35-.115 3.396-4 4.806z" data-original="#000000"/><path id="Shape" fill="#000" d="m39 34.137c0 2.293 1.49 5.453 5.691 6.814.200833.0652506.417167.0652506.618 0 4.201-1.361 5.691-4.521 5.691-6.814 0-2.32-1.537-4.137-3.5-4.137-.8959935.0018352-1.7693956.2813239-2.5.8-.7306044-.5186761-1.6040065-.7981648-2.5-.8-1.963 0-3.5 1.817-3.5 4.137zm3.5-2.137c.6553676.0032631 1.2801536.2776477 1.726.758.1888529.2279444.4689901.360506.765.362h.009c.2968761-.0017109.5780271-.1336947.769-.361.4471427-.4815883 1.0738417-.7563801 1.731-.759.938 0 1.5 1.086 1.5 2.137 0 .35-.115 3.4-4 4.806-3.885-1.41-4-4.456-4-4.806 0-1.051.562-2.137 1.5-2.137z" data-original="#000000"/></g></g></g></g></svg>