<svg xmlns="http://www.w3.org/2000/svg" xmlns:svgjs="http://svgjs.com/svgjs" xmlns:xlink="http://www.w3.org/1999/xlink" style="enable-background:new 0 0 512 512" width="512" height="512" x="0" y="0" version="1.1" viewBox="0 0 60 60" xml:space="preserve"><g><g xmlns="http://www.w3.org/2000/svg" id="Page-1" fill="none" fill-rule="evenodd"><g id="018---Chat-Notification" fill-rule="nonzero"><path id="Shape" fill="#5865f2" d="m59 35.18c0 16.37-12.98 21.82-29 21.82-4.2052726.0529205-8.4008036-.4173552-12.49-1.4-.6167463-.1666022-1.2759857-.0250706-1.77.38-2.1826261 1.8221049-4.9001069 2.8824139-7.74 3.02-2.47004705-.0297432-4.88707686-.7203231-7-2 2.52583887-.9834979 4.50725681-3.0049813 5.44-5.55.26663433-.7087003.11624609-1.5069148-.39-2.07-3.18-3.36-5.05-8-5.05-14.2 0-15.27 12.98-26.18 29-26.18 3.0524555-.01043914 6.0915431.40352296 9.03 1.23-.02.25-.03.51-.03.77-.00005 3.521579 1.8522212 6.7835939 4.8764636 8.5878877 3.0242425 1.8042938 6.7745969 1.8848623 9.8735364.2121123 3.441131 4.3842445 5.2921134 9.8067416 5.25 15.38z" data-original="#f5f5f5"/><path id="Shape" fill="#4751c2" d="m53.75 19.8c-.741024.3982662-1.529682.7006915-2.347.9 3.0216827 4.2207667 4.6307736 9.2892103 4.597 14.48 0 15.731-11.988 21.374-27.139 21.792.381.006.754.028 1.139.028 16.02 0 29-5.45 29-21.82.0421134-5.5732584-1.808869-10.9957555-5.25-15.38z" data-original="#cfd8dc"/><rect id="Rectangle-path" width="48" height="22" x="6" y="24" fill="#ed4245" data-original="#607d8b" rx="11"/><path id="Shape" fill="#cc2629" d="m43 24h-3c6.0751322 0 11 4.9248678 11 11s-4.9248678 11-11 11h3c6.0751322 0 11-4.9248678 11-11s-4.9248678-11-11-11z" data-original="#37474f"/><circle id="Oval" cx="17" cy="33" r="4" fill="#fff" data-original="#00bcd4"/><circle id="Oval" cx="43" cy="33" r="4" fill="#fff" data-original="#00bcd4"/><path id="Shape" fill="#fff" d="m27 36h6c.5522847 0 1 .4477153 1 1v1c0 2.209139-1.790861 4-4 4s-4-1.790861-4-4v-1c0-.5522847.4477153-1 1-1z" data-original="#00bcd4"/><path id="Shape" fill="#f44335" d="m59 11c-.0023562 3.6745431-2.0175983 7.0524727-5.25 8.8-3.0989395 1.67275-6.8492939 1.5921815-9.8735364-.2121123-3.0242424-1.8042938-4.8765136-5.0663087-4.8764636-8.5878877 0-.26.01-.52.03-.77.4157481-5.35527244 4.9878951-9.42552482 10.3552929-9.21856957 5.3673977.20695525 9.6125558 4.61718383 9.6147071 9.98856957z" data-original="#f44335"/><path id="Shape" fill="#c81e1e" d="m49 1c-.502391.00390532-1.0037875.0453541-1.5.124 4.2516888.64146068 7.6162408 3.93097774 8.3534149 8.16712034.7371741 4.23614256-1.3183571 8.46886326-5.1034149 10.50887966-1.012628.5446786-2.1124015.9087882-3.25 1.076 3.7092711.5650696 7.4225623-.9948511 9.6154751-4.0393756 2.1929127-3.0445245 2.4960084-7.06074369.7848586-10.39989961-1.7111498-3.33915593-5.1482687-5.43870296-8.9003337-5.43672479z" data-original="#c81e1e"/><g fill="#000"><path id="Shape" fill="#000" d="m17 23c-6.627417 0-12 5.372583-12 12s5.372583 12 12 12h26c6.627417 0 12-5.372583 12-12s-5.372583-12-12-12zm36 12c-.0060624 5.5203344-4.4796656 9.9939376-10 10h-26c-5.5228474-.0000001-9.99999979-4.4771526-9.99999979-10s4.47715239-9.9999999 9.99999979-10h26c5.5203344.0060624 9.9939376 4.4796656 10 10z" data-original="#000000"/><path id="Shape" fill="#000" d="m17 28c-2.7614237 0-5 2.2385763-5 5s2.2385763 5 5 5 5-2.2385763 5-5c-.0033061-2.7600532-2.2399468-4.9966939-5-5zm0 8c-1.6568542 0-3-1.3431458-3-3s1.3431458-3 3-3 3 1.3431458 3 3-1.3431458 3-3 3z" data-original="#000000"/><path id="Shape" fill="#000" d="m38 33c0 2.7614237 2.2385763 5 5 5s5-2.2385763 5-5-2.2385763-5-5-5c-2.7600532.0033061-4.9966939 2.2399468-5 5zm8 0c0 1.6568542-1.3431458 3-3 3s-3-1.3431458-3-3 1.3431458-3 3-3 3 1.3431458 3 3z" data-original="#000000"/><path id="Shape" fill="#000" d="m33 35h-6c-1.1045695 0-2 .8954305-2 2v1c0 2.7614237 2.2385763 5 5 5s5-2.2385763 5-5v-1c0-1.1045695-.8954305-2-2-2zm0 3c0 1.6568542-1.3431458 3-3 3s-3-1.3431458-3-3v-1h6z" data-original="#000000"/><path id="Shape" fill="#000" d="m26 21h8c.5522847 0 1-.4477153 1-1s-.4477153-1-1-1h-8c-.5522847 0-1 .4477153-1 1s.4477153 1 1 1z" data-original="#000000"/><path id="Shape" fill="#000" d="m29 17h2c.5522847 0 1-.4477153 1-1s-.4477153-1-1-1h-2c-.5522847 0-1 .4477153-1 1s.4477153 1 1 1z" data-original="#000000"/><path id="Shape" fill="#000" d="m60 11c-.020548-5.66941891-4.3467287-10.39457896-9.9923509-10.91388922s-10.7611985 3.33735362-11.8156491 8.90788922c-2.6804983-.66097917-5.4312095-.99474465-8.192-.994-17.1 0-30 11.685-30 27.18 0 6.146 1.791 11.154 5.323 14.887.24646922.2885907.31446306.6892549.177 1.043-.84281415 2.2826053-2.62564958 4.0931211-4.895 4.971-.33711652.1447623-.56789303.4625059-.60127844.8278675s.13598154.7196688.44127844.9231325c2.27659845 1.3910816 4.88718502 2.1402214 7.555 2.168 3.0747078-.1378164 6.0192867-1.2805884 8.382-3.253.2473779-.1979588.5751334-.2642548.88-.178 4.1701205 1.004003 8.4490557 1.4847029 12.738 1.431 19.626 0 30-7.891 30-22.82.027094-5.4121534-1.6571211-10.6944009-4.812-15.092 3.008412-2.0469722 4.8098726-5.4492319 4.812-9.088zm-2 24.18c0 17.208-15.227 20.82-28 20.82-4.1209502.0534921-8.2325417-.4060387-12.24-1.368-.9278502-.2467614-1.9177559-.0312084-2.659.579-2.0055059 1.6690726-4.4956735 2.6471148-7.101 2.789-1.66158643-.0187071-3.30332272-.3635668-4.832-1.015 1.94916438-1.2109783 3.4341718-3.0425814 4.216-5.2.39434841-1.062396.1594503-2.2562038-.608-3.09-3.17-3.351-4.776-7.895-4.776-13.515 0-14.355 12.037-25.18 28-25.18 2.6983076-.00256935 5.3861722.3350936 8 1.005-.0034404 3.7165362 1.8725655 7.1827903 4.9859542 9.2124364 3.1133888 2.0296462 7.0419172 2.3474201 10.4410458.8445636 2.9971543 4.094714 4.6001825 9.0436648 4.573 14.118zm-9-15.18c-4.9705627 0-9-4.0294373-9-9 0-4.97056275 4.0294373-9 9-9s9 4.02943725 9 9c-.0055111 4.9682782-4.0317218 8.9944889-9 9z" data-original="#000000"/><path id="Shape" fill="#000" d="m51 15h-1v-9c-.0000863-.4043959-.2437275-.76893405-.6173454-.92367798-.373618-.15474393-.8036603-.06922994-1.0896546.21667798l-2 2c-.3789722.39237889-.3735524 1.01608478.0121814 1.40181858.3857338.38573379 1.0094397.39115363 1.4018186.01218142l.293-.293v6.586h-1c-.5522847 0-1 .4477153-1 1s.4477153 1 1 1h4c.5522847 0 1-.4477153 1-1s-.4477153-1-1-1z" data-original="#000000"/></g></g></g></g></svg>