<svg xmlns="http://www.w3.org/2000/svg" xmlns:svgjs="http://svgjs.com/svgjs" xmlns:xlink="http://www.w3.org/1999/xlink" style="enable-background:new 0 0 512 512" width="512" height="512" x="0" y="0" version="1.1" viewBox="0 0 512.007 512.007" xml:space="preserve"><g><g xmlns="http://www.w3.org/2000/svg"><g><path fill="#ed4245" fill-rule="evenodd" d="m95.814 357.017 78.442-36.549 13.983-45.928-27.71-70.228-69.29-26.773c-.483 3.752-.625 7.475-.711 12.278-1.052 60.195 17.251 96.403 5.286 167.2z" clip-rule="evenodd" data-original="#fe8607"/></g><g><path fill="#ed4245" fill-rule="evenodd" d="m154.986 416.189c70.796-11.965 107.005 6.338 167.2 5.286 4.803-.085 8.498-.227 12.249-.711l-32.286-76.822-64.686-20.179-48.827 24.073z" clip-rule="evenodd" data-original="#fe8607"/></g><g><path fill="#d1292c" fill-rule="evenodd" d="m283.278 382.567c-34.617.597-61.304-5.201-91.203-7.958l-37.089 41.58c70.796-11.965 107.005 6.338 167.2 5.286 4.803-.085 8.498-.227 12.249-.711l-38.908-38.908c-3.751.484-7.446.626-12.249.711z" clip-rule="evenodd" data-original="#f46700"/></g><g><path fill="#fec165" fill-rule="evenodd" d="m21.721 490.282c18.474 18.445 49.765 19.468 67.159 0l20.719-23.22-23.107-40.272-41.551-24.385-23.22 20.719c-6.679 5.997-10.97 13.614-12.931 21.77-1.734 7.162-1.705 14.722 0 21.998 2.017 8.611 6.365 16.797 12.931 23.39z" clip-rule="evenodd" data-original="#fec165"/></g><g><path fill="#fea610" fill-rule="evenodd" d="m88.282 445.747-20.719 23.22c-13.926 15.603-36.748 18.047-54.767 8.953 2.274 4.49 5.258 8.668 8.924 12.363 18.474 18.445 49.765 19.468 67.159 0l20.719-23.22z" clip-rule="evenodd" data-original="#fea610"/></g><g><path fill="#fec165" fill-rule="evenodd" d="m154.986 416.189 82.478-92.425-6.679-42.006-42.546-7.219-92.425 82.478-12.846 11.453 13.812 45.957 46.753 14.608z" clip-rule="evenodd" data-original="#fec165"/></g><g><path fill="#fea610" fill-rule="evenodd" d="m216.148 302.477-82.477 92.396-11.454 12.847 21.316 21.315 11.453-12.846 82.478-92.425z" clip-rule="evenodd" data-original="#fea610"/></g><g><path fill="#5865f2" fill-rule="evenodd" d="m44.941 402.405 64.657 64.657 33.935-38.027-60.565-60.565z" clip-rule="evenodd" data-original="#fb2a39"/></g><g><path fill="#3a48e5" fill-rule="evenodd" d="m122.217 407.72-10.232 11.453-18.161 20.378-5.542 6.196 21.316 21.315 33.935-38.027z" clip-rule="evenodd" data-original="#e41e2b"/></g><g><path fill="#5865f2" fill-rule="evenodd" d="m91.238 177.538 97 97.001 49.225 49.225 96.972 97.001c5.258-.711 10.601-2.132 19.213-5.229 11.027-3.951 21.628-8.896 31.746-14.75 4.235 3.467 70.995-50.419 85.462-87.849 9.322-16.285 17.024-33.707 22.879-51.925 24.584-76.452 5.798-151.739-42.546-200.197-48.458-48.345-123.745-67.132-200.197-42.547-71.081 22.85-130.793 73.838-154.524 140.087-3.07 8.611-4.519 13.926-5.23 19.183z" clip-rule="evenodd" data-original="#fb2a39"/></g><g><path fill="#3a48e5" fill-rule="evenodd" d="m346.514 361.905c-9.834 5.656-20.122 10.487-30.78 14.381-.341.114-.654.227-.966.341-8.64 3.098-13.983 4.519-19.241 5.229l38.908 38.908c5.258-.711 10.601-2.132 19.213-5.229 11.027-3.951 21.628-8.896 31.746-14.75 4.235 3.467 70.995-50.419 85.462-87.849 9.322-16.285 17.024-33.707 22.879-51.925 24.584-76.452 5.798-151.739-42.546-200.197-6.537-6.508-13.557-12.477-21.003-17.877 34.702 47.747 45.9 113.03 24.641 179.194-5.855 18.189-13.557 35.611-22.85 51.925-14.496 37.402-81.256 91.288-85.463 87.849z" clip-rule="evenodd" data-original="#e41e2b"/></g><g><path fill="#f8f2f0" fill-rule="evenodd" d="m440.758 432.9c35.128 0 63.748-28.62 63.748-63.748 0-35.1-28.62-63.748-63.748-63.748-35.1 0-63.748 28.648-63.748 63.748 0 35.129 28.648 63.748 63.748 63.748z" clip-rule="evenodd" data-original="#f8f2f0"/></g><g><path fill="#eee1dc" fill-rule="evenodd" d="m440.758 305.404c-3.183 0-6.338.227-9.407.682 12.306 4.945 22.708 13.614 29.814 24.613 6.452 9.976 10.175 21.827 10.175 34.588 0 32.002-23.589 58.49-54.341 63.038 7.361 2.956 15.376 4.576 23.76 4.576 35.213 0 63.748-28.535 63.748-63.748 0-24.328-13.614-45.445-33.65-56.217-8.954-4.803-19.214-7.532-30.099-7.532z" clip-rule="evenodd" data-original="#eee1dc"/></g><path fill="#000" d="m480.887 310.316c8.049-14.961 14.761-30.743 19.988-47.01 12.274-38.171 14.438-77.772 6.256-114.522-7.971-35.805-25.48-68.057-50.645-93.28-25.212-25.153-57.463-42.661-93.267-50.632-36.75-8.183-76.351-6.019-114.515 6.254-12.64 4.051-25.261 9.129-37.514 15.092-3.724 1.813-5.275 6.302-3.462 10.026 1.813 3.725 6.301 5.275 10.026 3.462 11.612-5.652 23.566-10.461 35.534-14.297 70.806-22.77 144.607-7.168 192.59 40.703 47.883 47.996 63.485 121.797 40.715 192.605-4.948 15.397-11.299 30.331-18.913 44.486-8.312-3.406-17.399-5.298-26.923-5.298-39.287 0-71.249 31.962-71.249 71.248 0 10.144 2.145 19.791 5.983 28.534-7.904 4.19-16.073 7.814-24.375 10.789-6.083 2.18-10.351 3.469-14.119 4.246l-48.076-48.076c-2.928-2.93-7.678-2.929-10.607 0s-2.929 7.678 0 10.607l38.762 38.762c-20.994-.012-39.423-2.383-57.284-4.685-25.555-3.295-51.846-6.681-85.697-3.284l63.665-71.349 15.174 15.176c1.464 1.465 3.384 2.197 5.304 2.197 1.919 0 3.839-.732 5.303-2.196 2.929-2.929 2.93-7.678.001-10.607l-20.47-20.473c-.192-.217-.395-.427-.617-.624-.013-.011-.026-.02-.039-.031l-48.647-48.655c-.164-.179-.334-.35-.51-.51l-93.974-93.99c.777-3.763 2.065-8.026 4.241-14.098 14.554-40.629 43.322-76.326 83.193-103.232 3.434-2.317 4.339-6.979 2.022-10.413-2.318-3.434-6.979-4.339-10.413-2.022-42.536 28.704-73.285 66.951-88.923 110.606-3.173 8.854-4.731 14.64-5.524 20.249-.059.3-.096.602-.119.906-.499 3.916-.652 7.822-.736 12.706-.422 24.18 2.217 44.648 4.769 64.442 3.879 30.083 7.54 58.542 1.041 99.054l-72.113 64.348c-10.359 9.255-16.29 22.287-16.701 36.697-.439 15.409 5.534 30.482 16.398 41.363 10.499 10.482 24.914 16.413 39.767 16.413.528 0 1.059-.008 1.588-.023 14.409-.411 27.441-6.342 36.7-16.704l64.345-72.112c40.512-6.499 68.971-2.838 99.055 1.041 18.376 2.37 37.334 4.814 59.302 4.814 1.694 0 3.406-.014 5.137-.044 4.892-.084 8.802-.238 12.723-.738.277-.022.553-.055.827-.108 5.629-.791 11.425-2.347 20.311-5.532 9.124-3.268 18.095-7.262 26.764-11.883 12.948 17.962 34.033 29.688 57.817 29.688 39.287 0 71.249-31.962 71.249-71.249.002-24.414-12.346-45.992-31.118-58.837zm-303.574-36.08-71.354 63.67c3.397-33.85.011-60.14-3.284-85.697-2.304-17.868-4.676-36.305-4.686-57.311zm-68.025 181.909-53.43-53.43 26.818-23.93 50.542 50.542zm-26.002 29.14c-6.48 7.253-15.692 11.408-25.938 11.701-11.292.318-22.36-4.056-30.32-12.003-7.955-7.968-12.334-19.022-12.011-30.329.292-10.246 4.447-19.457 11.697-25.934l17.933-16.002 54.637 54.638zm59.935-67.169-49.334-49.334 94.05-83.921 39.202 39.209zm297.537 7.284c-31.015 0-56.248-25.233-56.248-56.248s25.233-56.247 56.248-56.247 56.248 25.233 56.248 56.247c0 31.015-25.233 56.248-56.248 56.248z" data-original="#000000"/></g></g></svg>