<svg xmlns="http://www.w3.org/2000/svg" xmlns:svgjs="http://svgjs.com/svgjs" xmlns:xlink="http://www.w3.org/1999/xlink" style="enable-background:new 0 0 512 512" width="512" height="512" x="0" y="0" version="1.1" viewBox="0 0 60 60" xml:space="preserve"><g><g xmlns="http://www.w3.org/2000/svg" id="Page-1" fill="none" fill-rule="evenodd"><g id="020---Loading-Bot" fill-rule="nonzero" transform="translate(-1 -1)"><path id="Shape" fill="#5865f2" d="m60 33.636c0 19.773-12.984 26.364-29 26.364s-29-6.591-29-26.364c0-18.454 12.984-31.636 29-31.636s29 13.182 29 31.636z" data-original="#f5f5f5"/><path id="Shape" fill="#4751c2" d="m31 2c-.5033333 0-1.0033333.013-1.5.039 15.319.8 27.5 13.723 27.5 31.6 0 19.149-12.181 25.934-27.5 26.341.4966667.0133333.9966667.02 1.5.02 16.016 0 29-6.591 29-26.364 0-18.454-12.984-31.636-29-31.636z" data-original="#cfd8dc"/><rect id="Rectangle-path" width="50" height="28" x="6" y="23" fill="#ed4245" data-original="#607d8b" rx="14"/><path id="Shape" fill="#cc2629" d="m42 23h-3c7.7319864.0000001 13.9999998 6.2680136 13.9999998 14s-6.2680134 13.9999999-13.9999998 14h3c7.7319864-.0000001 13.9999998-6.2680136 13.9999998-14s-6.2680134-13.9999999-13.9999998-14z" data-original="#37474f"/><circle id="Oval" cx="8" cy="4" r="2" fill="#57f287" data-original="#02a9f4"/><circle id="Oval" cx="54" cy="4" r="2" fill="#57f287" data-original="#02a9f4"/><g fill="#000"><path id="Shape" fill="#000" d="m20 22c-8.2842712 0-15 6.7157288-15 15s6.7157288 15 15 15h22c8.2842712 0 15-6.7157288 15-15s-6.7157288-15-15-15zm35 15c-.008266 7.1762751-5.8237249 12.991734-13 13h-22c-7.1797017 0-13-5.8202983-13-13s5.8202983-13 13-13h22c7.1762751.008266 12.991734 5.8237249 13 13z" data-original="#000000"/><path id="Shape" fill="#000" d="m28 20h6c.5522847 0 1-.4477153 1-1s-.4477153-1-1-1h-6c-.5522847 0-1 .4477153-1 1s.4477153 1 1 1z" data-original="#000000"/><path id="Shape" fill="#000" d="m30 17h2c.5522847 0 1-.4477153 1-1s-.4477153-1-1-1h-2c-.5522847 0-1 .4477153-1 1s.4477153 1 1 1z" data-original="#000000"/><path id="Shape" fill="#000" d="m55 6.816c1.3775467-.4870363 2.2038721-1.89566623 1.9567957-3.33573306s-1.4956868-2.49269406-2.9567957-2.49269406-2.7097193 1.05262723-2.9567957 2.49269406.579249 2.84869676 1.9567957 3.33573306v4.2c-5.5020636-6.41349313-13.5500406-10.07751758-22-10.016-8.4493134-.0625167-16.4971824 3.59999533-22 10.012v-4.2c1.3775467-.4870363 2.2038721-1.89566623 1.9567957-3.33573306s-1.4956868-2.49269406-2.9567957-2.49269406-2.70971927 1.05262723-2.95679568 2.49269406.57924899 2.84869676 1.95679568 3.33573306v6.768c-4.00305402 5.9148643-6.09708956 12.9145271-6 20.056 0 17.902 10.374 27.364 30 27.364s30-9.462 30-27.364c.0962694-7.1401135-1.9977301-14.1382597-6-20.052zm-1-3.816c.5522847 0 1 .44771525 1 1s-.4477153 1-1 1-1-.44771525-1-1 .4477153-1 1-1zm-46 0c.55228475 0 1 .44771525 1 1s-.44771525 1-1 1-1-.44771525-1-1 .44771525-1 1-1zm23 56c-12.773 0-28-4.4-28-25.364 0-17.465 12.037-30.636 28-30.636s28 13.171 28 30.636c0 20.964-15.227 25.364-28 25.364z" data-original="#000000"/><path id="Shape" fill="#000" d="m17 27c-.5522847 0-1 .4477153-1 1v2c0 .5522847.4477153 1 1 1s1-.4477153 1-1v-2c0-.5522847-.4477153-1-1-1z" data-original="#000000"/><path id="Shape" fill="#000" d="m19.828 32.171c.2653486.0007185.5199469-.1047939.707-.293l1.414-1.414c.2599566-.2510745.3642126-.6228779.2726972-.9725073-.0915155-.3496295-.3645604-.6226744-.7141899-.7141899-.3496294-.0915154-.7214328.0127406-.9725073.2726972l-1.414 1.414c-.2859079.2859943-.3714219.7160366-.216678 1.0896546.1547439.3736179.5192821.6172591.923678.6173454z" data-original="#000000"/><path id="Shape" fill="#000" d="m23 33h-2c-.5522847 0-1 .4477153-1 1s.4477153 1 1 1h2c.5522847 0 1-.4477153 1-1s-.4477153-1-1-1z" data-original="#000000"/><path id="Shape" fill="#000" d="m20.535 36.122c-.3923789-.3789722-1.0160848-.3735524-1.4018186.0121814s-.3911536 1.0094397-.0121814 1.4018186l1.414 1.414c.3923789.3789722 1.0160848.3735524 1.4018186-.0121814s.3911536-1.0094397.0121814-1.4018186z" data-original="#000000"/><path id="Shape" fill="#000" d="m17 37c-.5522847 0-1 .4477153-1 1v2c0 .5522847.4477153 1 1 1s1-.4477153 1-1v-2c0-.5522847-.4477153-1-1-1z" data-original="#000000"/><path id="Shape" fill="#000" d="m13.465 36.122-1.414 1.414c-.2599566.2510745-.3642126.6228779-.2726972.9725073.0915155.3496295.3645604.6226744.7141899.7141899.3496294.0915154.7214328-.0127406.9725073-.2726972l1.414-1.414c.2599566-.2510745.3642126-.6228779.2726972-.9725073-.0915155-.3496295-.3645604-.6226744-.7141899-.7141899-.3496294-.0915154-.7214328.0127406-.9725073.2726972z" data-original="#000000"/><path id="Shape" fill="#000" d="m14 34c0-.5522847-.4477153-1-1-1h-2c-.5522847 0-1 .4477153-1 1s.4477153 1 1 1h2c.5522847 0 1-.4477153 1-1z" data-original="#000000"/><path id="Shape" fill="#000" d="m13.465 29.05c-.2510745-.2599566-.6228779-.3642126-.9725073-.2726972-.3496295.0915155-.6226744.3645604-.7141899.7141899-.0915154.3496294.0127406.7214328.2726972.9725073l1.414 1.414c.2510745.2599566.6228779.3642126.9725073.2726972.3496295-.0915155.6226744-.3645604.7141899-.7141899.0915154-.3496294-.0127406-.7214328-.2726972-.9725073z" data-original="#000000"/><path id="Shape" fill="#000" d="m45 31c.5522847 0 1-.4477153 1-1v-2c0-.5522847-.4477153-1-1-1s-1 .4477153-1 1v2c0 .5522847.4477153 1 1 1z" data-original="#000000"/><path id="Shape" fill="#000" d="m47.828 32.171c.2653486.0007185.5199469-.1047939.707-.293l1.414-1.414c.2599566-.2510745.3642126-.6228779.2726972-.9725073-.0915155-.3496295-.3645604-.6226744-.7141899-.7141899-.3496294-.0915154-.7214328.0127406-.9725073.2726972l-1.414 1.414c-.2859079.2859943-.3714219.7160366-.216678 1.0896546.1547439.3736179.5192821.6172591.923678.6173454z" data-original="#000000"/><path id="Shape" fill="#000" d="m48 34c0 .5522847.4477153 1 1 1h2c.5522847 0 1-.4477153 1-1s-.4477153-1-1-1h-2c-.5522847 0-1 .4477153-1 1z" data-original="#000000"/><path id="Shape" fill="#000" d="m48.535 38.95c.3923789.3789722 1.0160848.3735524 1.4018186-.0121814s.3911536-1.0094397.0121814-1.4018186l-1.414-1.414c-.3923789-.3789722-1.0160848-.3735524-1.4018186.0121814s-.3911536 1.0094397-.0121814 1.4018186z" data-original="#000000"/><path id="Shape" fill="#000" d="m45 41c.5522847 0 1-.4477153 1-1v-2c0-.5522847-.4477153-1-1-1s-1 .4477153-1 1v2c0 .5522847.4477153 1 1 1z" data-original="#000000"/><path id="Shape" fill="#000" d="m41.465 36.122-1.414 1.414c-.2599566.2510745-.3642126.6228779-.2726972.9725073.0915155.3496295.3645604.6226744.7141899.7141899.3496294.0915154.7214328-.0127406.9725073-.2726972l1.414-1.414c.3789722-.3923789.3735524-1.0160848-.0121814-1.4018186s-1.0094397-.3911536-1.4018186-.0121814z" data-original="#000000"/><path id="Shape" fill="#000" d="m42 34c0-.5522847-.4477153-1-1-1h-2c-.5522847 0-1 .4477153-1 1s.4477153 1 1 1h2c.5522847 0 1-.4477153 1-1z" data-original="#000000"/><path id="Shape" fill="#000" d="m40.051 29.05c-.3903819.3904999-.3903819 1.0235001 0 1.414l1.414 1.414c.3923789.3789722 1.0160848.3735524 1.4018186-.0121814s.3911536-1.0094397.0121814-1.4018186l-1.414-1.414c-.3904999-.3903819-1.0235001-.3903819-1.414 0z" data-original="#000000"/><path id="Shape" fill="#000" d="m35.3 42.29c-1.1854527 1.0614753-2.7093334 1.6674837-4.3 1.71-1.5905386-.0422399-3.1144039-.6478878-4.3-1.709-.3929089-.3784551-1.0166378-.3721707-1.4018415.0141242-.3852036.3862949-.3897235 1.0100391-.0101585 1.4018758 1.558264 1.4391272 3.5911874 2.2552149 5.712 2.293 2.1190794-.0390048 4.1500155-.8550091 5.707-2.293.3550623-.3942928.3403581-.9972533-.0335016-1.3737701s-.9767009-.3954908-1.3734984-.0432299z" data-original="#000000"/></g></g></g></g></svg>