<svg xmlns="http://www.w3.org/2000/svg" xmlns:svgjs="http://svgjs.com/svgjs" xmlns:xlink="http://www.w3.org/1999/xlink" style="enable-background:new 0 0 512 512" width="512" height="512" x="0" y="0" version="1.1" viewBox="0 0 512 512" xml:space="preserve"><g><path xmlns="http://www.w3.org/2000/svg" fill="#5865F2" d="M145.909,67.414V201.93c-19.838-0.472-36.141-7.258-49.203-16.404 c-29.134-20.38-42.155-52.495-42.155-52.495l59.252-42.557L145.909,67.414z" data-original="#ff9999"/><path xmlns="http://www.w3.org/2000/svg" fill="#546ec8" d="M113.803,90.474l32.106-23.06V201.93c-19.838-0.472-36.141-7.258-49.203-16.404 c4.407-11.124,9.306-20.45,13.372-27.357c-1.345-7.65-2.048-15.41-2.048-23.191C108.031,119.086,109.978,104.188,113.803,90.474z" data-original="#ff6e6e"/><path xmlns="http://www.w3.org/2000/svg" fill="#5865F2" d="M457.448,133.031c0,0-13.021,32.116-42.155,52.495c-13.061,9.146-29.365,15.932-49.203,16.404V67.414 l32.106,23.06L457.448,133.031z" data-original="#ff9999"/><path xmlns="http://www.w3.org/2000/svg" fill="#546ec8" d="M415.294,185.526c-13.061,9.146-29.365,15.932-49.203,16.404V67.414l32.106,23.06 c3.825,13.714,5.773,28.612,5.773,44.504c0,7.78-0.703,15.541-2.048,23.191C405.977,165.056,410.886,174.383,415.294,185.526z" data-original="#ff6e6e"/><path xmlns="http://www.w3.org/2000/svg" fill="#864a2d" d="M239.817,155.147v202.954c-35.639-2.219-56.873-11.385-69.502-21.123 c-16.816-12.971-18.392-26.956-18.392-26.956L135.8,335.162c-42.185-44.143-42.536-91.378-32.969-126.786 c6.254-23.181,16.766-41.292,22.568-50.146c0.783-1.205,1.486-2.229,2.078-3.082H239.817z" data-original="#864a2d"/><path xmlns="http://www.w3.org/2000/svg" fill="#6e3117" d="M239.817,155.147v202.954c-35.639-2.219-56.873-11.385-69.502-21.123 c8.192-5.953,16.986-11.023,26.273-15.159c4.628-2.068,9.337-3.875,14.115-5.431c-12.107-6.807-23.201-16.394-32.768-28.512 c-12.981-16.424-22.157-36.292-26.976-57.927c-4.016,1.446-8.333,2.239-12.83,2.239c-15.952,0-29.636-9.869-35.298-23.813 c6.254-23.181,16.766-41.292,22.568-50.146c3.986-1.416,8.272-2.189,12.73-2.189c3.273,0,6.445,0.422,9.477,1.195 c0.09-0.703,0.191-1.395,0.291-2.088L239.817,155.147L239.817,155.147z" data-original="#6e3117"/><path xmlns="http://www.w3.org/2000/svg" fill="#864a2d" d="M376.201,335.162l-16.123-25.138c0,0-1.576,13.975-18.382,26.935 c-12.72,9.808-34.164,19.034-70.255,21.183V155.147h113.083c0.592,0.853,1.295,1.877,2.078,3.082 c5.803,8.855,16.314,26.966,22.568,50.146C418.737,243.784,418.386,291.019,376.201,335.162z" data-original="#864a2d"/><path xmlns="http://www.w3.org/2000/svg" fill="#6e3117" d="M409.17,208.376c-5.662,13.945-19.346,23.813-35.298,23.813c-4.498,0-8.814-0.793-12.82-2.229 c-4.829,21.625-14.005,41.492-26.986,57.917c-9.567,12.117-20.661,21.705-32.768,28.512c4.779,1.556,9.487,3.363,14.115,5.421 c9.306,4.146,18.091,9.216,26.283,15.149c-12.72,9.808-34.164,19.034-70.255,21.183V155.147h93.536v1.958 c2.851-0.693,5.833-1.064,8.895-1.064c4.457,0,8.744,0.773,12.73,2.189C392.404,167.084,402.915,185.195,409.17,208.376z" data-original="#6e3117"/><path xmlns="http://www.w3.org/2000/svg" fill="#864a2d" d="M376.292,192.754c9.353-17.343,14.628-36.975,14.628-57.772C390.92,48.752,330.515,7.529,256,7.529 S121.08,48.752,121.08,134.982c0,20.797,5.276,40.43,14.628,57.772H376.292z" data-original="#864a2d"/><path xmlns="http://www.w3.org/2000/svg" fill="#ffeee1" d="M389.121,455.402v49.072H122.879v-49.072c0-25.329,7.068-49.002,19.356-69.151 c3.855-6.335,8.222-12.318,13.051-17.89c3.454-3.996,7.138-7.78,11.043-11.334c10.461-9.547,22.458-17.448,35.569-23.291 c16.525-7.359,34.836-11.455,54.102-11.455s37.577,4.096,54.102,11.455c15.019,6.686,28.562,16.073,40.027,27.538 c2.279,2.279,4.478,4.648,6.586,7.088c4.819,5.582,9.196,11.555,13.051,17.89c9.055,14.848,15.27,31.614,17.91,49.544 C388.629,442.191,389.121,448.736,389.121,455.402z" data-original="#ffeee1"/><path xmlns="http://www.w3.org/2000/svg" fill="#fecbaa" d="M369.765,386.252v118.223H142.235V386.252c3.855-6.335,8.222-12.318,13.051-17.89 c3.454-3.996,7.138-7.78,11.043-11.334c10.461-9.547,22.458-17.448,35.569-23.291v39.705c0,3.654,2.982,6.636,6.646,6.636h94.912 c3.664,0,6.646-2.982,6.646-6.636v-39.705c15.019,6.686,28.562,16.073,40.027,27.538c2.279,2.279,4.478,4.648,6.586,7.088 C361.533,373.944,365.91,379.917,369.765,386.252z" data-original="#fecbaa"/><path xmlns="http://www.w3.org/2000/svg" fill="#ffeb99" d="M356.714,368.362v136.113H155.286V368.362c6.305-7.289,13.382-13.884,21.113-19.647 c3.986-2.982,8.142-5.742,12.449-8.262v32.989c0,10.873,8.814,19.687,19.697,19.687h94.911c10.883,0,19.697-8.815,19.697-19.687 v-32.989c9.879,5.763,18.934,12.78,26.976,20.821C352.407,363.553,354.606,365.922,356.714,368.362z" data-original="#ffeb99"/><path xmlns="http://www.w3.org/2000/svg" fill="#ffb229" d="M356.714,421.701v82.774H155.286V368.362c6.305-7.289,13.382-13.884,21.113-19.647l0.241,0.311 c1.737,2.249,5.662,6.937,12.208,12.89v11.525c0,10.873,8.814,19.687,19.697,19.687h28.13 C270.467,409.131,310.704,418.709,356.714,421.701z" data-original="#ffb229"/><path xmlns="http://www.w3.org/2000/svg" fill="#5865F2" d="M389.121,455.402v49.072H122.879v-49.072c0-33.28,12.208-63.709,32.407-87.041 c3.454-3.996,7.138-7.78,11.043-11.334c10.18,13.121,68.458,78.357,221.346,78.768C388.629,442.191,389.121,448.736,389.121,455.402 z" data-original="#ff9999"/><rect xmlns="http://www.w3.org/2000/svg" width="60.848" height="66.771" x="225.573" y="276.241" fill="#ffeee1" data-original="#ffeee1"/><path xmlns="http://www.w3.org/2000/svg" fill="#fecbaa" d="M286.423,276.241v47.214c-9.748,3.444-19.968,5.227-30.423,5.227 c-10.455,0-20.675-1.784-30.423-5.227v-47.214H286.423z" data-original="#fecbaa"/><path xmlns="http://www.w3.org/2000/svg" fill="#ffeee1" d="M398.89,194.115c0,13.818-11.204,25.021-25.021,25.021c-3.639,0-7.083-0.779-10.199-2.174 c-8.733-3.905-14.812-12.67-14.812-22.848c0-10.783,6.827-19.978,16.39-23.494c2.686-0.984,5.587-1.527,8.621-1.527 C387.686,169.094,398.89,180.298,398.89,194.115z" data-original="#ffeee1"/><path xmlns="http://www.w3.org/2000/svg" fill="#fecbaa" d="M365.249,170.622v23.309c0,7.801-0.533,15.499-1.578,23.033c-8.733-3.905-14.812-12.67-14.812-22.848 C348.858,183.332,355.685,174.138,365.249,170.622z" data-original="#fecbaa"/><path xmlns="http://www.w3.org/2000/svg" fill="#ffeee1" d="M163.142,194.115c0,10.179-6.079,18.943-14.812,22.848c-3.116,1.394-6.561,2.174-10.199,2.174 c-13.817,0-25.021-11.204-25.021-25.021c0-13.817,11.204-25.021,25.021-25.021c3.034,0,5.935,0.543,8.621,1.527 C156.315,174.138,163.142,183.332,163.142,194.115z" data-original="#ffeee1"/><path xmlns="http://www.w3.org/2000/svg" fill="#fecbaa" d="M163.142,194.115c0,10.179-6.079,18.943-14.812,22.848c-1.045-7.534-1.578-15.232-1.578-23.033 v-23.309C156.315,174.138,163.142,183.332,163.142,194.115z" data-original="#fecbaa"/><path xmlns="http://www.w3.org/2000/svg" fill="#ffeee1" d="M351.925,144.265v49.674c0,67.052-42.958,121.415-95.925,121.415 c-52.977,0-95.915-54.363-95.915-121.415V166.13c0-29.967,22.829-54.594,52.054-57.435c1.857-0.191,3.755-0.281,5.662-0.281h98.275 C335.873,108.414,351.925,124.467,351.925,144.265z" data-original="#ffeee1"/><path xmlns="http://www.w3.org/2000/svg" fill="#fecbaa" d="M351.925,144.265v2.831c-9.788,5.732-21.133,9.005-33.12,9.005h-26.182 c-2.008,8.383-9.557,14.647-18.533,14.647c-1.717,0-3.433-0.241-5.09-0.703c-2.681-0.743-5.23-1.777-7.63-3.082 c-3.172,2.369-7.108,3.785-11.364,3.785c-1.717,0-3.433-0.241-5.09-0.703c-20.661-5.742-32.096-27.357-32.778-61.35 c1.857-0.191,3.755-0.281,5.662-0.281h98.275C335.873,108.414,351.925,124.467,351.925,144.265z" data-original="#fecbaa"/><path xmlns="http://www.w3.org/2000/svg" fill="#864a2d" d="M225.356,97.381c-0.971,20.13,0.845,53.914,23.051,60.091c3.819,1.062,7.595-1.858,7.595-5.823v-8.9 c3.531,7.084,8.774,12.575,16.492,14.723c3.819,1.062,7.595-1.858,7.595-5.823v-8.605h38.716c26.728,0,48.797-19.884,52.258-45.664 L225.356,97.381L225.356,97.381z" data-original="#864a2d"/><path xmlns="http://www.w3.org/2000/svg" fill="#ffeb99" d="M192.197,428.263l5.052,10.235l11.295,1.641c4.102,0.596,5.739,5.637,2.772,8.53l-8.173,7.967 l1.93,11.249c0.701,4.085-3.587,7.201-7.256,5.272l-10.103-5.311l-10.103,5.311c-3.669,1.929-7.957-1.187-7.256-5.272l1.93-11.249 l-8.173-7.967c-2.969-2.893-1.33-7.934,2.772-8.53l11.295-1.641l5.052-10.235C185.062,424.546,190.363,424.546,192.197,428.263z" data-original="#ffeb99"/><path xmlns="http://www.w3.org/2000/svg" fill="#000" d="M461.842,126.916l-76.285-54.789c-5.882-12.659-13.73-23.926-23.455-33.55c-2.957-2.923-7.724-2.901-10.648,0.056 c-2.925,2.955-2.9,7.722,0.055,10.648c21.155,20.936,31.881,49.771,31.881,85.701c0,9.194-1.117,18.314-3.301,27.186 c-2.013-0.392-4.09-0.602-6.216-0.602c-5.091,0-10.006,1.196-14.424,3.381v-20.674c0-2.93-0.295-5.842-0.874-8.691 c2.706-2.386,5.227-5.023,7.515-7.916c2.579-3.262,2.026-7.997-1.236-10.575c-3.262-2.578-7.996-2.026-10.576,1.236 c-8.638,10.924-21.566,17.189-35.472,17.189h-38.715c-4.158,0-7.529,3.37-7.529,7.529v6.495c-4.049-1.705-7.273-5.044-9.818-10.149 c-1.558-3.126-5.062-4.769-8.464-3.971c-3.401,0.801-5.805,3.835-5.805,7.33v6.786c-15.955-6.787-16.252-38.205-15.596-51.792 c0.201-4.154-3.005-7.683-7.158-7.884c-4.156-0.198-7.684,3.004-7.884,7.158c-0.063,1.311-0.109,2.601-0.144,3.879 c-35.533,0.057-64.478,28.667-65.111,64.065c-4.427-2.196-9.356-3.397-14.454-3.397c-2.126,0-4.202,0.211-6.216,0.602 c-2.184-8.871-3.301-17.991-3.301-27.186c0-38.265,12.763-69.512,36.908-90.364C187.912,25.281,219.2,15.059,256,15.059 c25.842,0,49.754,5.274,69.151,15.251c3.699,1.903,8.238,0.446,10.14-3.252c1.902-3.698,0.446-8.237-3.252-10.141 C310.52,5.85,284.227,0,256,0c-40.465,0-75.157,11.487-100.324,33.221c-12.461,10.761-22.256,23.857-29.259,38.924l-76.259,54.77 c-2.823,2.028-3.891,5.723-2.586,8.944c0.704,1.735,16.198,39.125,51.212,59.987c-13.12,38.504-17.239,93.441,31.569,144.513 c1.595,1.67,3.867,2.503,6.167,2.293c2.298-0.223,4.368-1.486,5.614-3.429l8.292-12.926c3.806,6.112,9.675,12.788,18.306,18.824 c-2.375,1.885-4.675,3.858-6.92,5.888c-0.032,0.024-0.066,0.043-0.098,0.068c-0.291,0.226-0.553,0.474-0.801,0.731 c-24.775,22.784-41.24,54.23-44.819,89.062c-0.425,4.136,2.584,7.835,6.72,8.26c0.262,0.026,0.522,0.04,0.779,0.04 c3.812,0,7.083-2.886,7.481-6.76c2.933-28.552,15.58-54.543,34.749-74.354c8.905,9.725,25.98,25.275,54.216,39.817 c37.635,19.381,82.897,30.885,134.876,34.338c0.577,0.142,1.178,0.225,1.799,0.225c0.283,0,0.562-0.019,0.836-0.049 c7.673,0.468,15.494,0.759,23.454,0.877c0.384,4.003,0.587,8.053,0.587,12.142v49.065c0,4.159,3.371,7.529,7.529,7.529 s7.529-3.37,7.529-7.529v-49.065c0-44.137-20.412-84.308-53.301-110.342c9.298-6.509,14.92-13.432,18.213-18.782l8.302,12.942 c1.247,1.944,3.316,3.207,5.614,3.429c2.299,0.213,4.572-0.623,6.166-2.293c14.535-15.208,25.274-31.858,31.92-49.487 c1.467-3.891-0.499-8.234-4.39-9.701c-3.889-1.472-8.235,0.497-9.702,4.389c-4.91,13.025-12.382,25.51-22.266,37.22l-10.793-16.824 c-1.742-2.716-5.01-4.125-8.141-3.349c-3.116,0.774-5.386,3.331-5.674,6.525c-0.184,1.169-2.763,15.062-22.568,26.595 c-11.027-6.812-23.129-12.172-36.08-15.787v-5.937c13.294-6.507,25.459-16.475,35.783-29.546 c13.805-17.476,23.14-39.05,27.282-62.505c5.008,3.035,10.811,4.708,16.858,4.708c11.956,0,22.421-6.484,28.079-16.117 c3.928,14.608,5.443,28.966,4.499,42.849c-0.282,4.149,2.852,7.74,7.001,8.022c0.174,0.012,0.346,0.018,0.519,0.018 c3.925,0,7.234-3.044,7.504-7.018c1.291-18.991-1.5-38.663-8.275-58.56c35.025-20.86,50.525-58.261,51.228-59.996 C465.733,132.639,464.665,128.943,461.842,126.916z M152.551,184.224v9.704c0,3.249,0.097,6.48,0.287,9.688 c-0.067,0.09-0.14,0.176-0.204,0.271c-3.264,4.832-8.688,7.717-14.507,7.717c-9.644,0-17.489-7.846-17.489-17.49 c0-9.643,7.846-17.489,17.489-17.489C143.899,176.624,149.278,179.463,152.551,184.224z M64.039,135.487l53.831-38.662 c-2.505,10.406-3.927,21.486-4.244,33.158l-15.783,5.273c-3.944,1.318-6.074,5.584-4.756,9.527c1.053,3.152,3.99,5.145,7.14,5.145 c0.791,0,1.595-0.125,2.386-0.391l11.401-3.809c0.644,7.72,1.981,15.354,3.999,22.822c-4.83,3.809-8.557,8.951-10.623,14.87 C83.496,169.508,69.406,145.957,64.039,135.487z M159.4,309.134c-0.287-3.194-2.558-5.752-5.674-6.525 c-3.132-0.783-6.4,0.631-8.141,3.348l-10.793,16.825c-33.191-39.327-33.238-80.541-24.744-112.236 c5.658,9.633,16.123,16.117,28.079,16.117c6.04,0,11.847-1.673,16.857-4.706c4.141,23.455,13.477,45.027,27.282,62.503 c10.324,13.07,22.488,23.038,35.783,29.546v5.958c-11.59,3.242-22.542,7.912-32.67,13.811c-0.272,0.142-0.536,0.297-0.788,0.47 c-0.855,0.506-1.717,1.004-2.561,1.527C162.165,324.228,159.584,310.305,159.4,309.134z M176.917,357.875 c1.442-1.173,2.905-2.319,4.399-3.428v7.986C179.639,360.779,178.176,359.251,176.917,357.875z M364.244,427.658v-36.057 c6.612,11.232,11.504,23.544,14.377,36.552C373.725,428.055,368.934,427.888,364.244,427.658z M349.185,371.1v55.583 c-46.855-3.826-82.65-14.148-109.433-26.019h63.706c15.013,0,27.226-12.214,27.226-27.226v-19.1 C337.419,359.313,343.611,364.933,349.185,371.1z M286.422,350.539c4.158,0,7.529-3.37,7.529-7.529v-7.361 c7.593,2.394,14.836,5.469,21.672,9.145v28.643c0,6.709-5.458,12.167-12.167,12.167h-92.283 c-5.565-3.472-10.488-6.905-14.797-10.187v-30.55c6.853-3.707,14.098-6.796,21.672-9.194v7.337c0,4.159,3.371,7.529,7.529,7.529 c4.158,0,7.529-3.37,7.529-7.529v-23.258c7.422,2.07,15.087,3.135,22.893,3.135s15.471-1.065,22.893-3.135v23.258 C278.893,347.169,282.264,350.539,286.422,350.539z M256,307.828c-48.739,0-88.39-51.096-88.39-113.9v-27.787 c0-27.673,22.514-50.187,50.187-50.187h0.194c1.946,27.058,11.754,44.143,28.4,48.773c1.205,0.335,2.426,0.5,3.638,0.5 c2.903,0,5.743-0.946,8.136-2.765c0.941-0.714,1.77-1.53,2.478-2.429c2.956,2.124,6.237,3.693,9.834,4.693 c4.09,1.139,8.384,0.313,11.775-2.265c3.41-2.592,5.367-6.533,5.367-10.812v-1.075h31.185c9.008,0,17.701-1.987,25.586-5.683v49.037 C344.39,256.733,304.738,307.828,256,307.828z M373.873,211.603c-5.859,0-11.302-2.917-14.563-7.806 c-0.046-0.069-0.099-0.131-0.147-0.198c0.189-3.203,0.285-6.428,0.285-9.672v-9.694c3.274-4.768,8.645-7.611,14.424-7.611 c9.644,0,17.489,7.846,17.489,17.489C391.363,203.758,383.517,211.603,373.873,211.603z M404.609,183.421 c-2.065-5.919-5.793-11.061-10.623-14.87c2.018-7.468,3.355-15.102,3.999-22.822l11.401,3.809c0.792,0.265,1.595,0.391,2.386,0.391 c3.15,0,6.087-1.993,7.14-5.145c1.318-3.944-0.811-8.21-4.756-9.527l-15.784-5.274c-0.318-11.657-1.748-22.749-4.266-33.175 l53.854,38.678C442.59,145.963,428.5,169.511,404.609,183.421z" data-original="#000000"/><path xmlns="http://www.w3.org/2000/svg" fill="#000" d="M122.879,468.422c-4.158,0-7.529,3.37-7.529,7.529v28.519c0,4.159,3.371,7.529,7.529,7.529c4.158,0,7.529-3.37,7.529-7.529 v-28.519C130.408,471.793,127.037,468.422,122.879,468.422z" data-original="#000000"/><path xmlns="http://www.w3.org/2000/svg" fill="#000" d="M278.207,239.179c-4.102-0.676-7.976,2.109-8.649,6.212c-1.454,8.866-7.156,15.301-13.558,15.301 s-12.104-6.435-13.558-15.301c-0.673-4.104-4.541-6.881-8.649-6.212c-4.103,0.674-6.884,4.545-6.212,8.649 c2.653,16.179,14.605,27.922,28.419,27.922c13.814,0,25.766-11.743,28.419-27.922C285.092,243.725,282.311,239.853,278.207,239.179z" data-original="#000000"/><path xmlns="http://www.w3.org/2000/svg" fill="#000" d="M290.58,100.441v8.843c0,4.159,3.371,7.529,7.529,7.529s7.529-3.37,7.529-7.529v-8.843c0-4.159-3.371-7.529-7.529-7.529 S290.58,96.282,290.58,100.441z" data-original="#000000"/><path xmlns="http://www.w3.org/2000/svg" fill="#000" d="M318.741,92.912c-4.158,0-7.529,3.37-7.529,7.529v8.843c0,4.159,3.371,7.529,7.529,7.529s7.529-3.37,7.529-7.529v-8.843 C326.27,96.282,322.899,92.912,318.741,92.912z" data-original="#000000"/><path xmlns="http://www.w3.org/2000/svg" fill="#000" d="M209.627,432.688l-7.378-1.072l-3.299-6.684c-2.126-4.309-6.432-6.985-11.237-6.985c-4.805,0-9.111,2.676-11.237,6.985 l-3.299,6.684l-7.378,1.072c-4.755,0.691-8.631,3.958-10.116,8.528c-1.485,4.57-0.27,9.491,3.171,12.845l5.338,5.203l-1.26,7.349 c-0.812,4.736,1.098,9.431,4.985,12.255c3.887,2.823,8.943,3.19,13.197,0.954l6.599-3.469l6.6,3.469 c1.849,0.973,3.85,1.453,5.842,1.452c2.587,0,5.158-0.811,7.354-2.405c3.886-2.824,5.796-7.519,4.985-12.255l-1.26-7.349 l5.338-5.203c3.44-3.354,4.656-8.275,3.171-12.845C218.257,436.646,214.381,433.379,209.627,432.688z M197.887,451.244 c-1.775,1.731-2.585,4.223-2.165,6.665l1.063,6.201l-5.568-2.927c-2.194-1.153-4.814-1.153-7.006,0l-5.568,2.927l1.063-6.201 c0.419-2.443-0.391-4.934-2.165-6.665l-4.505-4.39l6.225-0.905c2.453-0.355,4.572-1.896,5.669-4.119l2.784-5.641l2.784,5.641 c1.097,2.223,3.217,3.763,5.669,4.119l6.225,0.905L197.887,451.244z" data-original="#000000"/><path xmlns="http://www.w3.org/2000/svg" fill="#000" d="M303.957,182.455c-9.186,0-17.443,4.328-23.249,12.186c-2.472,3.344-1.764,8.059,1.581,10.53 c3.345,2.47,8.059,1.764,10.53-1.581c2.979-4.032,6.726-6.076,11.139-6.076c4.258,0,7.669,1.885,9.608,5.31 c1.385,2.448,3.934,3.822,6.56,3.822c1.256,0,2.531-0.314,3.702-0.978c3.619-2.049,4.892-6.643,2.844-10.262 C322.08,187.296,313.588,182.455,303.957,182.455z" data-original="#000000"/><path xmlns="http://www.w3.org/2000/svg" fill="#000" d="M231.292,194.641c-5.807-7.858-14.063-12.186-23.249-12.186c-9.632,0-18.123,4.841-22.713,12.951 c-2.049,3.618-0.775,8.213,2.844,10.262c1.172,0.663,2.446,0.978,3.702,0.978c2.624,0,5.174-1.374,6.56-3.822 c1.939-3.424,5.35-5.31,9.608-5.31c4.412,0,8.159,2.044,11.139,6.076c2.472,3.344,7.186,4.051,10.53,1.581 C233.056,202.699,233.764,197.985,231.292,194.641z" data-original="#000000"/></g></svg>