<svg xmlns="http://www.w3.org/2000/svg" xmlns:svgjs="http://svgjs.com/svgjs" xmlns:xlink="http://www.w3.org/1999/xlink" style="enable-background:new 0 0 512 512" width="512" height="512" x="0" y="0" version="1.1" viewBox="0 0 512 512" xml:space="preserve"><g><g xmlns="http://www.w3.org/2000/svg"><g><g><g><path fill="#ffc250" d="m117.046 340.159h49.773v59.818h-49.773z" data-original="#ffc250" transform="matrix(.707 -.707 .707 .707 -220.106 208.752)"/></g></g><g><g><path fill="#5865F2" d="m151.58 290.906h54.286v84.742h-54.286z" data-original="#634086" transform="matrix(.707 -.707 .707 .707 -183.316 223.991)"/></g></g><g><g><path fill="#5865F2" d="m67.422 504.5h-59.922v-59.922l86.874-86.874 59.922 59.922z" data-original="#634086"/></g></g><g><circle cx="322.671" cy="189.329" r="181.829" fill="#5d81ff" data-original="#845caf"/></g><g><path fill="#476df4" d="m438.824 49.438c26.186 31.502 41.938 71.987 41.938 116.153 0 100.421-81.408 181.829-181.829 181.829-44.166 0-84.65-15.752-116.153-41.938 33.353 40.125 83.636 65.676 139.892 65.676 100.422 0 181.829-81.408 181.829-181.829-.001-56.255-25.552-106.538-65.677-139.891z" data-original="#734d9d"/></g><g><circle cx="322.671" cy="189.329" r="137.382" fill="#80b4fb" data-original="#80b4fb"/></g></g><g><g><g><path fill="#407093" d="m357.305 133.049c0-19.128-15.506-34.634-34.634-34.634s-34.634 15.506-34.634 34.634v8.659h69.268z" data-original="#407093"/></g><g><path fill="#df0000" d="m351.059 272.636 19.418-19.418c4.871-4.871 7.608-11.478 7.608-18.368v-72.362c0-11.477-9.304-20.78-20.78-20.78h-69.268c-11.477 0-20.78 9.304-20.78 20.78v72.362c0 6.889 2.737 13.496 7.608 18.368l19.418 19.418c4.871 4.871 11.478 7.608 18.368 7.608h20.042c6.888 0 13.495-2.737 18.366-7.608z" data-original="#e278b1"/></g><g><path fill="#b91b1b" d="m370.477 253.218c4.871-4.871 7.608-11.478 7.608-18.368v-49.783c-14.986 26.114-42.884 61.717-90.13 81.242l6.327 6.327c4.871 4.871 11.478 7.608 18.368 7.608h20.042c6.889 0 13.496-2.737 18.368-7.608z" data-original="#dd5ca2"/></g></g></g><g><g><path fill="#ffe07d" d="m378.085 197.424v101.627l-55.415 27.651-55.415-27.651v-101.627l-37.186 31.325c-6.835 5.758-10.781 14.24-10.781 23.177v64.651c0 13.908 7.152 26.838 18.934 34.229l45.717 28.68v125.014h77.461v-125.014l45.717-28.68c11.781-7.391 18.934-20.321 18.934-34.229v-64.651c0-8.937-3.945-17.419-10.781-23.177z" data-original="#ffe07d"/></g><g><path fill="#ffd064" d="m403.828 219.11v97.467c0 6.299-3.185 12.057-8.52 15.403l-46.664 29.275c-5.891 3.695-9.467 10.16-9.467 17.114v126.131h22.224v-125.014l45.717-28.68c11.781-7.391 18.933-20.321 18.933-34.229v-64.651c0-8.937-3.945-17.419-10.781-23.177z" data-original="#ffd064"/></g></g><g><path fill="#000" d="m43.287 398.186-41.09 41.09c-2.929 2.93-2.929 7.678 0 10.607 1.464 1.464 3.384 2.196 5.303 2.196s3.839-.732 5.303-2.196l41.09-41.09c2.929-2.93 2.929-7.678 0-10.607-2.929-2.927-7.678-2.927-10.606 0z" data-original="#000000"/><path fill="#000" d="m322.67 0c-104.397 0-189.33 84.933-189.33 189.33 0 33.539 8.885 65.761 24.934 93.867l-34.009 34.009c-2.929 2.93-2.929 7.678 0 10.607l3.508 3.508-24.587 24.587-3.512-3.512c-2.929-2.928-7.678-2.928-10.606 0l-21.04 21.04c-2.929 2.93-2.929 7.678 0 10.607 2.929 2.928 7.678 2.928 10.606 0l15.737-15.737 49.323 49.323-81.576 81.566c-2.929 2.929-2.929 7.678 0 10.606 1.465 1.465 3.384 2.197 5.304 2.197s3.839-.732 5.303-2.196l86.88-86.87c1.406-1.406 2.197-3.314 2.197-5.304s-.79-3.896-2.197-5.304l-3.512-3.512 24.587-24.587 3.509 3.509c1.464 1.464 3.384 2.196 5.303 2.196s3.839-.732 5.303-2.196l33.994-33.994c.867.496 1.728 1 2.605 1.484.922.673 1.865 1.324 2.843 1.938l42.206 26.476v30.182c0 4.143 3.357 7.5 7.5 7.5s7.5-3.357 7.5-7.5v-34.33c0-2.581-1.327-4.981-3.515-6.354l-45.72-28.681c-9.653-6.055-15.416-16.476-15.416-27.876v-64.65c0-6.744 2.956-13.103 8.112-17.443l24.854-20.938v21.302c0 .054.004.107.004.16v64.039c0 2.843 1.607 5.441 4.151 6.711l55.41 27.65c2.107 1.053 4.588 1.053 6.697 0l55.42-27.65c2.544-1.27 4.151-3.868 4.151-6.711v-85.502l24.85 20.939c5.154 4.34 8.11 10.697 8.11 17.442v64.65c0 11.4-5.763 21.821-15.415 27.876l-45.72 28.681c-2.187 1.372-3.515 3.772-3.515 6.354v125.011c0 4.143 3.357 7.5 7.5 7.5s7.5-3.357 7.5-7.5v-120.861l42.205-26.476c.977-.613 1.92-1.264 2.842-1.936 27.083-14.928 50.345-36.502 67.291-62.434 2.266-3.467 1.292-8.115-2.176-10.381-3.467-2.266-8.115-1.293-10.381 2.176-9.815 15.018-21.937 28.441-35.779 39.763.412-2.544.647-5.136.647-7.771v-34.101c21.944-26.093 34-59.054 34-93.149 0-79.887-64.993-144.88-144.88-144.88s-144.88 64.993-144.88 144.88c0 34.095 12.056 67.057 34 93.149v34.101c0 2.649.237 5.255.653 7.811-40.144-32.781-64.103-82.156-64.103-135.061 0-96.126 78.204-174.33 174.33-174.33s174.33 78.204 174.33 174.33c0 22.695-4.292 44.751-12.757 65.553-1.561 3.837.284 8.213 4.12 9.774 3.839 1.56 8.213-.284 9.774-4.12 9.199-22.606 13.863-46.564 13.863-71.207 0-104.397-84.934-189.33-189.33-189.33zm-177.186 398.207-31.691-31.691 24.587-24.587 31.691 31.691zm225.101-163.356c0 4.936-1.922 9.575-5.411 13.063l-19.417 19.418c-3.491 3.49-8.131 5.412-13.065 5.412h-2.521v-123.537h27.134c7.323 0 13.28 5.958 13.28 13.281zm-20.78-100.644h-54.269v-1.158c0-14.962 12.173-27.134 27.135-27.134s27.134 12.172 27.134 27.134zm-61.769 15h27.135v123.537h-2.521c-4.935 0-9.574-1.922-13.063-5.412l-19.418-19.418c-3.49-3.489-5.412-8.129-5.412-13.063v-72.362c-.001-7.324 5.956-13.282 13.279-13.282zm34.634 169.111-47.91-23.908v-30.689l14.219 14.219c6.323 6.322 14.729 9.805 23.671 9.805h20.042c8.94 0 17.347-3.482 23.671-9.805h.001l14.227-14.227v30.697zm-129.88-128.988c0-71.616 58.264-129.88 129.88-129.88s129.88 58.264 129.88 129.88c0 23.96-6.649 47.295-19 67.532v-4.932c0-11.181-4.902-21.72-13.447-28.915l-24.439-20.594h6.954c4.143 0 7.5-3.357 7.5-7.5s-3.357-7.5-7.5-7.5h-17.033v-17.433h17.033c4.143 0 7.5-3.357 7.5-7.5s-3.357-7.5-7.5-7.5h-18.05c-2.637-9.575-10.189-17.127-19.763-19.764v-2.176c0-23.232-18.901-42.134-42.134-42.134s-42.135 18.901-42.135 42.134v2.176c-9.574 2.637-17.126 10.189-19.763 19.764h-18.049c-4.142 0-7.5 3.357-7.5 7.5s3.358 7.5 7.5 7.5h17.032v17.433h-17.032c-4.142 0-7.5 3.357-7.5 7.5s3.358 7.5 7.5 7.5h6.958l-24.443 20.592c-8.547 7.197-13.449 17.737-13.449 28.917v4.932c-12.351-20.237-19-43.572-19-67.532zm22.942 156.253-26.242 26.243-49.315-49.315 26.252-26.251c13.092 19.132 29.733 35.918 49.305 49.323z" data-original="#000000"/><path fill="#000" d="m283.94 441.32c-4.143 0-7.5 3.357-7.5 7.5v55.68c0 4.143 3.357 7.5 7.5 7.5s7.5-3.357 7.5-7.5v-55.68c0-4.142-3.357-7.5-7.5-7.5z" data-original="#000000"/><path fill="#000" d="m322.671 405.236c-4.143 0-7.5 3.357-7.5 7.5v91.764c0 4.143 3.357 7.5 7.5 7.5s7.5-3.357 7.5-7.5v-91.764c0-4.142-3.357-7.5-7.5-7.5z" data-original="#000000"/></g></g></g></svg>