<svg xmlns="http://www.w3.org/2000/svg" xmlns:svgjs="http://svgjs.com/svgjs" xmlns:xlink="http://www.w3.org/1999/xlink" style="enable-background:new 0 0 512 512" width="512" height="512" x="0" y="0" version="1.1" viewBox="0 0 128 128" xml:space="preserve"><g><g xmlns="http://www.w3.org/2000/svg"><path fill="red" d="m96.006 98.845-21.788-40.787v-16.334h1.687a4.491 4.491 0 0 0 4.531-3.936 4.365 4.365 0 0 0 -4.344-4.794h-24a4.491 4.491 0 0 0 -4.531 3.936 4.366 4.366 0 0 0 4.344 4.794h1.874v16.334l-21.779 40.785a6.9 6.9 0 0 0 6.08 10.157h51.841a6.9 6.9 0 0 0 6.085-10.155z" data-original="#f5c464"/><path fill="#5865F2" d="m38.08 109h51.841a6.9 6.9 0 0 0 6.085-10.155l-20.821-38.977a76.923 76.923 0 0 1 -24.843 4.632l-18.342 34.343a6.9 6.9 0 0 0 6.08 10.157z" data-original="#009d8f"/><path fill="#f1b152" d="m74.219 43.474h-9.386a1.75 1.75 0 0 1 0-3.5h9.386a1.75 1.75 0 0 1 0 3.5z" data-original="#f1b152"/><path fill="#f1b152" d="m56.4 43.474h-2.619a1.75 1.75 0 0 1 0-3.5h2.619a1.75 1.75 0 0 1 0 3.5z" data-original="#f1b152"/><circle cx="54.697" cy="23.709" r="3.353" fill="#5865F2" data-original="#009d8f"/><g fill="#f9eddc"><circle cx="49.881" cy="95.642" r="3.729" fill="#7236da" data-original="#f9eddc"/><circle cx="70.167" cy="74.498" r="2.983" fill="#7236da" data-original="#f9eddc"/><circle cx="78.5" cy="99.725" r="2.596" fill="#7236da" data-original="#f9eddc"/><circle cx="64" cy="52.701" r="2.596" fill="#7236da" data-original="#f9eddc"/><circle cx="55.983" cy="80.212" r="2.056" fill="#7236da" data-original="#f9eddc"/><circle cx="68.331" cy="91.086" r="1.836" fill="#7236da" data-original="#f9eddc"/></g><circle cx="71.271" cy="13.919" r="6.438" fill="#5865F2" data-original="#009d8f"/><path fill="#1e2a54" d="m49.881 100.872a5.23 5.23 0 1 1 5.229-5.23 5.236 5.236 0 0 1 -5.229 5.23zm0-7.459a2.23 2.23 0 1 0 2.229 2.229 2.232 2.232 0 0 0 -2.229-2.229z" data-original="#1e2a54"/><path fill="#1e2a54" d="m70.167 78.98a4.483 4.483 0 1 1 4.482-4.48 4.488 4.488 0 0 1 -4.482 4.48zm0-5.965a1.483 1.483 0 1 0 1.482 1.485 1.484 1.484 0 0 0 -1.482-1.485z" data-original="#1e2a54"/><path fill="#1e2a54" d="m78.5 103.821a4.1 4.1 0 1 1 4.1-4.1 4.1 4.1 0 0 1 -4.1 4.1zm0-5.193a1.1 1.1 0 1 0 1.1 1.1 1.1 1.1 0 0 0 -1.1-1.1z" data-original="#1e2a54"/><path fill="#1e2a54" d="m64 56.8a4.1 4.1 0 1 1 4.1-4.1 4.1 4.1 0 0 1 -4.1 4.1zm0-5.2a1.1 1.1 0 1 0 1.1 1.1 1.1 1.1 0 0 0 -1.1-1.1z" data-original="#1e2a54"/><g fill="#1e2a54"><path fill="#1e2a54" d="m81.749 75.869 1.3 2.436a1.749 1.749 0 1 0 3.086-1.649l-1.3-2.436a1.749 1.749 0 1 0 -3.086 1.649z" data-original="#1e2a54"/><path fill="#1e2a54" d="m97.551 98.02-7.078-13.249a1.751 1.751 0 0 0 -3.088 1.65l7.078 13.248a5.151 5.151 0 0 1 -4.541 7.581h-51.841a5.152 5.152 0 0 1 -4.541-7.581l17.868-33.45a77.549 77.549 0 0 0 22.926-4.23l3.119 5.84a1.751 1.751 0 0 0 3.088-1.65l-4.572-8.559v-14.147a6.264 6.264 0 0 0 6.21-5.519 6.117 6.117 0 0 0 -6.087-6.71h-24a6.266 6.266 0 0 0 -6.275 5.52 6.117 6.117 0 0 0 6.087 6.71h.123v14.146l-21.58 40.4a8.652 8.652 0 0 0 7.629 12.73h51.841a8.652 8.652 0 0 0 7.629-12.73zm-45.643-58.046a2.617 2.617 0 0 1 -2.6-2.877 2.739 2.739 0 0 1 2.79-2.353h24a2.617 2.617 0 0 1 2.6 2.877 2.74 2.74 0 0 1 -2.79 2.353h-11.075a1.75 1.75 0 0 0 0 3.5h7.636v14.584a1.756 1.756 0 0 0 .194.794 75.26 75.26 0 0 1 -19.354 3.805l2.016-3.774a1.757 1.757 0 0 0 .206-.825v-14.584h.869a1.75 1.75 0 0 0 0-3.5z" data-original="#1e2a54"/><path fill="#1e2a54" d="m54.7 28.813a5.1 5.1 0 1 0 -5.1-5.1 5.11 5.11 0 0 0 5.1 5.1zm0-6.707a1.6 1.6 0 1 1 -1.6 1.6 1.606 1.606 0 0 1 1.6-1.6z" data-original="#1e2a54"/><circle cx="55.983" cy="80.212" r="2.056" fill="#1e2a54" data-original="#1e2a54"/><circle cx="68.331" cy="91.086" r="1.836" fill="#1e2a54" data-original="#1e2a54"/><path fill="#1e2a54" d="m71.271 22.106a8.188 8.188 0 1 0 -8.188-8.187 8.2 8.2 0 0 0 8.188 8.187zm0-12.875a4.688 4.688 0 1 1 -4.688 4.688 4.693 4.693 0 0 1 4.688-4.688z" data-original="#1e2a54"/></g></g></g></svg>