<svg xmlns="http://www.w3.org/2000/svg" xmlns:svgjs="http://svgjs.com/svgjs" xmlns:xlink="http://www.w3.org/1999/xlink" style="enable-background:new 0 0 512 512" width="512" height="512" x="0" y="0" version="1.1" viewBox="0 0 512.141 512.141" xml:space="preserve"><g><g xmlns="http://www.w3.org/2000/svg" transform="translate(-1)"><rect width="141.241" height="52.966" x="186.45" y="432.622" fill="#2c3e50" data-original="#2c3e50"/><path fill="#556080" d="M513.071,370.829v30.455c1.261,20.815-14.506,38.749-35.31,40.165H36.381 c-20.805-1.417-36.571-19.351-35.31-40.165v-30.455H513.071z" data-original="#556080"/><path fill="#3d324c" d="M513.071,40.236v330.593h-512V40.236C-0.19,19.421,15.576,1.487,36.381,0.071H477.76 C498.565,1.487,514.331,19.421,513.071,40.236z" data-original="#3d324c"/><path fill="#f3d55b" d="M168.795,81.373v109.639c-0.091,1.869-1.661,3.321-3.531,3.266H66.395 c-1.852,0.095-3.431-1.326-3.531-3.178V81.373l50.229-45.021c1.584-1.325,3.889-1.325,5.473,0L168.795,81.373z" data-original="#f3d55b"/><path fill="#f0c419" d="M115.829,229.588v52.966l-44.138,26.483l-1.236,0.794c-4.998-8.218-7.626-17.659-7.592-27.277 C62.864,253.301,86.577,229.588,115.829,229.588z" data-original="#f0c419"/><path fill="#ff5364" d="M168.795,282.553c0.042,14.053-5.554,27.537-15.537,37.429l-37.429-37.429v-52.966 C145.081,229.588,168.795,253.301,168.795,282.553z" data-original="#ff5364"/><path fill="#24ae5f" d="M153.258,319.982c-11.511,11.541-27.701,17.129-43.881,15.146 c-16.179-1.984-30.54-11.317-38.922-25.297l1.236-0.794l44.138-26.483L153.258,319.982z" data-original="#24ae5f"/><path fill="#f0c419" d="M292.381,44.209h17.655c4.875,0,8.828,3.952,8.828,8.828v105.931h-35.31V53.036 C283.553,48.161,287.506,44.209,292.381,44.209z" data-original="#f0c419"/><path fill="#ff5364" d="M360.618,88.346h22.422c3.559,0,6.444,2.885,6.444,6.444v64.177h-35.31V94.791 C354.174,91.232,357.059,88.346,360.618,88.346z" data-original="#ff5364"/><path fill="#24ae5f" d="M429.888,114.829h25.114c2.813,0,5.094,2.28,5.094,5.094v39.044h-35.302v-39.044 C424.795,117.11,427.075,114.829,429.888,114.829z" data-original="#24ae5f"/><path fill="#ff5364" d="M248.243,309.036c-3.57-0.001-6.788-2.152-8.154-5.45c-1.366-3.298-0.611-7.094,1.913-9.619 l31.656-31.656c10.482-10.002,26.974-10.002,37.455,0l10.337,10.346c3.447,3.446,9.035,3.446,12.482,0l36.829-36.829 c10.479-10.001,26.968-10.001,37.447,0l10.346,10.346c3.447,3.446,9.035,3.446,12.482,0l31.656-31.647 c3.464-3.345,8.97-3.298,12.375,0.108c3.405,3.405,3.453,8.911,0.108,12.375l-31.656,31.656c-10.354,10.309-27.093,10.309-37.447,0 l-10.346-10.355c-3.488-3.347-8.995-3.347-12.482,0l-36.829,36.829c-10.342,10.338-27.105,10.338-37.447,0l-10.346-10.346 c-3.488-3.347-8.995-3.347-12.482,0l-31.656,31.656C252.829,308.105,250.584,309.036,248.243,309.036z" data-original="#ff5364"/><path fill="#556080" d="M142.312,476.76h229.517c14.626,0,26.483,11.857,26.483,26.483v8.828H115.829v-8.828 C115.829,488.617,127.686,476.76,142.312,476.76z" data-original="#556080"/><g><path fill="#ff5364" d="M186.45,106.002c-2.173,0-4.269-0.802-5.888-2.251l-64.733-57.944l-64.733,57.944 c-3.638,3.197-9.173,2.866-12.404-0.743s-2.951-9.146,0.628-12.41l67.902-60.787c4.859-4.283,12.129-4.34,17.055-0.132 l68.061,60.91c2.733,2.44,3.675,6.314,2.368,9.736C193.398,103.746,190.113,106.006,186.45,106.002z" data-original="#ff5364"/><path fill="#ff5364" d="M62.864,90.2c-4.875,0-8.828-3.952-8.828-8.828V57.45c0-4.875,3.952-8.828,8.828-8.828 s8.828,3.952,8.828,8.828v23.923C71.691,86.248,67.739,90.2,62.864,90.2z" data-original="#ff5364"/></g><g><path fill="#5865F2" d="M468.933,167.795H265.898c-14.626,0-26.483-11.857-26.483-26.483V35.381 c0-4.875,3.952-8.828,8.828-8.828s8.828,3.952,8.828,8.828v105.931c0,4.875,3.952,8.828,8.828,8.828h203.034 c4.875,0,8.828,3.952,8.828,8.828S473.808,167.795,468.933,167.795z" data-original="#b49aca"/><path fill="#5865F2" d="M468.933,344.346H265.898c-14.626,0-26.483-11.857-26.483-26.483V211.933 c0-4.875,3.952-8.828,8.828-8.828s8.828,3.952,8.828,8.828v105.931c0,4.875,3.952,8.828,8.828,8.828h203.034 c4.875,0,8.828,3.952,8.828,8.828S473.808,344.346,468.933,344.346z" data-original="#b49aca"/></g></g></g></svg>