<svg xmlns="http://www.w3.org/2000/svg" xmlns:svgjs="http://svgjs.com/svgjs" xmlns:xlink="http://www.w3.org/1999/xlink" style="enable-background:new 0 0 512 512" width="512" height="512" x="0" y="0" version="1.1" viewBox="0 0 512.01 512.01" xml:space="preserve"><g><linearGradient xmlns="http://www.w3.org/2000/svg" id="SVGID_1_" x1="256.005" x2="256.005" y1="512.01" y2="107.747" gradientUnits="userSpaceOnUse"><stop offset="0" stop-color="#ed4245" stop-opacity="1"/><stop offset="1" stop-color="#fee75c" stop-opacity="1"/></linearGradient><linearGradient xmlns="http://www.w3.org/2000/svg" id="SVGID_2_" x1="256.005" x2="256.005" y1="392" y2="0" gradientUnits="userSpaceOnUse"><stop offset=".007" stop-color="#091164" stop-opacity="1"/><stop offset="1" stop-color="#5865f2" stop-opacity="1"/></linearGradient><g xmlns="http://www.w3.org/2000/svg"><g><g><path fill="url(#SVGID_1_)" d="m195.185 216.893-4.072 23.818c-1.846 10.957 2.842 22.354 11.924 28.975 9.761 7.181 22.658 7.368 31.348 2.446l21.621-11.162 21.006 10.825c10.082 5.83 23.054 4.835 31.934-2.08 9.111-6.65 13.799-18.047 11.953-29.048l-4.072-23.789 16.904-16.699c8.467-7.91 11.572-20.098 7.91-30.981-3.457-10.518-12.803-18.472-23.994-20.332l-24.053-3.633-10.664-21.548c-4.922-9.829-15.234-15.938-26.924-15.938-11.689 0-22.002 6.108-26.953 15.996l-10.635 21.489-24.287 3.677c-10.957 1.816-20.303 9.771-23.73 20.215-3.691 10.957-.586 23.145 7.559 30.762zm252.803 211.098-77.988-103.799c-3.545-4.746-9.463-6.973-15.352-5.61-5.771 1.333-10.225 5.933-11.367 11.748-.967 4.966-2.695 8.481-4.6 9.595-3.662 2.065-15.41 1.245-36.006-14.692-3.691-2.856-8.613-3.882-13.037-2.622-4.541 1.216-8.232 4.468-10.02 8.804-8.584 21.02-18.281 30.585-23.613 30.585s-15.029-9.565-23.613-30.586c-1.787-4.336-5.479-7.588-10.02-8.804-4.482-1.26-9.375-.234-13.037 2.622-20.566 15.923-32.256 16.772-35.889 14.751-2.021-1.172-3.75-4.688-4.717-9.653-1.143-5.815-5.596-10.415-11.367-11.748-5.977-1.362-11.807.864-15.352 5.61l-77.987 103.799c-3.428 4.541-3.984 10.62-1.436 15.718 2.549 5.083 7.734 8.291 13.418 8.291h50.742l25.84 51.709c2.314 4.644 6.885 7.764 12.07 8.232 4.839.484 10.074-1.589 13.359-5.947l77.988-103.984 77.988 103.984c3.289 4.363 8.529 6.43 13.359 5.947 5.186-.469 9.756-3.589 12.07-8.232l25.842-51.709h50.742c5.684 0 10.869-3.208 13.418-8.291 2.549-5.098 1.992-11.177-1.435-15.718z" data-original="url(#SVGID_1_)"/></g></g><g><g><path fill="url(#SVGID_2_)" d="m451.005 197c0-12.001-5.999-28.5-32.703-43.5 15.601-26.1 12.605-43.5 6.603-54-6.002-10.501-20.402-21-50.402-21 .601-30.901-10.499-44.399-21.299-50.7-10.199-5.7-27.599-8.699-53.699 6.899-14.999-26.699-31.499-34.699-43.5-34.699s-28.5 8-43.5 34.699c-26.1-15.599-43.5-12.599-54-6.599s-21.599 19.499-21 50.4c-30 0-44.399 10.5-50.7 21.301-5.7 10.499-8.699 27.9 6.901 53.699-26.7 15-32.701 31.5-32.701 43.5 0 11.999 6 28.5 32.701 43.5-15.601 26.1-12.601 43.499-6.601 54 6 10.499 20.099 21.599 50.4 21-.752 19.523 4.28 40.77 21.301 50.7 10.499 5.698 27.599 8.7 53.699-6.901 15 26.7 31.5 32.701 43.5 32.701 12.001 0 28.5-6 43.5-32.701 26.1 15.601 43.5 12.599 54 6.601 16.849-9.524 21.737-31.211 20.999-50.4 31.501.599 44.399-10.501 50.702-21.301 5.702-10.5 8.698-27.9-6.903-53.699 26.704-15 32.702-31.501 32.702-43.5zm-127.5-7.8-22.8 22.5 5.4 31.5c.901 5.4-1.5 11.1-6 14.399-4.81 3.743-11.052 3.798-15.599 1.201l-28.5-14.7-28.5 14.7c-4.799 2.699-11.1 2.1-15.599-1.201-4.501-3.299-6.901-9-6-14.399l5.4-31.5-22.8-22.5c-4.2-3.9-5.7-9.9-3.9-15.3s6.601-9.3 12.001-10.199l31.8-4.801 14.099-28.5c5.099-10.199 21.901-10.199 27.001 0l14.099 28.5 31.8 4.801c5.4.899 10.201 4.799 12.001 10.199s.298 11.4-3.903 15.3z" data-original="url(#SVGID_2_)"/></g></g></g></g></svg>