<svg xmlns="http://www.w3.org/2000/svg" xmlns:svgjs="http://svgjs.com/svgjs" xmlns:xlink="http://www.w3.org/1999/xlink" style="enable-background:new 0 0 512 512" width="512" height="512" x="0" y="0" version="1.1" viewBox="0 0 36 36" xml:space="preserve"><g><g xmlns="http://www.w3.org/2000/svg"><path fill="#efefef" d="m27.417 3.914c-6.915.129-11.732-3.365-15.064-3.302s-10.296 2.109-10.009 17.44 9.744 17.404 13.41 17.336c17.163-.321 23.911-31.703 11.663-31.474z" data-original="#efefef"/></g><g xmlns="http://www.w3.org/2000/svg"><path fill="#a4afc1" d="m10.386 2.732h2v1h-2z" data-original="#a4afc1" transform="matrix(.707 -.707 .707 .707 1.049 8.998)"/></g><g xmlns="http://www.w3.org/2000/svg"><path fill="#a4afc1" d="m6.32 6.798h2v1h-2z" data-original="#a4afc1" transform="matrix(.707 -.707 .707 .707 -3.016 7.314)"/></g><g xmlns="http://www.w3.org/2000/svg"><path fill="#a4afc1" d="m6.821 2.056h1v2h-1z" data-original="#a4afc1" transform="matrix(.707 -.707 .707 .707 -.016 6.073)"/></g><g xmlns="http://www.w3.org/2000/svg"><path fill="#a4afc1" d="m29.25 8.5c-.827 0-1.5-.673-1.5-1.5s.673-1.5 1.5-1.5 1.5.673 1.5 1.5-.673 1.5-1.5 1.5zm0-2c-.276 0-.5.225-.5.5s.224.5.5.5.5-.225.5-.5-.224-.5-.5-.5z" data-original="#a4afc1"/></g><g xmlns="http://www.w3.org/2000/svg"><path fill="#5865F2" d="m18.897 7.839 1.969-.895c1.142-.519 2.485.037 2.926 1.212l.76 2.025c.22.586.682 1.048 1.268 1.268l2.025.76c1.175.441 1.731 1.784 1.212 2.926l-.895 1.969c-.259.57-.259 1.223 0 1.793l.895 1.969c.519 1.142-.037 2.485-1.212 2.926l-2.025.76c-.586.22-1.048.682-1.268 1.268l-.76 2.025c-.441 1.175-1.784 1.731-2.926 1.212l-1.969-.895c-.57-.259-1.223-.259-1.793 0l-1.969.895c-1.142.519-2.485-.037-2.926-1.212l-.76-2.025c-.22-.586-.682-1.048-1.268-1.268l-2.025-.76c-1.175-.441-1.731-1.784-1.212-2.926l.895-1.969c.259-.57.259-1.223 0-1.793l-.895-1.969c-.519-1.142.037-2.485 1.212-2.926l2.025-.76c.586-.22 1.048-.682 1.268-1.268l.76-2.025c.441-1.175 1.784-1.731 2.926-1.212l1.969.895c.569.259 1.223.259 1.793 0z" data-original="#2fdf84"/></g><g xmlns="http://www.w3.org/2000/svg"><path fill="#f3f3f1" d="m12.837 22.25-1.087-6.333 3.533 1.721 2.717-4.888 2.717 4.888 3.533-1.721-1.087 6.333z" data-original="#f3f3f1"/></g><g xmlns="http://www.w3.org/2000/svg"><path fill="#d5dbe1" d="m11.75 15.917 1.087 6.333h2l-.905-5.27z" data-original="#d5dbe1"/></g><g xmlns="http://www.w3.org/2000/svg"><path fill="#6375b3" d="m19.103 7.839c.57.259 1.223.259 1.793 0l1.85-.841c-.567-.29-1.252-.34-1.881-.054l-1.865.848z" data-original="#00b871"/></g><g xmlns="http://www.w3.org/2000/svg"><path fill="#6375b3" d="m14.209 27.843-.76-2.025c-.22-.586-.682-1.048-1.268-1.268l-2.025-.76c-1.175-.441-1.731-1.784-1.212-2.926l.894-1.969c.259-.57.259-1.223 0-1.793l-.894-1.969c-.519-1.142.037-2.485 1.212-2.926l2.025-.76c.586-.22 1.048-.682 1.268-1.268l.76-2.025c.198-.528.583-.921 1.045-1.158l-.119-.054c-1.142-.519-2.485.037-2.926 1.212l-.76 2.025c-.22.586-.682 1.048-1.268 1.268l-2.025.76c-1.175.441-1.731 1.784-1.212 2.926l.894 1.969c.259.57.259 1.223 0 1.793l-.894 1.969c-.519 1.142.037 2.485 1.212 2.926l2.025.76c.586.22 1.048.682 1.268 1.268l.76 2.025c.441 1.175 1.784 1.731 2.926 1.212l.119-.054c-.462-.237-.847-.63-1.045-1.158z" data-original="#00b871"/></g><g xmlns="http://www.w3.org/2000/svg"><path fill="#6375b3" d="m20.897 28.161c-.57-.259-1.223-.259-1.793 0l-.104.047 1.865.847c.629.286 1.315.236 1.881-.054z" data-original="#00b871"/></g><g xmlns="http://www.w3.org/2000/svg"><path fill="#000" d="m14.238 29.998c-.38 0-.759-.073-1.116-.221-.744-.309-1.333-.917-1.615-1.671l-.76-2.024c-.144-.383-.446-.686-.829-.829l-2.025-.76c-.753-.282-1.362-.871-1.67-1.614-.308-.744-.294-1.591.04-2.324l.895-1.969c.169-.372.169-.8 0-1.172l-.895-1.969c-.333-.733-.348-1.58-.04-2.324.308-.743.917-1.332 1.671-1.614l2.024-.76c.384-.144.686-.446.83-.829l.76-2.024c.283-.754.871-1.362 1.615-1.671.743-.309 1.59-.293 2.323.04l1.968.894c.372.169.799.17 1.172 0h.001l1.969-.894c.733-.333 1.58-.348 2.323-.04.744.309 1.333.917 1.615 1.671l.76 2.024c.144.383.446.686.829.829l2.025.76c.753.282 1.362.871 1.67 1.614.308.744.294 1.591-.04 2.324l-.895 1.969c-.169.372-.169.8 0 1.172l.895 1.969c.333.733.348 1.58.04 2.324-.308.743-.917 1.332-1.671 1.614l-2.024.76c-.384.144-.686.446-.83.829l-.76 2.024c-.283.754-.871 1.362-1.615 1.671-.743.308-1.59.294-2.323-.04l-1.968-.895c-.373-.168-.8-.168-1.173 0l-1.969.895c-.382.174-.795.261-1.207.261zm0-22.498c-.183 0-.367.036-.542.108-.367.152-.645.44-.785.812l-.76 2.024c-.295.788-.918 1.41-1.707 1.706l-2.024.76c-.372.14-.66.418-.812.784s-.145.768.019 1.129l.895 1.969c.349.768.349 1.646 0 2.414l-.895 1.969c-.164.361-.171.763-.019 1.129s.44.645.812.784l2.025.76c.789.296 1.411.918 1.707 1.706l.76 2.024c.14.372.418.66.785.812.367.15.767.144 1.128-.02l1.969-.895c.767-.35 1.646-.35 2.413 0l1.969.895c.362.163.762.17 1.129.02.367-.152.645-.44.785-.812l.76-2.024c.295-.788.918-1.41 1.707-1.706l2.024-.76c.372-.14.66-.418.812-.784s.145-.768-.019-1.129l-.895-1.969c-.349-.768-.349-1.646 0-2.414l.895-1.969c.164-.361.171-.763.019-1.129s-.44-.645-.812-.784l-2.025-.76c-.789-.296-1.411-.918-1.707-1.706l-.76-2.024c-.14-.372-.418-.66-.785-.812-.367-.151-.768-.144-1.128.02l-1.969.894c-.767.351-1.646.351-2.414 0l-1.968-.894c-.188-.085-.387-.128-.587-.128z" data-original="#000000"/></g><g xmlns="http://www.w3.org/2000/svg"><path fill="#000" d="m23.163 23h-10.326c-.365 0-.677-.263-.739-.623l-1.087-6.333c-.047-.277.064-.558.289-.727.225-.17.525-.197.779-.074l2.894 1.409 2.372-4.267c.264-.477 1.046-.477 1.311 0l1 1.799-1.312.729-.344-.619-2.062 3.708c-.193.349-.625.486-.984.31l-2.217-1.08.732 4.269h9.062l.732-4.269-2.217 1.08c-.36.177-.791.039-.984-.31l-1.054-1.896 1.312-.729.708 1.274 2.894-1.409c.253-.123.554-.096.779.074.225.169.336.449.289.727l-1.087 6.333c-.063.361-.375.624-.74.624z" data-original="#000000"/></g></g></svg>