<svg xmlns="http://www.w3.org/2000/svg" xmlns:svgjs="http://svgjs.com/svgjs" xmlns:xlink="http://www.w3.org/1999/xlink" style="enable-background:new 0 0 512 512" width="512" height="512" x="0" y="0" version="1.1" viewBox="0 0 50 60" xml:space="preserve"><g><g xmlns="http://www.w3.org/2000/svg" id="Page-1" fill="none" fill-rule="evenodd"><g id="033---Bot-Waving" fill-rule="nonzero" transform="translate(0 -1)"><path id="Shape" fill="#5865f2" d="m39 21.636c0 12.273-8.507 16.364-19 16.364s-19-4.091-19-16.364c0-11.454 8.507-19.636 19-19.636s19 8.182 19 19.636z" data-original="#f5f5f5"/><path id="Shape" fill="#4751c2" d="m20 2c-.506 0-1 .036-1.5.073 9.79.741 17.5 8.662 17.5 19.563 0 11.681-7.71 15.941-17.5 16.326.5.02.994.038 1.5.038 10.493 0 19-4.091 19-16.364 0-11.454-8.507-19.636-19-19.636z" data-original="#cfd8dc"/><rect id="Rectangle-path" width="30" height="18" x="5" y="14" fill="#ed4245" data-original="#607d8b" rx="9"/><path id="Shape" fill="#cc2629" d="m26 14h-3c4.9705627.0000001 8.9999999 4.0294373 8.9999999 9s-4.0294372 8.9999999-8.9999999 9h3c4.9705627-.0000001 8.9999999-4.0294373 8.9999999-9s-4.0294372-8.9999999-8.9999999-9z" data-original="#37474f"/><circle id="Oval" cx="3" cy="4" r="2" fill="#57f287" data-original="#02a9f4"/><circle id="Oval" cx="12" cy="22" r="2" fill="#fff" data-original="#00bcd4"/><circle id="Oval" cx="28" cy="22" r="2" fill="#fff" data-original="#00bcd4"/><circle id="Oval" cx="37" cy="4" r="2" fill="#57f287" data-original="#02a9f4"/><path id="Shape" fill="#5865f2" d="m31.38 43.55c-.011.1-.95 8.535-.89 8-.2803577 2.5332395-2.4212939 4.4501744-4.97 4.45h-11.04c-2.5487061.0001744-4.68964233-1.9167605-4.97-4.45l-.89-8c-.15640871-1.4132687.29629586-2.8262862 1.24485592-3.8855434.94856008-1.0592572 2.30324678-1.6645539 3.72514408-1.6644566h12.82c1.4218973-.0000973 2.776584.6051994 3.7251441 1.6644566.94856 1.0592572 1.4012646 2.4722747 1.2448559 3.8855434z" data-original="#f5f5f5"/><path id="Shape" fill="#4751c2" d="m26.41 38h-3c1.4218973-.0000973 2.776584.6051994 3.7251441 1.6644566.94856 1.0592572 1.4012646 2.4722747 1.2448559 3.8855434-.011.1-.95 8.535-.89 8-.2803577 2.5332395-2.4212939 4.4501744-4.97 4.45h3c2.5487061.0001744 4.6896423-1.9167605 4.97-4.45.011-.1.95-8.535.89-8 .1564087-1.4132687-.2962959-2.8262862-1.2448559-3.8855434-.9485601-1.0592572-2.3032468-1.6645539-3.7251441-1.6644566z" data-original="#cfd8dc"/><path id="Shape" fill="#7f8e94" d="m15 56h10v1c0 1.6568542-1.3431458 3-3 3h-4c-1.6568542 0-3-1.3431458-3-3z" data-original="#7f8e94"/><path id="Shape" fill="#545c60" d="m22 56v1c0 1.6568542-1.3431458 3-3 3h3c1.6568542 0 3-1.3431458 3-3v-1z" data-original="#545c60"/><path id="Shape" fill="#9e9e9e" d="m17 38h6v3c0 1.6568542-1.3431458 3-3 3s-3-1.3431458-3-3z" data-original="#9e9e9e"/><path id="Shape" fill="#7f8e94" d="m44.18 39.93c-3.48 5.4-9.49 6.75-13.18 7.03l.38-3.41c.0214922-.2159564.0281745-.4331308.02-.65 2.77-.33 6.68-1.4 9.08-4.65.6189798 1.0837138 1.7719743 1.7518397 3.02 1.75.2285627.0019873.4566355-.0214908.68-.07z" data-original="#7f8e94"/><path id="Shape" fill="#9e9e9e" d="m47 36.5c-.0015779 1.6695957-1.1822176 3.105622-2.82 3.43-.2233645.0485092-.4514373.0719873-.68.07-1.2480257.0018397-2.4010202-.6662862-3.02-1.75-.3152618-.5292138-.4811461-1.1340001-.48-1.75 0-1.9329966 1.5670034-3.5 3.5-3.5s3.5 1.5670034 3.5 3.5z" data-original="#9e9e9e"/><g fill="#000"><path id="Shape" fill="#000" d="m12 19c-1.6568542 0-3 1.3431458-3 3s1.3431458 3 3 3 3-1.3431458 3-3-1.3431458-3-3-3zm0 4c-.5522847 0-1-.4477153-1-1s.4477153-1 1-1 1 .4477153 1 1-.4477153 1-1 1z" data-original="#000000"/><path id="Shape" fill="#000" d="m31 22c0-1.6568542-1.3431458-3-3-3s-3 1.3431458-3 3 1.3431458 3 3 3 3-1.3431458 3-3zm-4 0c0-.5522847.4477153-1 1-1s1 .4477153 1 1-.4477153 1-1 1-1-.4477153-1-1z" data-original="#000000"/><path id="Shape" fill="#000" d="m36 23c-.0060624-5.5203344-4.4796656-9.9939376-10-10h-12c-5.5228475 0-10 4.4771525-10 10s4.4771525 10 10 10h12c5.5203344-.0060624 9.9939376-4.4796656 10-10zm-30 0c.00495988-4.4162219 3.58377808-7.9950401 8-8h12c4.418278 0 8 3.581722 8 8s-3.581722 8-8 8h-12c-4.41622192-.0049599-7.99504012-3.5837781-8-8z" data-original="#000000"/><path id="Shape" fill="#000" d="m22.3 25.282c-.6559217.5070896-1.4720819.7618735-2.3.718-.8276815.0432642-1.643525-.2110662-2.3-.717-.3985064-.3506401-1.0015362-.3288293-1.37367.049684-.3721338.3785132-.3836925.9818266-.02633 1.374316 1.023374.8869696 2.346923 1.3494963 3.7 1.293 1.35546.0583036 2.6818413-.4043376 3.707-1.293.3854708-.3870661.3854708-1.0129339 0-1.4-.3841726-.3895471-1.0092311-.4006534-1.407-.025z" data-original="#000000"/><path id="Shape" fill="#000" d="m18 12h4c.5522847 0 1-.4477153 1-1s-.4477153-1-1-1h-4c-.5522847 0-1 .4477153-1 1s.4477153 1 1 1z" data-original="#000000"/><path id="Shape" fill="#000" d="m19 9h2c.5522847 0 1-.44771525 1-1s-.4477153-1-1-1h-2c-.5522847 0-1 .44771525-1 1s.4477153 1 1 1z" data-original="#000000"/><path id="Shape" fill="#000" d="m43.5 32c-2.4841391.0027556-4.4972444 2.0158609-4.5 4.5.0025045.5425321.104176 1.0800353.3 1.586-1.8430316 2.0021939-4.3252654 3.3007618-7.021 3.673-.3623667-1.7495276-1.493231-3.2429002-3.079-4.066 7.09-2.328 10.8-7.755 10.8-16.057.0143062-3.1901958-.6682627-6.3450295-2-9.244v-5.576c1.3775467-.4870363 2.2038721-1.89566623 1.9567957-3.33573306s-1.4956868-2.49269406-2.9567957-2.49269406-2.7097193 1.05262723-2.9567957 2.49269406.579249 2.84869676 1.9567957 3.33573306v2.173c-3.7258278-5.09581029-9.6879434-8.07276913-16-7.989-6.3120566-.08376913-12.27417217 2.89318971-16 7.989v-2.173c1.37754669-.4870363 2.20387209-1.89566623 1.95679568-3.33573306s-1.49568678-2.49269406-2.95679568-2.49269406-2.70971927 1.05262723-2.95679568 2.49269406.579249 2.84869676 1.95679568 3.33573306v5.576c-1.33173726 2.8989705-2.01430622 6.0538042-2 9.244 0 8.3 3.71 13.729 10.805 16.057-2.19630666 1.1373365-3.46232917 3.5126207-3.182 5.97l.889 8c.32001834 2.8537384 2.6245554 5.0763905 5.488 5.293v.044c0 2.209139 1.790861 4 4 4h4c2.209139 0 4-1.790861 4-4v-.044c2.8634446-.2166095 5.1679817-2.4392616 5.488-5.293l.421-3.786c3.624-.405 9.36-1.9 12.889-7.091 2.1362852-.6386217 3.4795392-2.7490311 3.1536717-4.9547878s-2.2219831-3.8375978-4.4516717-3.8312122zm-6.5-29c.5522847 0 1 .44771525 1 1s-.4477153 1-1 1-1-.44771525-1-1 .4477153-1 1-1zm-34 0c.55228475 0 1 .44771525 1 1s-.44771525 1-1 1-1-.44771525-1-1 .44771525-1 1-1zm19 36v2c0 1.1045695-.8954305 2-2 2s-2-.8954305-2-2v-2zm-20-17.364c0-10.624 7.738-18.636 18-18.636s18 8.012 18 18.636c0 10.195-6.056 15.364-18 15.364s-18-5.169-18-15.364zm20 37.364h-4c-1.1045695 0-2-.8954305-2-2h8c0 1.1045695-.8954305 2-2 2zm3.525-4h-11.05c-1.8208551-.0009702-3.4095829-1.2357328-3.86-3h6.385c.5522847 0 1-.4477153 1-1s-.4477153-1-1-1h-6.661l-.729-6.558c-.12573875-1.1309388.23614773-2.2619022.9950657-3.1097678.7589181-.8478657 1.8430271-1.3323732 2.9809343-1.3322322h2.414v2c0 2.209139 1.790861 4 4 4s4-1.790861 4-4v-2h2.414c1.1379072-.000141 2.2220162.4843665 2.9809343 1.3322322.758918.8478656 1.1208045 1.978829.9950657 3.1097678l-.729 6.558h-6.661c-.5522847 0-1 .4477153-1 1s.4477153 1 1 1h6.385c-.4504171 1.7642672-2.0391449 2.9990298-3.86 3zm6.61-9.165.23-2.068c3.0630875-.3952746 5.9102193-1.7900177 8.1-3.968.5132606.4716652 1.1296535.8168453 1.8 1.008-2.6532986 2.8515418-6.2544441 4.6389613-10.13 5.028zm11.365-6.835c-1.3807119 0-2.5-1.1192881-2.5-2.5s1.1192881-2.5 2.5-2.5 2.5 1.1192881 2.5 2.5c0 .6630412-.2633921 1.298926-.732233 1.767767-.468841.4688409-1.1047258.732233-1.767767.732233z" data-original="#000000"/><path id="Shape" fill="#000" d="m43.5 28c-.5710058-.0009286-1.1406183.0563677-1.7.171-.5406868.1126661-.8876661.6423132-.775 1.183.1126661.5406867.6423132.8876661 1.183.775.4251064-.0871728.8580501-.1304001 1.292-.129 1.8103781-.0002957 3.5377261.7594327 4.761 2.094.240797.2640193.6041552.3795195.9532011.3029928s.6307512-.333454.739-.674c.1082489-.340546.0265959-.7129735-.2142011-.9769928-1.6027923-1.7494335-3.8663516-2.7457044-6.239-2.746z" data-original="#000000"/></g></g></g></g></svg>