<svg xmlns="http://www.w3.org/2000/svg" xmlns:svgjs="http://svgjs.com/svgjs" xmlns:xlink="http://www.w3.org/1999/xlink" style="enable-background:new 0 0 512 512" width="512" height="512" x="0" y="0" version="1.1" viewBox="0 0 60 60" xml:space="preserve"><g><g xmlns="http://www.w3.org/2000/svg" id="Page-1" fill="none" fill-rule="evenodd"><g id="026---Bot-Hi" fill-rule="nonzero" transform="translate(0 -1)"><path id="Shape" fill="#5865f2" d="m39 21.64c0 6.31-2.25 10.44-5.86 12.98-3.915 2.609-8.358 3.38-13.14 3.38-10.49 0-19-4.09-19-16.36 0-11.46 8.51-19.64 19-19.64s19 8.18 19 19.64z" data-original="#f5f5f5"/><path id="Shape" fill="#4751c2" d="m20 2c-.506 0-1 .036-1.5.073 9.787.741 17.5 8.66 17.5 19.567 0 6.31-2.25 10.44-5.86 12.98-2.695 1.8-6.065 3.119-11.6 3.343.483.019.967.037 1.46.037 4.787 0 9.227-.772 13.14-3.38 3.61-2.54 5.86-6.67 5.86-12.98 0-11.46-8.51-19.64-19-19.64z" data-original="#cfd8dc"/><rect id="Rectangle-path" width="30" height="18" x="5" y="14" fill="#ed4245" data-original="#607d8b" rx="9"/><path id="Shape" fill="#cc2629" d="m26 14h-3c4.9705627.0000001 8.9999999 4.0294373 8.9999999 9s-4.0294372 8.9999999-8.9999999 9h3c4.9705627-.0000001 8.9999999-4.0294373 8.9999999-9s-4.0294372-8.9999999-8.9999999-9z" data-original="#37474f"/><path id="Shape" fill="#ffdf00" d="m59 44v12c0 2.209139-1.790861 4-4 4h-22c-2.209139 0-4-1.790861-4-4v-12c.0044014-2.2073133 1.7926867-3.9955986 4-4v-5l7 5h15c2.209139 0 4 1.790861 4 4z" data-original="#ffdf00"/><path id="Shape" fill="#fec108" d="m55 40h-3c2.209139 0 4 1.790861 4 4v12c0 2.209139-1.790861 4-4 4h3c2.209139 0 4-1.790861 4-4v-12c0-2.209139-1.790861-4-4-4z" data-original="#fec108"/><circle id="Oval" cx="3" cy="4" r="2" fill="#57f287" data-original="#02a9f4"/><circle id="Oval" cx="12" cy="22" r="2" fill="#fff" data-original="#00bcd4"/><circle id="Oval" cx="28" cy="22" r="2" fill="#fff" data-original="#00bcd4"/><circle id="Oval" cx="37" cy="4" r="2" fill="#57f287" data-original="#02a9f4"/><path id="Shape" fill="#5865f2" d="m30.82 40.65c-1.136684.734687-1.8222367 1.996556-1.82 3.35v10.58c-.9275884.9133705-2.1782119 1.4236823-3.48 1.42h-11.04c-2.5487061.0001744-4.68964233-1.9167605-4.97-4.45l-.89-8c-.15640871-1.4132687.29629586-2.8262862 1.24485592-3.8855434.94856008-1.0592572 2.30324678-1.6645539 3.72514408-1.6644566h12.82c1.8465598.0012308 3.5421171 1.0201031 4.41 2.65z" data-original="#f5f5f5"/><path id="Shape" fill="#4751c2" d="m26.41 38h-3c1.8465598.0012308 3.5421171 1.0201031 4.41 2.65-1.136684.734687-1.8222367 1.996556-1.82 3.35v10.58c-.9275884.9133705-2.1782119 1.4236823-3.48 1.4200198l3-.0000198c1.3017881.0036823 2.5524116-.5066295 3.48-1.42v-10.58c-.0022367-1.353444.683316-2.615313 1.82-3.35-.8678829-1.6298969-2.5634402-2.6487692-4.41-2.65z" data-original="#cfd8dc"/><path id="Shape" fill="#7f8e94" d="m15 56h10v1c0 1.6568542-1.3431458 3-3 3h-4c-1.6568542 0-3-1.3431458-3-3z" data-original="#7f8e94"/><path id="Shape" fill="#545c60" d="m22 56v1c0 1.6568542-1.3431458 3-3 3h3c1.6568542 0 3-1.3431458 3-3v-1z" data-original="#545c60"/><path id="Shape" fill="#9e9e9e" d="m17 38h6v3c0 1.6568542-1.3431458 3-3 3s-3-1.3431458-3-3z" data-original="#9e9e9e"/><g fill="#000"><path id="Shape" fill="#000" d="m55 39h-14.68l-5.842-4.173c3.649-2.952 5.522-7.37 5.522-13.187.0141791-3.190826-.6683773-6.3462841-2-9.246v-5.578c1.3775467-.4870363 2.2038721-1.89566623 1.9567957-3.33573306s-1.4956868-2.49269406-2.9567957-2.49269406-2.7097193 1.05262723-2.9567957 2.49269406.579249 2.84869676 1.9567957 3.33573306v2.174c-3.7262772-5.09540022-9.6879929-8.07253201-16-7.99-6.3120071-.08253201-12.27372282 2.89459978-16 7.99v-2.174c1.37754669-.4870363 2.20387209-1.89566623 1.95679568-3.33573306s-1.49568678-2.49269406-2.95679568-2.49269406-2.70971927 1.05262723-2.95679568 2.49269406.579249 2.84869676 1.95679568 3.33573306v5.578c-1.33162275 2.8997159-2.01417911 6.055174-2 9.246 0 8.3 3.71 13.727 10.807 16.054-2.1950654 1.1364515-3.46064609 3.5100618-3.181 5.966l.89 8c.31882081 2.8531395 2.6214373 5.0763989 5.484 5.295v.045c0 2.209139 1.790861 4 4 4h4c2.209139 0 4-1.790861 4-4v-.023c.7080571-.055462 1.4003891-.2376903 2.044-.538.2221104 2.5741021 2.3723457 4.5529607 4.956 4.561h22c2.7600532-.0033061 4.9966939-2.2399468 5-5v-12c-.0033061-2.7600532-2.2399468-4.9966939-5-5zm-18-36c.5522847 0 1 .44771525 1 1s-.4477153 1-1 1-1-.44771525-1-1 .4477153-1 1-1zm-34 0c.55228475 0 1 .44771525 1 1s-.44771525 1-1 1-1-.44771525-1-1 .44771525-1 1-1zm28.159 36.353c-.5367186-.6955169-1.2194165-1.264887-2-1.668.9793347-.3223344 1.9297094-.7267705 2.841-1.209v2.624c-.2872756.0592492-.5687164.1439157-.841.253zm-9.159-.353v2c0 1.1045695-.8954305 2-2 2s-2-.8954305-2-2v-2zm-20-17.36c0-10.626 7.738-18.64 18-18.64s18 8.014 18 18.64c0 5.532-1.829 9.625-5.436 12.164-2.993 2.121-7.219 3.196-12.564 3.196-11.944 0-18-5.168-18-15.36zm8.619 30.36h6.381c.5522847 0 1-.4477153 1-1s-.4477153-1-1-1h-6.656l-.73-6.561c-.12482123-1.130453.23748093-2.2605924.996294-3.1077683.7588131-.8471759 1.8423827-1.3312781 2.979706-1.3312317h2.41v2c0 2.209139 1.790861 4 4 4s4-1.790861 4-4v-2h2.41c1.1944437.0032889 2.3244585.5420553 3.079 1.468-.9491966.9304951-1.4855658 2.2027959-1.489 3.532v6h-5c-.5522847 0-1 .4477153-1 1s.4477153 1 1 1h5v2.11c-.6990492.574219-1.5753478.8886972-2.48.89h-11.04c-1.8209844-.0012225-3.4098638-1.235783-3.861-3zm11.381 7h-4c-1.1045695 0-2-.8954305-2-2h8c0 1.1045695-.8954305 2-2 2zm36-3c0 1.6568542-1.3431458 3-3 3h-22c-1.6568542 0-3-1.3431458-3-3v-12c0-1.6568542 1.3431458-3 3-3 .5522847 0 1-.4477153 1-1v-3.057l5.419 3.871c.1695664.1210014.3726875.1860281.581.186h15c1.6568542 0 3 1.3431458 3 3z" data-original="#000000"/><path id="Shape" fill="#000" d="m12 19c-1.6568542 0-3 1.3431458-3 3s1.3431458 3 3 3 3-1.3431458 3-3-1.3431458-3-3-3zm0 4c-.5522847 0-1-.4477153-1-1s.4477153-1 1-1 1 .4477153 1 1-.4477153 1-1 1z" data-original="#000000"/><path id="Shape" fill="#000" d="m31 22c0-1.6568542-1.3431458-3-3-3s-3 1.3431458-3 3 1.3431458 3 3 3 3-1.3431458 3-3zm-4 0c0-.5522847.4477153-1 1-1s1 .4477153 1 1-.4477153 1-1 1-1-.4477153-1-1z" data-original="#000000"/><path id="Shape" fill="#000" d="m36 23c-.0060624-5.5203344-4.4796656-9.9939376-10-10h-12c-5.5228475 0-10 4.4771525-10 10s4.4771525 10 10 10h12c5.5203344-.0060624 9.9939376-4.4796656 10-10zm-30 0c.00495988-4.4162219 3.58377808-7.9950401 8-8h12c4.418278 0 8 3.581722 8 8s-3.581722 8-8 8h-12c-4.41622192-.0049599-7.99504012-3.5837781-8-8z" data-original="#000000"/><path id="Shape" fill="#000" d="m22.305 25.282c-.6575823.5075968-1.4754819.7623699-2.305.718-.8276815.0432642-1.643525-.2110662-2.3-.717-.3985064-.3506401-1.0015362-.3288293-1.37367.049684-.3721338.3785132-.3836925.9818266-.02633 1.374316 1.023374.8869696 2.346923 1.3494963 3.7 1.293 1.35546.0583036 2.6818413-.4043376 3.707-1.293.3865882-.3856403.3892686-1.0110603.006-1.4-.3842883-.3901971-1.0101019-.4013089-1.408-.025z" data-original="#000000"/><path id="Shape" fill="#000" d="m18 12h4c.5522847 0 1-.4477153 1-1s-.4477153-1-1-1h-4c-.5522847 0-1 .4477153-1 1s.4477153 1 1 1z" data-original="#000000"/><path id="Shape" fill="#000" d="m19 9h2c.5522847 0 1-.44771525 1-1s-.4477153-1-1-1h-2c-.5522847 0-1 .44771525-1 1s.4477153 1 1 1z" data-original="#000000"/><path id="Shape" fill="#000" d="m43 44c-.5522847 0-1 .4477153-1 1v4h-4v-4c0-.5522847-.4477153-1-1-1s-1 .4477153-1 1v10c0 .5522847.4477153 1 1 1s1-.4477153 1-1v-4h4v4c0 .5522847.4477153 1 1 1s1-.4477153 1-1v-10c0-.5522847-.4477153-1-1-1z" data-original="#000000"/><path id="Shape" fill="#000" d="m51 46c.5522847 0 1-.4477153 1-1s-.4477153-1-1-1h-4c-.5522847 0-1 .4477153-1 1s.4477153 1 1 1h1v8h-1c-.5522847 0-1 .4477153-1 1s.4477153 1 1 1h4c.5522847 0 1-.4477153 1-1s-.4477153-1-1-1h-1v-8z" data-original="#000000"/></g></g></g></g></svg>