<svg xmlns="http://www.w3.org/2000/svg" xmlns:svgjs="http://svgjs.com/svgjs" xmlns:xlink="http://www.w3.org/1999/xlink" style="enable-background:new 0 0 512 512" width="512" height="512" x="0" y="0" version="1.1" viewBox="0 0 512 512" xml:space="preserve"><g><path xmlns="http://www.w3.org/2000/svg" fill="#5865F2" d="m392 488h-272a48 48 0 0 1 -48-48v-368a48 48 0 0 1 48-48h224l96 96v320a48 48 0 0 1 -48 48z" data-original="#8690fa"/><path xmlns="http://www.w3.org/2000/svg" fill="#cfd2fc" d="m72 360h368a0 0 0 0 1 0 0v80a48 48 0 0 1 -48 48h-272a48 48 0 0 1 -48-48v-80a0 0 0 0 1 0 0z" data-original="#cfd2fc"/><path xmlns="http://www.w3.org/2000/svg" fill="#cfd2fc" d="m440 120h-48a48 48 0 0 1 -48-48v-48z" data-original="#cfd2fc"/><path xmlns="http://www.w3.org/2000/svg" fill="#fff" d="m263.511 135.974a56.016 56.016 0 0 0 -66.233-9.665l20.978 20.979a16 16 0 0 1 -22.627 22.627l-20.979-20.978a56 56 0 0 0 74.795 76.48l50.362 59.165a24 24 0 1 0 33.116-33.116l-59.165-50.366a56.015 56.015 0 0 0 -10.247-65.126z" data-original="#ffffff"/><path xmlns="http://www.w3.org/2000/svg" fill="#000" d="m349.657 18.343a8 8 0 0 0 -5.657-2.343h-224a56.063 56.063 0 0 0 -56 56v368a56.063 56.063 0 0 0 56 56h272a56.063 56.063 0 0 0 56-56v-320a8 8 0 0 0 -2.343-5.657zm2.343 24.97 68.687 68.687h-28.687a40.045 40.045 0 0 1 -40-40zm-232-11.313h216v40a56.063 56.063 0 0 0 56 56h40v224h-352v-280a40.045 40.045 0 0 1 40-40zm272 448h-272a40.045 40.045 0 0 1 -40-40v-72h352v72a40.045 40.045 0 0 1 -40 40z" data-original="#000000"/><path xmlns="http://www.w3.org/2000/svg" fill="#000" d="m192 448h-24v-56a8 8 0 0 0 -16 0v64a8 8 0 0 0 8 8h32a8 8 0 0 0 0-16z" data-original="#000000"/><path xmlns="http://www.w3.org/2000/svg" fill="#000" d="m248 384c-17.645 0-32 17.944-32 40s14.355 40 32 40 32-17.944 32-40-14.355-40-32-40zm0 64c-8.673 0-16-10.99-16-24s7.327-24 16-24 16 10.99 16 24-7.327 24-16 24z" data-original="#000000"/><path xmlns="http://www.w3.org/2000/svg" fill="#000" d="m352 416h-16a8 8 0 0 0 0 16h7.049c-2.252 9.217-8.236 16-15.049 16-8.673 0-16-10.99-16-24s7.327-24 16-24a10.675 10.675 0 0 1 4.588 1.058 8 8 0 0 0 6.824-14.473 26.587 26.587 0 0 0 -11.412-2.585c-17.645 0-32 17.944-32 40s14.355 40 32 40 32-17.944 32-40a8 8 0 0 0 -8-8z" data-original="#000000"/><path xmlns="http://www.w3.org/2000/svg" fill="#000" d="m247.247 235.177 46.131 54.2a32.122 32.122 0 0 0 4.073 4.994 32 32 0 1 0 45.256-45.256 32.226 32.226 0 0 0 -4.994-4.073l-54.2-46.131a63.8 63.8 0 0 0 -14.35-68.589 64.381 64.381 0 0 0 -75.7-11.043 8 8 0 0 0 -1.85 12.694l20.987 20.972a8 8 0 0 1 -11.313 11.313l-20.978-20.979a8 8 0 0 0 -12.694 1.85 64.009 64.009 0 0 0 79.633 90.048zm-69.685-72.016 12.41 12.411a24 24 0 0 0 33.941-33.941l-12.413-12.41a48.364 48.364 0 0 1 46.352 12.409 47.859 47.859 0 0 1 8.785 55.826 8 8 0 0 0 1.933 9.74l59.165 50.362a8.049 8.049 0 0 0 .9.662 16 16 0 1 1 -22.074 22.074 8.057 8.057 0 0 0 -.663-.9l-50.361-59.165a8 8 0 0 0 -9.74-1.933 47.857 47.857 0 0 1 -55.825-8.785 48.353 48.353 0 0 1 -12.41-46.35z" data-original="#000000"/></g></svg>