<svg xmlns="http://www.w3.org/2000/svg" xmlns:svgjs="http://svgjs.com/svgjs" xmlns:xlink="http://www.w3.org/1999/xlink" style="enable-background:new 0 0 512 512" width="512" height="512" x="0" y="0" version="1.1" viewBox="0 0 512 512" xml:space="preserve"><g><linearGradient xmlns="http://www.w3.org/2000/svg" id="SVGID_1_" x1="256" x2="256" y1="512" y2="0" gradientUnits="userSpaceOnUse"><stop offset="0" stop-color="#267d41" stop-opacity="1"/><stop offset="1" stop-color="#57f287" stop-opacity="1"/></linearGradient><linearGradient xmlns="http://www.w3.org/2000/svg" id="SVGID_2_" x1="256" x2="256" y1="451" y2="61" gradientUnits="userSpaceOnUse"><stop offset="0" stop-color="#00ff84" stop-opacity="1"/><stop offset="1" stop-color="#c3ffe8" stop-opacity="1"/></linearGradient><g xmlns="http://www.w3.org/2000/svg" id="Plus_1_"><g><g><circle cx="256" cy="256" r="256" fill="url(#SVGID_1_)" data-original="url(#SVGID_1_)"/></g></g><g><g><path fill="url(#SVGID_2_)" d="m256 61c-107.4 0-195 87.6-195 195 0 107.399 87.599 195 195 195s195-87.601 195-195c0-107.4-87.6-195-195-195zm120 225c0 8.399-6.599 15-15 15h-60v60c0 8.399-6.599 15-15 15h-60c-8.401 0-15-6.601-15-15v-60h-60c-8.401 0-15-6.601-15-15v-60c0-8.401 6.599-15 15-15h60v-60c0-8.401 6.599-15 15-15h60c8.401 0 15 6.599 15 15v60h60c8.401 0 15 6.599 15 15z" data-original="url(#SVGID_2_)"/></g></g></g></g></svg>