<svg xmlns="http://www.w3.org/2000/svg" viewBox="0 0 1440 320"><path fill="#5865F2" fill-opacity="1" d="M0,160L24,186.7C48,213,96,267,144,261.3C192,256,240,192,288,149.3C336,107,384,85,432,74.7C480,64,528,64,576,74.7C624,85,672,107,720,128C768,149,816,171,864,176C912,181,960,171,1008,138.7C1056,107,1104,53,1152,48C1200,43,1248,85,1296,117.3C1344,149,1392,171,1416,181.3L1440,192L1440,320L1416,320C1392,320,1344,320,1296,320C1248,320,1200,320,1152,320C1104,320,1056,320,1008,320C960,320,912,320,864,320C816,320,768,320,720,320C672,320,624,320,576,320C528,320,480,320,432,320C384,320,336,320,288,320C240,320,192,320,144,320C96,320,48,320,24,320L0,320Z"/></svg>