<svg xmlns="http://www.w3.org/2000/svg" viewBox="0 0 1440 320"><path fill="#5865F2" fill-opacity="1" d="M0,160L24,186.7C48,213,96,267,144,261.3C192,256,240,192,288,149.3C336,107,384,85,432,74.7C480,64,528,64,576,74.7C624,85,672,107,720,128C768,149,816,171,864,176C912,181,960,171,1008,138.7C1056,107,1104,53,1152,48C1200,43,1248,85,1296,117.3C1344,149,1392,171,1416,181.3L1440,192L1440,0L1416,0C1392,0,1344,0,1296,0C1248,0,1200,0,1152,0C1104,0,1056,0,1008,0C960,0,912,0,864,0C816,0,768,0,720,0C672,0,624,0,576,0C528,0,480,0,432,0C384,0,336,0,288,0C240,0,192,0,144,0C96,0,48,0,24,0L0,0Z"/></svg>