<svg xmlns="http://www.w3.org/2000/svg" xmlns:svgjs="http://svgjs.com/svgjs" xmlns:xlink="http://www.w3.org/1999/xlink" style="enable-background:new 0 0 512 512" width="512" height="512" x="0" y="0" version="1.1" viewBox="0 0 60 60" xml:space="preserve"><g><g xmlns="http://www.w3.org/2000/svg" id="Page-1" fill="none" fill-rule="evenodd"><g id="024---Bot-Question" fill-rule="nonzero" transform="translate(-1 -1)"><path id="Shape" fill="#5865f2" d="m60 33.636c0 19.773-12.984 26.364-29 26.364s-29-6.591-29-26.364c0-18.454 12.984-31.636 29-31.636s29 13.182 29 31.636z" data-original="#f5f5f5"/><path id="Shape" fill="#4751c2" d="m31 2c-.5033333 0-1.0033333.013-1.5.039 15.319.8 27.5 13.723 27.5 31.6 0 19.149-12.181 25.934-27.5 26.341.4966667.0133333.9966667.02 1.5.02 16.016 0 29-6.591 29-26.364 0-18.454-12.984-31.636-29-31.636z" data-original="#cfd8dc"/><rect id="Rectangle-path" width="50" height="28" x="6" y="23" fill="#ed4245" data-original="#607d8b" rx="14"/><path id="Shape" fill="#cc2629" d="m42 23h-3c7.7319864.0000001 13.9999998 6.2680136 13.9999998 14s-6.2680134 13.9999999-13.9999998 14h3c7.7319864-.0000001 13.9999998-6.2680136 13.9999998-14s-6.2680134-13.9999999-13.9999998-14z" data-original="#37474f"/><circle id="Oval" cx="8" cy="4" r="2" fill="#57f287" data-original="#02a9f4"/><circle id="Oval" cx="54" cy="4" r="2" fill="#57f287" data-original="#02a9f4"/><circle id="Oval" cx="23" cy="45" r="2" fill="#57f287" data-original="#02a9f4"/><path id="Shape" fill="#57f287" d="m23 40c-1.1045695 0-2-.8954305-2-2v-1c0-1.1045695.8954305-2 2-2 .9704677-.0004606 1.8005584-.6975491 1.968776-1.6533266.1682175-.9557775-.3739883-1.8943912-1.2859822-2.2261666-.911994-.3317753-1.9305598.0390435-2.4157938.8794932-.5522847.9573856-1.7761144 1.2857847-2.7335.7335s-1.2857847-1.7761144-.7335-2.7335c1.3371457-2.3158589 4.0454926-3.467264 6.6409602-2.8232851 2.5954677.6439789 4.4514595 2.9278727 4.5509562 5.6001865.0994967 2.6723139-1.5815222 5.0878992-4.1219164 5.9230986-.2916493.7805821-1.036714 1.2985415-1.87 1.3z" data-original="#02a9f4"/><circle id="Oval" cx="39" cy="45" r="2" fill="#57f287" data-original="#02a9f4"/><path id="Shape" fill="#57f287" d="m39 40c-1.1045695 0-2-.8954305-2-2v-1c0-1.1045695.8954305-2 2-2 .9704677-.0004606 1.8005584-.6975491 1.968776-1.6533266.1682175-.9557775-.3739883-1.8943912-1.2859822-2.2261666-.911994-.3317753-1.9305598.0390435-2.4157938.8794932-.3572656.6193199-1.0177958 1.0009962-1.7327754 1.001255-.7149796.0002589-1.375786-.3809389-1.7335-1-.357714-.619061-.3579902-1.3819351-.0007246-2.001255 1.3371457-2.3158589 4.0454926-3.467264 6.6409602-2.8232851 2.5954677.6439789 4.4514595 2.9278727 4.5509562 5.6001865.0994967 2.6723139-1.5815222 5.0878992-4.1219164 5.9230986-.2916493.7805821-1.036714 1.2985415-1.87 1.3z" data-original="#02a9f4"/><g fill="#000"><path id="Shape" fill="#000" d="m20 22c-8.2842712 0-15 6.7157288-15 15s6.7157288 15 15 15h22c8.2842712 0 15-6.7157288 15-15s-6.7157288-15-15-15zm35 15c-.008266 7.1762751-5.8237249 12.991734-13 13h-22c-7.1797017 0-13-5.8202983-13-13s5.8202983-13 13-13h22c7.1762751.008266 12.991734 5.8237249 13 13z" data-original="#000000"/><path id="Shape" fill="#000" d="m28 20h6c.5522847 0 1-.4477153 1-1s-.4477153-1-1-1h-6c-.5522847 0-1 .4477153-1 1s.4477153 1 1 1z" data-original="#000000"/><path id="Shape" fill="#000" d="m30 17h2c.5522847 0 1-.4477153 1-1s-.4477153-1-1-1h-2c-.5522847 0-1 .4477153-1 1s.4477153 1 1 1z" data-original="#000000"/><path id="Shape" fill="#000" d="m55 6.816c1.3775467-.4870363 2.2038721-1.89566623 1.9567957-3.33573306s-1.4956868-2.49269406-2.9567957-2.49269406-2.7097193 1.05262723-2.9567957 2.49269406.579249 2.84869676 1.9567957 3.33573306v4.2c-5.5020636-6.41349313-13.5500406-10.07751758-22-10.016-8.4493134-.0625167-16.4971824 3.59999533-22 10.012v-4.2c1.3775467-.4870363 2.2038721-1.89566623 1.9567957-3.33573306s-1.4956868-2.49269406-2.9567957-2.49269406-2.70971927 1.05262723-2.95679568 2.49269406.57924899 2.84869676 1.95679568 3.33573306v6.768c-4.00305402 5.9148643-6.09708956 12.9145271-6 20.056 0 17.902 10.374 27.364 30 27.364s30-9.462 30-27.364c.0962694-7.1401135-1.9977301-14.1382597-6-20.052zm-1-3.816c.5522847 0 1 .44771525 1 1s-.4477153 1-1 1-1-.44771525-1-1 .4477153-1 1-1zm-46 0c.55228475 0 1 .44771525 1 1s-.44771525 1-1 1-1-.44771525-1-1 .44771525-1 1-1zm23 56c-12.773 0-28-4.4-28-25.364 0-17.465 12.038-30.636 28-30.636s28 13.171 28 30.636c0 20.964-15.227 25.364-28 25.364z" data-original="#000000"/><path id="Shape" fill="#000" d="m23 42c-1.2133867 0-2.3072956.7309265-2.7716386 1.8519497s-.2076757 2.4113767.6503183 3.2693706c.8579939.857994 2.1483474 1.1146613 3.2693706.6503183s1.8519497-1.5582519 1.8519497-2.7716386c0-1.6568542-1.3431458-3-3-3zm0 4c-.5522847 0-1-.4477153-1-1s.4477153-1 1-1 1 .4477153 1 1-.4477153 1-1 1z" data-original="#000000"/><path id="Shape" fill="#000" d="m23 26c-2.4995825.0045824-4.8082952 1.3375574-6.062 3.5-.5683312.9296711-.5878975 2.0944054-.0511132 3.0426413.5367844.9482359 1.5455117 1.5308662 2.6351035 1.5220082 1.0895917-.0088581 2.0887131-.6078117 2.6100097-1.5646495.2425233-.4200605.751525-.6055108 1.2074269-.4399152s.7272311.6344825.6436329 1.1122688c-.0835983.4777863-.498016.8266881-.9830598.8276464-1.6568542 0-3 1.3431458-3 3v1c-.0015133 1.3591538.9109171 2.5495221 2.2237899 2.9011844 1.3128728.3516624 2.6981461-.2232495 3.3762101-1.4011844 3.1165396-1.2456931 4.9103351-4.5281127 4.2756062-7.8238204-.634729-3.2957078-3.519333-5.6771023-6.8756062-5.6761796zm1.561 11.75c-.2878941.095201-.5170417.3158889-.623.6-.168113.4549393-.6384434.7236578-1.1157292.6374607-.4772859-.0861972-.8239102-.5024565-.8222708-.9874607v-1c0-.5522847.4477153-1 1-1 1.4556384-.0009336 2.7005654-1.0466857 2.9527216-2.4803179.2521561-1.4336323-.5612283-2.8414129-1.9291876-3.3389785-1.3679593-.4975655-2.8957143.0586764-3.623534 1.3192964-.2780058.4742136-.886647.6351286-1.3626943.3602745-.4760473-.274854-.640996-.8824145-.3693057-1.3602745 1.114312-1.9297845 3.371193-2.8892261 5.5340164-2.352612 2.1628233.5366142 3.7094771 2.4397438 3.7924937 4.6665953.0830166 2.2268516-1.3176444 4.2398565-3.4345101 4.9360167z" data-original="#000000"/><path id="Shape" fill="#000" d="m39 42c-1.6568542 0-3 1.3431458-3 3s1.3431458 3 3 3 3-1.3431458 3-3-1.3431458-3-3-3zm0 4c-.5522847 0-1-.4477153-1-1s.4477153-1 1-1 1 .4477153 1 1-.4477153 1-1 1z" data-original="#000000"/><path id="Shape" fill="#000" d="m32.938 29.5c-.5683312.9296711-.5878975 2.0944054-.0511132 3.0426413.5367844.9482359 1.5455117 1.5308662 2.6351035 1.5220082 1.0895917-.0088581 2.0887131-.6078117 2.6100097-1.5646495.2425233-.4200605.751525-.6055108 1.2074269-.4399152s.7272311.6344825.6436329 1.1122688c-.0835983.4777863-.498016.8266881-.9830598.8276464-1.6568542 0-3 1.3431458-3 3v1c-.0015133 1.3591538.9109171 2.5495221 2.2237899 2.9011844 1.3128728.3516624 2.6981461-.2232495 3.3762101-1.4011844 2.8469621-1.1377745 4.6222288-3.9957981 4.3804543-7.0521471s-2.4443209-5.5997051-5.434763-6.2757079c-2.9904422-.6760028-6.0728006.672677-7.6056913 3.327855zm11.062 3.5c.0024726 2.1607443-1.3854745 4.0777983-3.439 4.75-.2878941.095201-.5170417.3158889-.623.6-.168113.4549393-.6384434.7236578-1.1157292.6374607-.4772859-.0861972-.8239102-.5024565-.8222708-.9874607v-1c0-.5522847.4477153-1 1-1 1.4556384-.0009336 2.7005654-1.0466857 2.9527216-2.4803179.2521561-1.4336323-.5612283-2.8414129-1.9291876-3.3389785-1.3679593-.4975655-2.8957143.0586764-3.623534 1.3192964-.2780058.4742136-.886647.6351286-1.3626943.3602745-.4760473-.274854-.640996-.8824145-.3693057-1.3602745 1.1306935-1.9618155 3.4386503-2.9188846 5.6258539-2.3329428 2.1872037.5859418 3.7076173 2.5686138 3.7061461 4.8329428z" data-original="#000000"/></g></g></g></g></svg>