<svg xmlns="http://www.w3.org/2000/svg" xmlns:svgjs="http://svgjs.com/svgjs" xmlns:xlink="http://www.w3.org/1999/xlink" style="enable-background:new 0 0 512 512" width="512" height="512" x="0" y="0" version="1.1" viewBox="0 0 50 60" xml:space="preserve"><g><g xmlns="http://www.w3.org/2000/svg" id="Page-1" fill="none" fill-rule="evenodd"><g id="030---Bot-Thanks" fill-rule="nonzero" transform="translate(0 -1)"><path id="Shape" fill="#5865f2" d="m45 23.82c0 12.65-7.71 17.48-17.66 18.11l-1.56-1.95c-.1897968-.2365713-.4767035-.3742205-.78-.3742205s-.5902032.1376492-.78.3742205l-1.56 1.95c-9.95-.63-17.66-5.46-17.66-18.11 0-12.73 8.95-21.82 20-21.82s20 9.09 20 21.82z" data-original="#f5f5f5"/><path id="Shape" fill="#4751c2" d="m25 2c-.506 0-1 .039-1.5.077 10.346.784 18.5 9.596 18.5 21.743 0 11.452-6.327 16.482-14.906 17.8l.246.308c9.95-.628 17.66-5.458 17.66-18.108 0-12.73-8.95-21.82-20-21.82z" data-original="#cfd8dc"/><rect id="Rectangle-path" width="32" height="18" x="9" y="15" fill="#607d8b" data-original="#607d8b" rx="9"/><path id="Shape" fill="#37474f" d="m32 15h-3c4.9705627 0 9 4.0294373 9 9s-4.0294373 9-9 9h3c4.9705627 0 9-4.0294373 9-9s-4.0294373-9-9-9z" data-original="#37474f"/><circle id="Oval" cx="8" cy="4" r="2" fill="#57f287" data-original="#02a9f4"/><circle id="Oval" cx="42" cy="4" r="2" fill="#57f287" data-original="#02a9f4"/><circle id="Oval" cx="16" cy="23" r="2" fill="#fff" data-original="#00bcd4"/><circle id="Oval" cx="34" cy="23" r="2" fill="#fff" data-original="#00bcd4"/><path id="Shape" fill="#ffdf00" d="m49 48v8c0 2.209139-1.790861 4-4 4h-40c-2.209139 0-4-1.790861-4-4v-8c0-2.209139 1.790861-4 4-4h15.52c.304272-.0014028.5913526-.1412626.78-.38l1.36-1.69 1.56-1.95c.1897968-.2365713.4767035-.3742205.78-.3742205s.5902032.1376492.78.3742205l1.56 1.95 1.36 1.69c.1886474.2387374.475728.3785972.78.38h15.52c2.209139 0 4 1.790861 4 4z" data-original="#ffdf00"/><path id="Shape" fill="#fec108" d="m45 44h-3c2.209139 0 4 1.790861 4 4v8c0 2.209139-1.790861 4-4 4h3c2.209139 0 4-1.790861 4-4v-8c0-2.209139-1.790861-4-4-4z" data-original="#fec108"/><g fill="#000"><path id="Shape" fill="#000" d="m42 24c-.0060624-5.5203344-4.4796656-9.9939376-10-10h-14c-5.5228475 0-10 4.4771525-10 10s4.4771525 10 10 10h14c5.5203344-.0060624 9.9939376-4.4796656 10-10zm-32 0c.0049599-4.4162219 3.5837781-7.9950401 8-8h14c4.418278 0 8 3.581722 8 8s-3.581722 8-8 8h-14c-4.4162219-.0049599-7.9950401-3.5837781-8-8z" data-original="#000000"/><path id="Shape" fill="#000" d="m22 12h6c.5522847 0 1-.4477153 1-1s-.4477153-1-1-1h-6c-.5522847 0-1 .4477153-1 1s.4477153 1 1 1z" data-original="#000000"/><path id="Shape" fill="#000" d="m24 9h2c.5522847 0 1-.44771525 1-1s-.4477153-1-1-1h-2c-.5522847 0-1 .44771525-1 1s.4477153 1 1 1z" data-original="#000000"/><path id="Shape" fill="#000" d="m16 20c-1.6568542 0-3 1.3431458-3 3s1.3431458 3 3 3 3-1.3431458 3-3-1.3431458-3-3-3zm0 4c-.5522847 0-1-.4477153-1-1s.4477153-1 1-1 1 .4477153 1 1-.4477153 1-1 1z" data-original="#000000"/><path id="Shape" fill="#000" d="m37 23c0-1.2133867-.7309265-2.3072956-1.8519497-2.7716386s-2.4113767-.2076757-3.2693706.6503183c-.857994.8579939-1.1146613 2.1483474-.6503183 3.2693706s1.5582519 1.8519497 2.7716386 1.8519497c1.6568542 0 3-1.3431458 3-3zm-4 0c0-.5522847.4477153-1 1-1s1 .4477153 1 1-.4477153 1-1 1-1-.4477153-1-1z" data-original="#000000"/><path id="Shape" fill="#000" d="m27.305 27.282c-.6575823.5075968-1.4754819.7623699-2.305.718-.8276815.0432642-1.643525-.2110662-2.3-.717-.3985064-.3506401-1.0015362-.3288293-1.37367.049684-.3721338.3785132-.3836925.9818266-.02633 1.374316 1.023374.8869696 2.346923 1.3494963 3.7 1.293 1.35546.0583036 2.6818413-.4043376 3.707-1.293.3865882-.3856403.3892686-1.0110603.006-1.4-.3842883-.3901971-1.0101019-.4013089-1.408-.025z" data-original="#000000"/><path id="Shape" fill="#000" d="m5 43c-2.76005315.0033061-4.99669388 2.2399468-5 5v8c.00330612 2.7600532 2.23994685 4.9966939 5 5h40c2.7600532-.0033061 4.9966939-2.2399468 5-5v-8c-.0033061-2.7600532-2.2399468-4.9966939-5-5h-15.519l-.2-.252c10.943-1.314 16.719-7.82 16.719-18.928.0411491-4.2204365-.9911738-8.382074-3-12.094v-4.91c1.3775467-.4870363 2.2038721-1.89566623 1.9567957-3.33573306s-1.4956868-2.49269406-2.9567957-2.49269406-2.7097193 1.05262723-2.9567957 2.49269406.579249 2.84869676 1.9567957 3.33573306v1.909c-3.8760127-4.88049408-9.7676091-7.7250482-16-7.7250482s-12.1239873 2.84455412-16 7.7250482v-1.909c1.3775467-.4870363 2.2038721-1.89566623 1.9567957-3.33573306s-1.4956868-2.49269406-2.9567957-2.49269406-2.70971927 1.05262723-2.95679568 2.49269406.57924899 2.84869676 1.95679568 3.33573306v4.91c-2.00882621 3.711926-3.04114907 7.8735635-3 12.094 0 11.109 5.776 17.614 16.721 18.928l-.2.252zm37-40c.5522847 0 1 .44771525 1 1s-.4477153 1-1 1-1-.44771525-1-1 .4477153-1 1-1zm-34 0c.55228475 0 1 .44771525 1 1s-.44771525 1-1 1-1-.44771525-1-1 .44771525-1 1-1zm37 42c1.6568542 0 3 1.3431458 3 3v8c0 1.6568542-1.3431458 3-3 3h-40c-1.65685425 0-3-1.3431458-3-3v-8c0-1.6568542 1.34314575-3 3-3h15.52c.6077759.0014448 1.1828222-.275211 1.561-.751l2.919-3.649 2.919 3.648c.3779777.4761638.9530545.7532027 1.561.752zm-39-21.18c0-11.869 8.168-20.82 19-20.82s19 8.951 19 20.82c0 10.48-5.462 16.214-16.212 17.064l-1.226-1.532c-.3915255-.4548379-.9618586-.7164268-1.562-.7164268s-1.1704745.2615889-1.562.7164268l-1.226 1.532c-10.75-.85-16.212-6.584-16.212-17.064z" data-original="#000000"/><path id="Shape" fill="#000" d="m9 47h-4c-.55228475 0-1 .4477153-1 1s.44771525 1 1 1h1v7c0 .5522847.44771525 1 1 1s1-.4477153 1-1v-7h1c.55228475 0 1-.4477153 1-1s-.44771525-1-1-1z" data-original="#000000"/><path id="Shape" fill="#000" d="m16 47c-.5522847 0-1 .4477153-1 1v3h-2v-3c0-.5522847-.4477153-1-1-1s-1 .4477153-1 1v8c0 .5522847.4477153 1 1 1s1-.4477153 1-1v-3h2v3c0 .5522847.4477153 1 1 1s1-.4477153 1-1v-8c0-.5522847-.4477153-1-1-1z" data-original="#000000"/><path id="Shape" fill="#000" d="m21 47c-1.6568542 0-3 1.3431458-3 3v6c0 .5522847.4477153 1 1 1s1-.4477153 1-1v-3h2v3c0 .5522847.4477153 1 1 1s1-.4477153 1-1v-6c0-1.6568542-1.3431458-3-3-3zm-1 4v-1c0-.5522847.4477153-1 1-1s1 .4477153 1 1v1z" data-original="#000000"/><path id="Shape" fill="#000" d="m25.771 47.027c-.4515796.1062347-.7708022.5090928-.771.973v8c0 .5522847.4477153 1 1 1s1-.4477153 1-1v-3.764l2.1 4.211c.2040519.4214702.6732513.6449027 1.129074.5376645.4558226-.1072383.7761896-.5164267.770926-.9846645v-8c0-.5522847-.4477153-1-1-1s-1 .4477153-1 1v3.764l-2.1-4.211c-.207873-.4169047-.6760874-.6350454-1.129-.526z" data-original="#000000"/><path id="Shape" fill="#000" d="m33 57c.5522847 0 1-.4477153 1-1v-1.586l2.293 2.293c.3923789.3789722 1.0160848.3735524 1.4018186-.0121814s.3911536-1.0094397.0121814-1.4018186l-3.293-3.293 3.293-3.293c.3789722-.3923789.3735524-1.0160848-.0121814-1.4018186s-1.0094397-.3911536-1.4018186-.0121814l-2.293 2.293v-1.586c0-.5522847-.4477153-1-1-1s-1 .4477153-1 1v8c0 .5522847.4477153 1 1 1z" data-original="#000000"/><path id="Shape" fill="#000" d="m42 53c.4833499-.0003818.8977894.345004.9845487.8205039.0867594.4754998-.1789978.9449938-.6313367 1.115337s-.9617699-.007228-1.210212-.4218409c-.2844267-.4735841-.8989158-.6269266-1.3725-.3424999-.4735841.2844266-.6269266.8989157-.3425 1.3724999.7459995 1.2427709 2.2738613 1.7744343 3.6302054 1.2632341 1.356344-.5112001 2.1532137-1.9190447 1.8933654-3.3450438-.2598483-1.4259992-1.50209-2.462273-2.9515708-2.4621903-.4867964-.0003487-.9026169-.3511856-.984896-.8309782s.1928913-.9491267.6517576-1.1116461c.4588663-.1625193.9680948.0289997 1.2061384.4536243.1678985.3249153.4997792.532255.8654146.5406605s.7066934-.1834641.8893455-.5003207c.1826521-.3168565.1777587-.70815-.0127601-1.0203398-.7151402-1.2733921-2.2433745-1.846766-3.6196382-1.3580419-1.3762636.4887241-2.2006103 1.8975215-1.9524733 3.3367508s1.4966483 2.490646 2.9571115 2.4902911z" data-original="#000000"/></g></g></g></g></svg>