<svg xmlns="http://www.w3.org/2000/svg" xmlns:svgjs="http://svgjs.com/svgjs" xmlns:xlink="http://www.w3.org/1999/xlink" style="enable-background:new 0 0 512 512" width="512" height="512" x="0" y="0" version="1.1" viewBox="0 0 60 60" xml:space="preserve"><g><g xmlns="http://www.w3.org/2000/svg" id="Page-1" fill="none" fill-rule="evenodd"><g id="031---Bot-Time" fill-rule="nonzero" transform="translate(-1 -1)"><path id="Shape" fill="#5865f2" d="m48 26c.1022992 3.5256682-.6454208 7.0241745-2.18 10.2-4.2667386.7863695-7.7767363 3.8146028-9.18 7.92-3.7327392 1.3318355-7.6777777 1.9690067-11.64 1.88-12.7 0-23-5-23-20 0-14 10.3-24 23-24s23 10 23 24z" data-original="#f5f5f5"/><path id="Shape" fill="#4751c2" d="m25 2c-.5 0-1 .021-1.5.053 12 .753 21.5 10.503 21.5 23.947.1022992 3.5256682-.6454208 7.0241745-2.18 10.2-4.2667386.7863695-7.7767363 3.8146028-9.18 7.92-3.242587 1.1765486-6.6589344 1.8031719-10.108 1.854.486.016.974.026 1.468.026 3.9622223.0890067 7.9072608-.5481645 11.64-1.88 1.4032637-4.1053972 4.9132614-7.1336305 9.18-7.92 1.5345792-3.1758255 2.2822992-6.6743318 2.18-10.2 0-14-10.3-24-23-24z" data-original="#cfd8dc"/><rect id="Rectangle-path" width="38" height="22" x="6" y="15" fill="#ed4245" data-original="#607d8b" rx="11"/><path id="Shape" fill="#cc2629" d="m33 15h-3c6.0751322 0 11 4.9248678 11 11s-4.9248678 11-11 11h3c6.0751322 0 11-4.9248678 11-11s-4.9248678-11-11-11z" data-original="#37474f"/><circle id="Oval" cx="6" cy="4" r="2" fill="#57f287" data-original="#02a9f4"/><circle id="Oval" cx="44" cy="4" r="2" fill="#57f287" data-original="#02a9f4"/><path id="Shape" fill="#5865f2" d="m38.97 55.91c-1.4081635 2.5279533-4.076307 4.0936214-6.97 4.09h-14c-4.418278 0-8-3.581722-8-8v-2c0-2.209139 1.790861-4 4-4h22c.0568503-.001657.1137361.0016893.17.01-.6055265 3.5532939.4230993 7.1902209 2.8 9.9z" data-original="#f5f5f5"/><path id="Shape" fill="#4751c2" d="m36 48c.0006891-.66693.0575568-1.3326168.17-1.99-.0562639-.0083107-.1131497-.011657-.17-.01h-3c.0568503-.001657.1137361.0016893.17.01-.6055265 3.5532939.4230993 7.1902209 2.8 9.9-1.4081635 2.5279533-4.076307 4.0936214-6.97 4.0900063l3-.0000063c2.893693.0036214 5.5618365-1.5620467 6.97-4.09-1.9209947-2.1865497-2.9771745-4.9994728-2.97-7.91z" data-original="#cfd8dc"/><circle id="Oval" cx="14" cy="24" r="3" fill="#fff" data-original="#00bcd4"/><circle id="Oval" cx="36" cy="24" r="3" fill="#fff" data-original="#00bcd4"/><path id="Shape" fill="#9e9e9e" d="m20 46h10v5c0 2.7614237-2.2385763 5-5 5s-5-2.2385763-5-5z" data-original="#9e9e9e"/><path id="Shape" fill="#707070" d="m27 46v5c-.0055366 2.1764172-1.4223853 4.097664-3.5 4.746 1.5162558.5066858 3.1840091.247652 4.4751436-.6950748 1.2911344-.9427268 2.0457384-2.4523865 2.0248564-4.0509252v-5z" data-original="#707070"/><path id="Shape" fill="#57f287" d="m60 48c.0000001 4.2871871-2.287187 8.2487115-5.9999999 10.3923051-3.712813 2.1435936-8.2871872 2.1435936-12.0000002 0-3.7128129-2.1435936-6-6.105118-5.9999999-10.3923051.0006891-.66693.0575568-1.3326168.17-1.99.0998679-.6427802.2571642-1.2753123.47-1.89 1.8925732-5.5604172 7.531927-8.9336768 13.3262209-7.9712684 5.794294.9624084 10.0403613 5.9775959 10.0337791 11.8512684z" data-original="#02a9f4"/><path id="Shape" fill="#0dd44a" d="m48 36c-.4992811.0017137-.9979501.0351142-1.493.1 6.0119872.740748 10.5269694 5.8496312 10.5228971 11.9070796-.0040722 6.0574484-4.5259194 11.1602564-10.5388971 11.8929204 4.4393881.576571 8.8306171-1.3659125 11.3903342-5.038575s2.8622834-8.4648006.7848218-12.4302456c-2.0774617-3.9654451-6.1895037-6.4448088-10.666156-6.4311794z" data-original="#0377bc"/><circle id="Oval" cx="48" cy="48" r="2" fill="#9e9e9e" data-original="#9e9e9e"/><g fill="#000"><path id="Shape" fill="#000" d="m45 26c-.0071648-6.624447-5.375553-11.9928352-12-12h-16c-6.6274169.0000001-11.99999982 5.3725831-11.99999982 12s5.37258292 11.9999999 11.99999982 12h16c6.624447-.0071648 11.9928352-5.375553 12-12zm-38 0c.00606237-5.5203344 4.4796656-9.9939376 10-10h16c5.5228475 0 10 4.4771525 10 10s-4.4771525 10-10 10h-16c-5.5203344-.0060624-9.99393763-4.4796656-10-10z" data-original="#000000"/><path id="Shape" fill="#000" d="m22 12h6c.5522847 0 1-.4477153 1-1s-.4477153-1-1-1h-6c-.5522847 0-1 .4477153-1 1s.4477153 1 1 1z" data-original="#000000"/><path id="Shape" fill="#000" d="m24 9h2c.5522847 0 1-.44771525 1-1s-.4477153-1-1-1h-2c-.5522847 0-1 .44771525-1 1s.4477153 1 1 1z" data-original="#000000"/><path id="Shape" fill="#000" d="m14 20c-2.209139 0-4 1.790861-4 4s1.790861 4 4 4 4-1.790861 4-4-1.790861-4-4-4zm0 6c-1.1045695 0-2-.8954305-2-2s.8954305-2 2-2 2 .8954305 2 2-.8954305 2-2 2z" data-original="#000000"/><path id="Shape" fill="#000" d="m36 28c2.209139 0 4-1.790861 4-4s-1.790861-4-4-4-4 1.790861-4 4 1.790861 4 4 4zm0-6c1.1045695 0 2 .8954305 2 2s-.8954305 2-2 2-2-.8954305-2-2 .8954305-2 2-2z" data-original="#000000"/><path id="Shape" fill="#000" d="m28.167 29.446c-.7353233 1.0079518-1.9198312 1.5891723-3.167 1.554-.9470945.0110609-1.8677518-.3122315-2.6-.913-.2128134-.1873792-.4012843-.4007109-.561-.635-.1964961-.2986741-.5374066-.4698308-.894314-.4489973-.3569073.0208336-.6755887.2304924-.836.55-.1604113.3195077-.1381821.7003233.058314.9989973.2585252.3861383.5664734.7367824.916 1.043 1.0974483.9185264 2.485934 1.4165663 3.917 1.405 1.9189266.0453028 3.7331597-.8728876 4.833-2.446.1979251-.2976022.2220466-.6781899.0632781-.9983992s-.4763064-.5313929-.833-.554c-.3566937-.0226071-.698353.146797-.8962781.4443992z" data-original="#000000"/><circle id="Oval" cx="25" cy="51" r="1" fill="#000" data-original="#000000"/><path id="Shape" fill="#000" d="m48 35c-.19 0-.375.02-.563.029 1.085267-2.8842954 1.6155754-5.947734 1.563-9.029.0531633-5.0167237-1.3351719-9.9432313-4-14.194v-4.99c1.3775467-.4870363 2.2038721-1.89566623 1.9567957-3.33573306s-1.4956868-2.49269406-2.9567957-2.49269406-2.7097193 1.05262723-2.9567957 2.49269406.579249 2.84869676 1.9567957 3.33573306v2.3c-4.5084222-5.22891869-11.0963403-8.19933777-18-8.116-6.9038212-.08308784-13.4917663 2.8877094-18 8.117v-2.3c1.37754669-.4870363 2.20387209-1.89566623 1.95679568-3.33573306s-1.49568678-2.49269406-2.95679568-2.49269406-2.70971927 1.05262723-2.95679568 2.49269406.57924899 2.84869676 1.95679568 3.33573306v4.99c-2.66464364 4.2504815-4.0529714 9.1766155-4 14.193 0 9.673 4.131 16.119 12.046 19.1-2.3451243.4586198-4.03935896 2.5104611-4.046 4.9v2c.00606096 4.9680501 4.0319499 8.993939 9 9h14c2.7951099-.0018556 5.4301583-1.3044101 7.129-3.524 4.2546467 3.9834648 10.6414573 4.646023 15.6231824 1.6207255 4.9817252-3.0252975 7.3390786-8.9980036 5.7664718-14.6102151-1.5726069-5.6122115-6.6902757-9.4903295-12.5186542-9.4865104zm-4-32c.5522847 0 1 .44771525 1 1s-.4477153 1-1 1-1-.44771525-1-1 .4477153-1 1-1zm-38 0c.55228475 0 1 .44771525 1 1s-.44771525 1-1 1-1-.44771525-1-1 .44771525-1 1-1zm-3 23c0-13.112 9.458-23 22-23s22 9.888 22 23c.0808119 3.2114265-.5599235 6.4000676-1.875 9.331-4.217788.9669108-7.680565 3.9643374-9.242 8-3.5037631 1.1818736-7.1860877 1.7465892-10.883 1.669-14.6 0-22-6.393-22-19zm26 21v4c0 2.209139-1.790861 4-4 4s-4-1.790861-4-4v-4zm3 12h-14c-3.8641657-.0044086-6.9955914-3.1358343-7-7v-2c0-1.6568542 1.3431458-3 3-3h5v4c0 3.3137085 2.6862915 6 6 6s6-2.6862915 6-6v-4h4.051c-.026.331-.051.662-.051 1 .0004798 2.8864945.9671716 5.68976 2.746 7.963-1.2978546 1.8973445-3.447233 3.0333804-5.746 3.037zm17-.051v-.949c0-.5522847-.4477153-1-1-1s-1 .4477153-1 1v.949c-5.2791871-.4883702-9.4606298-4.6698129-9.949-9.949h.949c.5522847 0 1-.4477153 1-1s-.4477153-1-1-1h-.949c.4883702-5.2791871 4.6698129-9.4606298 9.949-9.949v.949c0 .5522847.4477153 1 1 1s1-.4477153 1-1v-.949c5.2791871.4883702 9.4606298 4.6698129 9.949 9.949h-.949c-.5522847 0-1 .4477153-1 1s.4477153 1 1 1h.949c-.4883702 5.2791871-4.6698129 9.4606298-9.949 9.949z" data-original="#000000"/><path id="Shape" fill="#000" d="m50.7 49.285c.1957114-.4001981.2982753-.8395132.3-1.285-.0052514-1.2667854-.8056491-2.3937454-2-2.816v-3.184c0-.5522847-.4477153-1-1-1s-1 .4477153-1 1v3.184c-1.3765475.4848523-2.2026937 1.8918441-1.9553873 3.330178s1.49595 2.4885874 2.9553873 2.485822c.4454868-.0017247.8848019-.1042886 1.285-.3l2.008 2.008c.3923789.3789722 1.0160848.3735524 1.4018186-.0121814s.3911536-1.0094397.0121814-1.4018186zm-3.7-1.285c-.0000658-.4514101.302301-.8468966.7379343-.9651957.4356334-.1182991.8965102.0699236 1.1247825.4593627.2282724.3894391.167336.8835262-.1487168 1.205833h-.014l-.007.011c-.2876964.2765853-.7122999.3556307-1.0802536.2011032s-.6087992-.5130379-.6127464-.9121032z" data-original="#000000"/></g></g></g></g></svg>