<svg xmlns="http://www.w3.org/2000/svg" xmlns:svgjs="http://svgjs.com/svgjs" xmlns:xlink="http://www.w3.org/1999/xlink" style="enable-background:new 0 0 512 512" width="512" height="512" x="0" y="0" version="1.1" viewBox="0 0 512 512" xml:space="preserve"><g><linearGradient xmlns="http://www.w3.org/2000/svg" id="a" x1="0" x2="512" y1="-11338" y2="-11338" gradientTransform="matrix(1 0 0 -1 0 -11082)" gradientUnits="userSpaceOnUse"><stop offset=".29" stop-color="#EB459E" stop-opacity="1"/><stop offset=".665" stop-color="#5865F2" stop-opacity="1"/></linearGradient><path xmlns="http://www.w3.org/2000/svg" fill="url(#a)" d="m512 256c0 141.386719-114.613281 256-256 256s-256-114.613281-256-256 114.613281-256 256-256 256 114.613281 256 256zm0 0" data-original="url(#a)"/><g xmlns="http://www.w3.org/2000/svg" fill="#fff"><path fill="#fff" d="m256 456c-110.28125 0-200-89.71875-200-200s89.71875-200 200-200 200 89.71875 200 200-89.71875 200-200 200zm0-370c-93.738281 0-170 76.261719-170 170s76.261719 170 170 170 170-76.261719 170-170-76.261719-170-170-170zm0 0" data-original="#ffffff"/><path fill="#fff" d="m223.613281 379.339844c-5.242187 0-10.519531-1.585938-15.199219-4.796875-10.328124-7.085938-14.3125-19.730469-9.914062-31.457031l20.449219-54.972657h-21.316407c-8.777343 0-16.996093-4.304687-21.996093-11.515625-4.996094-7.210937-6.140625-16.421875-3.0625-24.636718l38.214843-101.90625c3.894532-10.386719 13.964844-17.363282 25.058594-17.363282h61.109375c8.773438 0 16.996094 4.304688 21.992188 11.515625 5 7.210938 6.144531 16.421875 3.0625 24.636719l-22.792969 60.789062h15.136719c11.210937 0 21.027343 6.769532 25.011719 17.25 3.890624 10.234376 1.273437 21.523438-6.660157 28.980469l-90.4375 95.707031c-.296875.316407-.609375.621094-.9375.910157-5.117187 4.550781-11.394531 6.859375-17.71875 6.859375zm7.753907-18.070313h.011718zm-4.757813-7.695312-.003906.007812c0-.003906 0-.003906.003906-.007812zm-24.300781-95.460938h38.226562c4.910156 0 9.511719 2.40625 12.316406 6.441407 2.804688 4.035156 3.453126 9.183593 1.742188 13.789062l-22.398438 60.210938 74.574219-78.921876h-29.195312c-4.921875 0-9.527344-2.414062-12.332031-6.457031-2.800782-4.042969-3.441407-9.203125-1.714844-13.808593l28.753906-76.675782h-54.1875zm0 0" data-original="#ffffff"/></g></g></svg>