<svg xmlns="http://www.w3.org/2000/svg" xmlns:xlink="http://www.w3.org/1999/xlink" width="320" height="180"><style><![CDATA[.B{fill:#72767d}.C{fill:#b9bbbe}.D{fill:#4f545c}.E{fill:#202225}.F{fill:#18191c}]]></style><defs><linearGradient id="A" x1="160" y1="0" x2="160" y2="180" gradientUnits="userSpaceOnUse"><stop stop-color="#202225" stop-opacity=".5"/><stop offset="1" stop-color="#202225"/></linearGradient><path id="B" d="M307.99 24.28c-1.276 0-2.61 1.322-2.977 2.95s.367 2.952 1.644 2.952 2.61-1.32 2.978-2.952-.367-2.95-1.645-2.95zm-4.503 7.318c-1.292 0-2.645 1.39-3.016 3.104s.373 3.104 1.666 3.104 2.646-1.39 3.018-3.104-.373-3.104-1.667-3.104zm-5.096 7.807c-1.228 0-2.5 1.348-2.864 3.012s.354 3.012 1.58 3.012 2.51-1.348 2.866-3.012-.354-3.012-1.582-3.012z"/><path id="C" d="M324.215 153.374c0 2.67-2.164 4.833-4.833 4.833s-4.833-2.164-4.833-4.833 2.164-4.833 4.833-4.833 4.833 2.164 4.833 4.833z"/><path id="D" d="M321.454 153.374a2.07 2.07 0 1 1-4.143 0 2.07 2.07 0 1 1 4.143 0z"/><path id="E" d="M270.3 111.673c0 2.674-2.168 4.842-4.842 4.842s-4.842-2.168-4.842-4.842 2.168-4.842 4.842-4.842 4.842 2.168 4.842 4.842z"/></defs><path d="M0 0h320v180H0z" fill="#fff" fill-opacity="0" pointer-events="none"/><path d="M-6.883-2.003H325.98v187.236H-6.883V-2.003z" fill="#2f3136"/><path d="M270.735 16.23v.2c0-.06.016-.123.022-.184l-.022-.016zm19.026 16.3c-.214-.098-.42-.212-.603-.36l-17.596-14.12c-.552-.446-.827-1.033-.827-1.622v17.9c0 3 1.6 3.635 1.6 3.635l16.94 13.317c.3.236.552.38.773.465-.167-.255-.285-.55-.285-.884V32.53zm-12.84.53c-1.455 0-2.975-1.474-3.394-3.293s.42-3.3 1.873-3.3 2.975 1.474 3.394 3.3-.42 3.293-1.873 3.293zm8.17 10.977c-1.455 0-2.975-1.475-3.394-3.293s.42-3.293 1.875-3.293 2.975 1.474 3.394 3.293-.42 3.293-1.875 3.293zm25.796-26.107l-17.715 14.24a2.32 2.32 0 0 1-.484.3v18.395c0 .34-.12.64-.293.9.227-.085.5-.234.802-.48l16.96-13.317s1.557-.647 1.557-3.635V16.307c0 .588-.275 1.175-.827 1.622zm-10.914 24.486c-.354 1.664-1.638 3.012-2.866 3.012s-1.935-1.348-1.58-3.012 1.636-3.012 2.864-3.012 1.935 1.348 1.582 3.012zm5.178-7.714c-.372 1.715-1.724 3.104-3.018 3.104s-2.037-1.4-1.666-3.104 1.726-3.104 3.016-3.104 2.04 1.4 1.667 3.104zm4.483-7.47c-.367 1.632-1.702 2.952-2.978 2.952s-2.012-1.32-1.644-2.952 1.7-2.95 2.977-2.95 2.014 1.322 1.645 2.95zm2.07-10.993c.001.023.01.047.01.07v-.078l-.01.007z" class="B"/><path fill="#5b5e64" d="M310.887 14.685L293.11.862c-1.102-.893-2.9-.893-4.013 0l-17.536 13.946c-.495.4-.754.913-.806 1.44-.004.06-.02.12-.02.183 0 .588.275 1.175.827 1.622l17.596 14.117c.183.148.388.26.603.36v18.345c0 .335.12.63.284.884.265.4.682.694 1.18.694.492 0 .906-.278 1.17-.68.17-.258.293-.556.293-.9V32.48c.17-.088.335-.19.484-.3l17.715-14.24c.552-.446.827-1.033.827-1.622 0-.023-.007-.047-.01-.072-.02-.563-.3-1.123-.818-1.55zm-18.93-1.87c2.356 0 4.268 1.528 4.268 3.414s-1.91 3.414-4.268 3.414-4.268-1.528-4.268-3.414 1.9-3.414 4.268-3.414z"/><g class="C"><path d="M296.224 16.23c0 .906-.45 1.774-1.25 2.414s-1.886 1-3.018 1-2.217-.36-3.018-1-1.25-1.51-1.25-2.414.45-1.774 1.25-2.414 1.886-1 3.018-1 2.217.36 3.018 1 1.25 1.51 1.25 2.414z"/><use xlink:href="#B"/><path d="M275.4 26.476c-1.455 0-2.293 1.474-1.873 3.29s1.94 3.293 3.394 3.293 2.293-1.474 1.873-3.293-1.94-3.29-3.394-3.29zm8.17 10.975c-1.455 0-2.293 1.474-1.875 3.293s1.94 3.293 3.395 3.293 2.293-1.475 1.875-3.293-1.94-3.293-3.395-3.293z"/></g><path d="M90.045-11.083L46.93-6.107c-1.894.22-3.444 1.958-3.444 3.866v36.12a15.27 15.27 0 0 0-5.77-1.125c-7.433 0-13.462 5.164-13.462 11.54s6.03 11.54 13.462 11.54 13.462-5.166 13.462-11.54V8.8l34.617-3.994v25.24c-1.75-.715-3.702-1.127-5.77-1.127-7.433 0-13.462 5.164-13.462 11.54s6.03 11.54 13.462 11.54S93.5 46.82 93.5 40.447V-8.01c0-1.908-1.55-3.29-3.444-3.07z" class="D"/><path fill="#040505" d="M285.132 129.746a1.38 1.38 0 1 0 1.953 1.953l12.693-12.693a1.38 1.38 0 1 0-1.953-1.953l-12.693 12.693z"/><path d="M331.12 156.826c0 5.524-5.524 5.524-5.524 5.524H286.93s-5.524 0-5.524-5.524V131.97s0-5.524 5.524-5.524h38.665c5.524 0 5.524 5.524 5.524 5.524v24.856z" class="B"/><path fill="#040405" d="M302.896 116.865a1.38 1.38 0 0 1-1.953 0l-.976-.976a1.38 1.38 0 1 1 1.953-1.953l.976.976a1.38 1.38 0 0 1 0 1.953z"/><g class="F"><path d="M326.977 138.184c0 4.195-3.4 7.595-7.595 7.595s-7.595-3.4-7.595-7.595 3.4-7.595 7.595-7.595 7.595 3.4 7.595 7.595z"/><use xlink:href="#C"/></g><g class="D"><use xlink:href="#C" y="-15.19"/><use xlink:href="#D"/><use xlink:href="#D" x="-23.476" y="-5.524"/><use xlink:href="#D" x="-30.38" y="-5.524"/><use xlink:href="#D" x="-23.476" y="-12.428"/><use xlink:href="#D" x="-16.571" y="-12.428"/><use xlink:href="#D" x="-16.571" y="-5.524"/><use xlink:href="#D" x="-16.571" y="1.381"/><use xlink:href="#D" x="-30.38" y="1.381"/><use xlink:href="#D" x="-30.38" y="-12.428"/><use xlink:href="#D" x="-23.476" y="-19.332"/><use xlink:href="#D" x="-16.571" y="-19.332"/><use xlink:href="#D" x="-30.38" y="-19.332"/><use xlink:href="#D" x="-23.476" y="1.381"/></g><path fill="#141517" d="M109.54 83.653c-14.96-6.41-32.055-6.41-32.055-6.41s-17.096 0-32.055 6.41c-6.41 32.055 0 59.836 32.055 70.52 32.055-10.685 38.466-38.466 32.055-70.52z"/><path d="M77.486 149.652c-24.764-8.88-34.275-30.03-28.294-62.913 13.47-5.16 28.14-5.223 28.294-5.223s14.87.085 28.294 5.223c5.98 32.882-3.53 54.034-28.294 62.913z" class="B"/><path d="M105.78 86.738c-13.425-5.137-28.142-5.223-28.294-5.223v68.136c24.764-8.88 34.275-30.03 28.294-62.913z" class="D"/><path d="M249.18 104.2l8.803-8.803L217.49 54.89h-8.803v8.803z" class="C"/><g class="B"><path d="M208.686 54.89v8.803L249.18 104.2l4.402-4.402z"/><path d="M265.774 110.895c.5-.5.806-1.102.935-1.704l-9.23-10.907-1.234-1.236c-.993-.993-2.764-.833-3.958.36l-1.08 1.078c-1.192 1.192-1.352 2.963-.36 3.956l1.305 1.305 10.828 9.164c.607-.127 1.21-.435 1.715-.937l1.08-1.08z"/></g><path d="M265.774 110.895c.5-.5.806-1.102.935-1.704l-2.363-2.792-1.298 6.486a3.4 3.4 0 0 0 1.646-.912l1.08-1.078zm-5.828-9.694l-1.563 7.82 2.218 1.877 1.444-7.22zm-2.467-2.917l-1.234-1.236c-.17-.17-.366-.292-.574-.394l-1.722 8.613 2.218 1.877 1.685-8.42-.373-.438zm-4.227-1.563c-.343.167-.673.396-.965.7l-1.08 1.076c-.447.447-.748.975-.9 1.514-.25.898-.08 1.822.54 2.442l1.05 1.05 1.356-6.772z" class="E"/><use xlink:href="#E" class="F"/><path d="M259.087 92.436a1.82 1.82 0 0 1 0 2.574l-10.726 10.726a1.82 1.82 0 1 1-2.574-2.574l10.726-10.726a1.82 1.82 0 0 1 2.574 0zm7.53 12.356a1.34 1.34 0 0 1 0 1.898l-6.12 6.118a1.342 1.342 0 1 1-1.898-1.898l6.12-6.118a1.34 1.34 0 0 1 1.898 0z" class="D"/><path d="M228.053 104.2l-8.803-8.803 40.495-40.495h8.803v8.803z" class="C"/><g class="B"><path d="M268.55 54.89v8.803L228.053 104.2l-4.402-4.402z"/><path d="M211.46 110.895c-.5-.5-.806-1.102-.935-1.704l9.23-10.907L221 97.047c.993-.993 2.764-.833 3.958.36l1.08 1.078c1.192 1.192 1.352 2.963.36 3.956l-1.305 1.305-10.828 9.164c-.607-.127-1.21-.435-1.715-.937l-1.078-1.08z"/></g><path d="M211.46 110.895c-.5-.5-.806-1.102-.935-1.704l2.363-2.792 1.298 6.486a3.4 3.4 0 0 1-1.646-.912l-1.08-1.078zm5.828-9.694l1.563 7.82-2.218 1.877-1.444-7.22zm2.467-2.917L221 97.047c.17-.17.366-.292.574-.394l1.722 8.613-2.218 1.877-1.685-8.42.373-.438zm4.227-1.563c.343.167.673.396.965.7l1.08 1.078c.447.447.748.975.9 1.514.25.898.08 1.822-.54 2.442l-1.05 1.05-1.354-6.773z" class="E"/><use xlink:href="#E" x="-53.69" class="F"/><path d="M218.148 92.436a1.82 1.82 0 0 0 0 2.574l10.726 10.726a1.82 1.82 0 1 0 2.574-2.574l-10.726-10.726a1.82 1.82 0 0 0-2.574 0zm-7.53 12.356a1.34 1.34 0 0 0 0 1.898l6.12 6.118a1.342 1.342 0 1 0 1.898-1.898l-6.12-6.118a1.34 1.34 0 0 0-1.898 0zM91.44 171.064l-43.114 4.975c-1.894.22-3.444 1.958-3.444 3.866v36.12a15.27 15.27 0 0 0-5.77-1.125c-7.433 0-13.462 5.164-13.462 11.54s6.03 11.54 13.462 11.54 13.462-5.166 13.462-11.54v-35.504L87.2 186.94v25.24a15.24 15.24 0 0 0-5.77-1.127c-7.433 0-13.462 5.164-13.462 11.54s6.03 11.54 13.462 11.54 13.462-5.166 13.462-11.54v-48.458a3.02 3.02 0 0 0-3.444-3.07z" class="D"/><path d="M10.54 154.92c0 5.513-5.513 5.513-5.513 5.513h-38.592s-5.513 0-5.513-5.513v-24.81s0-5.513 5.513-5.513H5.027c5.513 0 5.513 5.513 5.513 5.513v24.81z" class="B"/><path d="M6.406 136.313a7.58 7.58 0 1 1-15.16 0 7.58 7.58 0 1 1 15.16 0zm-2.756 15.16c0 2.664-2.16 4.824-4.824 4.824S-6 154.138-6 151.474s2.16-4.824 4.824-4.824 4.824 2.16 4.824 4.824z" class="F"/><path d="M3.65 136.313c0 2.664-2.16 4.824-4.824 4.824S-6 138.977-6 136.313s2.16-4.824 4.824-4.824 4.824 2.16 4.824 4.824zm-2.758 15.16a2.07 2.07 0 0 1-2.067 2.067 2.07 2.07 0 0 1-2.067-2.067 2.07 2.07 0 0 1 2.067-2.067 2.07 2.07 0 0 1 2.067 2.067z" class="D"/><path d="M4.603 17.892l-17.715 14.24c-.15.12-.313.222-.484.3v18.395c0 .34-.12.64-.293.9.227-.085.5-.234.802-.48L3.873 37.94s1.557-.647 1.557-3.635V16.27c0 .588-.275 1.175-.827 1.622zM-6.31 42.378c-.354 1.664-1.638 3.012-2.866 3.012s-1.935-1.348-1.58-3.012 1.636-3.012 2.864-3.012 1.935 1.348 1.582 3.012zm5.178-7.714c-.372 1.715-1.724 3.104-3.018 3.104s-2.037-1.39-1.666-3.104S-4.1 31.56-2.8 31.56s2.04 1.39 1.667 3.104zm4.483-7.47c-.367 1.632-1.702 2.952-2.978 2.952s-2.012-1.32-1.644-2.952 1.7-2.95 2.977-2.95 2.014 1.322 1.645 2.95zM5.42 16.2c.001.023.01.047.01.07v-.078l-.01.007z" class="B"/><path fill="#5b5e64" d="M4.603 14.648L-13.173.825c-1.102-.893-2.9-.893-4.013 0L-34.722 14.77c-.495.4-.754.913-.806 1.44-.004.06-.02.12-.02.183 0 .588.275 1.175.827 1.622l17.596 14.117c.183.148.388.26.603.36v18.345c0 .335.12.63.284.884.265.4.682.694 1.18.694.492 0 .906-.278 1.17-.68.17-.258.293-.556.293-.9V32.442c.17-.088.335-.19.484-.3l17.715-14.24c.552-.446.827-1.033.827-1.622 0-.023-.007-.047-.01-.072-.02-.563-.3-1.123-.818-1.55zm-18.93-1.87c2.356 0 4.268 1.528 4.268 3.414s-1.91 3.414-4.268 3.414-4.268-1.528-4.268-3.414 1.9-3.414 4.268-3.414z"/><use xlink:href="#B" x="-306.285" y="-0.038" class="C"/><g class="E"><path d="M61.753 99.37c-.85-.85-.85-2.226 0-3.075l1.537-1.537c.848-.848 2.225-.848 3.074 0s.85 2.226 0 3.075l-1.537 1.537c-.85.85-2.226.85-3.074 0z"/><path d="M89.766 127.222c1.267 1.267 3.285 1.327 4.48.132s1.136-3.212-.132-4.48l-25.29-25.3c-1.27-1.27-3.285-1.328-4.48-.132s-1.137 3.212.132 4.48l25.29 25.3z"/></g><path d="M62.52 107.826c.848.848 2.225.848 3.074 0l9.224-9.224c.85-.85.85-2.226 0-3.075l-3.844-3.843c-.848-.85-2.225-.85-3.074 0l-9.224 9.222c-.85.85-.85 2.225 0 3.074l3.844 3.845z" class="C"/><g class="E"><path d="M93.462 99.37c.85-.85.85-2.226 0-3.075l-1.537-1.537c-.848-.848-2.225-.848-3.074 0s-.85 2.226 0 3.075l1.537 1.537c.85.85 2.226.85 3.074 0z"/><path d="M65.448 127.222c-1.267 1.267-3.284 1.327-4.48.132s-1.136-3.212.132-4.48l25.3-25.3c1.27-1.27 3.284-1.327 4.48-.132s1.137 3.212-.132 4.48l-25.3 25.3z"/></g><path d="M96.945 105.64c-.274-1.92-.408-4.733-3.483-7.807l-.77-.77-5.38-5.38c-.85-.85-2.226-.85-3.074 0l-3.844 3.844c-.85.85-.85 2.225 0 3.075l10.76 10.76c1.116 1.116 3.602 3.604 5.13 2.077.84-.84 1.045-3.11.66-5.8z" class="C"/><path d="M185 15.678h-41.873c-4.204 0-7.613 3.41-7.613 7.613v45.68h-3.807c-4.204 0-7.613 3.41-7.613 7.613s3.41 7.613 7.613 7.613h45.68c4.204 0 7.613-3.41 7.613-7.613v-45.68c4.204 0 7.613-3.41 7.613-7.613s-3.41-7.613-7.613-7.613z" class="D"/><path d="M139.33 34.71H185v-3.807h-41.873L139.33 29z" class="E"/><path d="M143.137 15.678c-4.204 0-7.613 3.41-7.613 7.613v46.736c-1.123-.655-2.413-1.056-3.807-1.056-4.204 0-7.613 3.41-7.613 7.613s3.41 7.613 7.613 7.613 7.613-3.41 7.613-7.613V29.848c1.123.655 2.413 1.056 3.807 1.056 4.204 0 7.613-3.41 7.613-7.613s-3.41-7.613-7.613-7.613z" class="B"/><path d="M146.944 23.29a3.81 3.81 0 0 1-3.807 3.807 3.81 3.81 0 0 1-3.807-3.807 3.81 3.81 0 0 1 3.807-3.807 3.81 3.81 0 0 1 3.807 3.807m-11.42 53.293a3.81 3.81 0 0 1-3.807 3.807 3.81 3.81 0 0 1-3.807-3.807 3.81 3.81 0 0 1 3.807-3.807 3.81 3.81 0 0 1 3.807 3.807m45.68-32.357c0 1.05-.85 1.903-1.903 1.903h-34.26c-1.05 0-1.903-.853-1.903-1.903s.853-1.903 1.903-1.903h34.26c1.053 0 1.903.853 1.903 1.903m0 7.613a1.9 1.9 0 0 1-1.903 1.903h-34.26c-1.05 0-1.903-.85-1.903-1.903s.853-1.903 1.903-1.903h34.26a1.9 1.9 0 0 1 1.903 1.903m0 7.613a1.9 1.9 0 0 1-1.903 1.903h-34.26c-1.05 0-1.903-.85-1.903-1.903s.853-1.903 1.903-1.903h34.26a1.9 1.9 0 0 1 1.903 1.903m0 7.613a1.9 1.9 0 0 1-1.903 1.903h-34.26c-1.05 0-1.903-.85-1.903-1.903s.853-1.903 1.903-1.903h34.26a1.9 1.9 0 0 1 1.903 1.903" class="C"/><path d="M191.807 135.543c-9.91-9.91-26.572-11.718-35.736-2.552s-7.36 25.825 2.552 35.736c6.415 6.415 14.05 7.803 21.13 5.52l-.027.023.235-.094a24.82 24.82 0 0 0 1.422-.513 44.13 44.13 0 0 1 5.31-1.455c3.336-.686 6.39 2.9 8.943 5.453s7.657 10.21 8.933 11.487 2.552 0 3.83-1.276l2.552-2.552c1.276-1.278 2.552-2.554 1.276-3.83s-8.934-6.38-11.487-8.933-6.137-5.608-5.453-8.943c.357-1.742.796-3.276 1.18-4.478 3.563-7.62 2.774-16.158-4.66-23.592z" class="E"/><path d="M178.194 174.68l1.56-.435-.027.023.235-.094 1.422-.513a44.13 44.13 0 0 1 5.31-1.455c3.336-.686 6.39 2.9 8.943 5.453s7.657 10.21 8.933 11.487 2.552 0 3.83-1.276l2.552-2.552c1.276-1.278 2.552-2.554 1.276-3.83s-8.934-6.38-11.487-8.933-6.137-5.608-5.453-8.943c.357-1.742.796-3.276 1.18-4.478.644-1.38 1.143-2.785 1.487-4.213l-19.76 19.76z" class="D"/><path d="M213.275 136.498a6.32 6.32 0 0 1-6.317 6.317 6.32 6.32 0 0 1-6.317-6.317 6.32 6.32 0 0 1 6.317-6.317 6.32 6.32 0 0 1 6.317 6.317z" class="C"/><path d="M0 0h320v180H0V0z" fill="url(#A)" transform="matrix(1.013772 0 0 1.013772 -2.024915 -2.635346)"/></svg>