<svg width="3000" height="1000" viewBox="0 0 3000 1000" fill="none" xmlns="http://www.w3.org/2000/svg">
<g clip-path="url(#clip0)">
<path opacity="0.31" d="M2951.9 489.3C2857.3 467.1 2769.9 517.8 2723.6 588.9L2687.6 529.6L2697.7 478.6C2569.4 430.2 2459.6 466.6 2417.4 535.9C2488.5 552.1 2519 593.7 2530.1 622.2C2426.4 574.2 2319.7 583.6 2242.6 631.3C2197.8 663.8 2182.4 691.9 2172.7 716.1C2124.2 674.1 1953.7 652.9 1860.5 760.9C1841.7 735.1 1785.9 704.6 1746.6 717.2C1780.8 683.1 1831.5 677.1 1879.3 694.8C1901.6 633.7 1969.2 616.3 2030 632.4C2055.9 565.6 2128.3 569 2150.3 597.1C2143.1 521.6 2180 475.6 2225.8 447.2C2283.6 411.3 2363.4 443.9 2390.8 476.9C2378.5 432.6 2352.4 420.3 2330.6 411.6C2324.2 361.3 2279.4 338.4 2242.6 336.9C2210.3 286.8 2147.1 286.8 2109.5 317.6C2043.3 255.2 1953 279.5 1918.6 341.5C1964 338.3 1991.2 354.2 2003.5 368.6C1902.5 359 1854.1 401.2 1847.7 449.8C1806.2 437 1751.3 443.5 1727.4 482.5C1661 403.2 1504.7 393 1437.6 539.9C1437.6 539.9 1353.2 450 1198.8 475.3C1248.5 492.6 1275.5 525.5 1288.7 566.5C1257.2 538 1100.6 510.9 1026.7 628C1014.7 613.3 998.2 601.8 980.5 593.9C962.8 586 943.6 581.9 926.2 581.9C900.5 581.9 881 586.8 868.6 591.3C865.608 583.85 862.202 576.572 858.4 569.5C841.359 537.951 816.154 511.561 785.421 493.089C754.688 474.618 719.556 464.744 683.7 464.5H682.3C652.149 464.465 622.384 471.269 595.242 484.398C568.1 497.527 544.289 516.64 525.6 540.3C483.6 473.9 421.4 417.6 292.5 412C287.3 357 230.6 337.3 179 353.5C173.1 324 164.2 307.8 118.5 280.3C118.5 280.3 167.9 279 195.2 290.1C195.2 290.1 196.7 231.9 258.6 217.1C320.5 202.3 353.7 254.7 349.1 281.7C349.1 281.7 385.8 272.3 414 291.1C376.2 292.3 332.6 304.2 298.7 338.1C459.3 302 524.8 405.5 541.4 429.8C614.9 396.1 683.1 409.7 720.4 431.7C765.6 396.2 830.5 386.7 884.6 401.9C824.8 334.1 701.8 304 618.8 357.3C617.1 339.6 606.2 321.3 590 307.9C578.403 298.18 564.483 291.633 549.6 288.9C554.5 258 524.4 240.6 507.8 239.2C507.777 223.984 512.726 209.178 521.895 197.034C531.063 184.891 543.949 176.077 558.589 171.932C573.23 167.788 588.823 168.541 602.996 174.078C617.169 179.614 629.145 189.63 637.1 202.6C687.3 210 737.3 238.4 762 295.8C797.9 242.3 869 213.6 915.5 238.1C960.5 201.4 1028.8 186.7 1101.7 212.8C1088.4 212.8 1041.7 231.9 1024.6 278.6C1071.4 263.9 1140.3 278.6 1174.9 313.9C1120 306.1 998.2 323.3 912.9 412.7C930 421.2 945 432.6 956.8 447C1006.1 446.1 1063.8 467.5 1101.5 508.8C1122.2 445.9 1181.7 424 1225.6 431.3C1213.8 378.5 1280.7 329.4 1325.4 357.3C1397.9 287.1 1491.7 301.8 1539.2 349.3C1643.6 276 1738.2 299.2 1794.7 384.5C1815 351.7 1846.9 354.8 1861.2 360.1C1858.1 253.1 1938.4 196 2012.4 193.8C1956.6 136.7 1807 143.6 1788.3 256C1752.8 221.8 1666.5 192.7 1598.1 246.6C1614.3 159.5 1566 128.2 1524.9 110.9C1625.1 94.9 1713.1 126.4 1748.2 155.8C1821.5 46.6 1922.2 11.1 2045.5 81.6C2049.5 80 2053.6 78.7 2057.8 77.4C2153.7 49.7 2304.3 109.6 2296.9 274.4C2353.9 261.8 2417.5 291.5 2447.9 353.8C2485.4 328.6 2629.4 308.6 2707.6 428.3C2815.1 369.6 2896.6 400.9 2951.9 489.3Z" fill="url(#paint0_linear)"/>
<path d="M241.8 948.4H43.2002V999.99H241.8V948.4Z" fill="#3F61C4"/>
<path d="M594.401 925.4H215.101V1000.02H594.401V925.4Z" fill="#1B366E"/>
<path d="M2969.3 948.6L2974.5 972.6L2991 1000H2793.4V918.5L2969.3 948.6Z" fill="#2D51BD"/>
<path d="M2706.5 935H2198.6V1000.02H2706.5V935Z" fill="#254087"/>
<path d="M1762.3 943.1H1562.5V1000.02H1762.3V943.1Z" fill="#2A4B9C"/>
<path d="M1575.2 943.1H1338.3V1000.02H1575.2V943.1Z" fill="#254087"/>
<path d="M1229.5 944.6H1176.8V1000.05H1229.5V944.6Z" fill="#254087"/>
<path opacity="0.5" d="M1105.2 854.1C1105.22 831.171 1096.54 809.09 1080.91 792.307C1065.29 775.524 1043.89 765.29 1021.02 763.666C998.145 762.042 975.509 769.151 957.672 783.558C939.835 797.965 928.124 818.599 924.9 841.3C920.066 833.03 913.309 826.048 905.202 820.944C897.096 815.841 887.879 812.766 878.332 811.981C868.785 811.196 859.189 812.724 850.358 816.435C841.527 820.146 833.721 825.931 827.6 833.3C823.51 822.597 816.887 813.044 808.297 805.46C799.708 797.876 789.408 792.487 778.281 789.755C767.153 787.022 755.529 787.027 744.403 789.769C733.278 792.511 722.983 797.909 714.4 805.5C712.346 793.045 706.737 781.449 698.247 772.107C689.758 762.765 678.75 756.075 666.548 752.842C654.345 749.609 641.469 749.971 629.468 753.885C617.466 757.798 606.851 765.096 598.9 774.9C591.114 766.9 581.799 760.547 571.509 756.218C561.219 751.889 550.164 749.672 539 749.7C532.334 749.701 525.69 750.473 519.2 752V848.4V948.4H1070.8V925.1C1081.54 916.645 1090.22 905.86 1096.17 893.561C1102.13 881.261 1105.22 867.767 1105.2 854.1Z" fill="#A8D8FF"/>
<path opacity="0.31" d="M438.5 574.4V551.8C426.2 553 411.8 559.7 405.6 572.5C391.8 562.3 361.1 561.5 344.5 580.4H370.6L373 586.2C390.1 587.4 402.8 593.1 413.5 604.6C417.9 589.6 426.4 579.3 438.5 574.4Z" fill="url(#paint1_linear)"/>
<path opacity="0.31" d="M593.101 570.5C604.901 567.4 628.901 566.1 639.001 570.5C633.701 560.4 622.601 559.1 622.601 559.1C613.501 543.6 590.201 552.1 593.101 570.5Z" fill="url(#paint2_linear)"/>
<path d="M1880.1 602.5H1879.8L1870.5 615.7V616.1L1879.8 629.3H1880.1L1889.4 616.1V615.7L1880.1 602.5Z" fill="#4F81FF"/>
<path d="M1989.1 509.8L1994.3 507.4C1994.4 507.4 1994.4 507.2 1994.3 507.2L1989.1 504.9H1989L1986.7 499.7C1986.6 499.6 1986.5 499.6 1986.5 499.7L1984.1 504.9L1978.8 507.2C1978.7 507.2 1978.7 507.4 1978.8 507.4L1984.1 509.8L1986.5 515.1C1986.5 515.2 1986.6 515.2 1986.7 515.1L1989 509.8H1989.1Z" fill="#133DBD"/>
<path d="M2487.8 234.2L2493.2 236.2C2493.3 236.3 2493.4 236.2 2493.3 236.1L2491.3 230.7L2493.3 225.3C2493.4 225.2 2493.3 225.2 2493.2 225.2L2487.8 227.3H2487.7L2482.4 225.2H2482.2L2484.3 230.6L2482.2 236C2482.2 236.1 2482.3 236.2 2482.4 236.1L2487.7 234.1L2487.8 234.2Z" fill="#EBB4A6"/>
<path d="M2186.3 186.8L2191.5 184.5C2191.52 184.481 2191.54 184.458 2191.55 184.432C2191.56 184.406 2191.57 184.378 2191.57 184.35C2191.57 184.322 2191.56 184.294 2191.55 184.268C2191.54 184.242 2191.52 184.219 2191.5 184.2L2186.3 181.9H2186.2L2183.9 176.6H2183.6L2181.3 181.9H2181.2L2176 184.2C2175.98 184.219 2175.96 184.242 2175.95 184.268C2175.94 184.294 2175.93 184.322 2175.93 184.35C2175.93 184.378 2175.94 184.406 2175.95 184.432C2175.96 184.458 2175.98 184.481 2176 184.5L2181.2 186.8H2181.3L2183.6 192H2183.9L2186.2 186.8H2186.3Z" fill="url(#paint3_linear)"/>
<g opacity="0.5">
<path opacity="0.5" d="M655.2 475.9L661.6 473C661.8 473 661.8 472.8 661.6 472.8L655.2 469.9L652.3 463.5H652L649.2 469.9H649.1L642.7 472.8C642.6 472.8 642.6 473 642.7 473L649.1 475.9C649.127 475.9 649.152 475.911 649.171 475.929C649.19 475.948 649.2 475.973 649.2 476L652 482.4C652.1 482.5 652.3 482.5 652.3 482.4L655.2 476V475.9Z" fill="#A8D8FF"/>
</g>
<path d="M927.8 742.1L934.2 739.2C934.3 739.2 934.3 739 934.2 739L927.8 736.1C927.7 736.1 927.7 736.1 927.7 736L924.8 729.6C924.8 729.5 924.6 729.5 924.6 729.6L921.7 736C921.7 736.1 921.7 736.1 921.6 736.1L915.2 739C915.1 739 915.1 739.2 915.2 739.2L921.6 742.1C921.7 742.1 921.7 742.1 921.7 742.2L924.6 748.6C924.6 748.7 924.8 748.7 924.8 748.6L927.7 742.2C927.7 742.1 927.7 742.1 927.8 742.1Z" fill="#D360DF"/>
<path d="M1295.8 720.9L1300 719L1295.8 717.1H1295.7L1293.8 712.9H1293.7L1291.8 717.1H1291.7L1287.5 719L1291.7 720.9C1291.8 720.9 1291.8 720.9 1291.8 721L1293.7 725.2H1293.8L1295.7 721C1295.7 720.9 1295.7 720.9 1295.8 720.9Z" fill="#FFD5CA"/>
<path d="M824.2 103.5L828.4 101.6C828.5 101.6 828.5 101.5 828.4 101.4L824.2 99.6L822.3 95.4H822.1L820.3 99.6H820.2L816 101.4C815.9 101.5 815.9 101.6 816 101.6L820.2 103.5H820.3L822.1 107.7H822.3L824.2 103.5Z" fill="#FFD5CA"/>
<path opacity="0.5" d="M1737.5 830.8C1788.42 830.8 1829.7 789.521 1829.7 738.6C1829.7 687.679 1788.42 646.4 1737.5 646.4C1686.58 646.4 1645.3 687.679 1645.3 738.6C1645.3 789.521 1686.58 830.8 1737.5 830.8Z" fill="#A8D8FF"/>
<path opacity="0.5" d="M1850.7 911.3C1901.62 911.3 1942.9 870.021 1942.9 819.1C1942.9 768.179 1901.62 726.9 1850.7 726.9C1799.78 726.9 1758.5 768.179 1758.5 819.1C1758.5 870.021 1799.78 911.3 1850.7 911.3Z" fill="#A8D8FF"/>
<path d="M2057.8 77.4L2045.5 81.6C2049.5 80 2053.6 78.7 2057.8 77.4Z" fill="url(#paint4_linear)"/>
<path d="M903.9 740H882.1V733.2L872.1 723.2L861.2 734.1V740.3H847.9V782.7L832.9 790.4V759H818L804.1 745.1H749.5L731.1 763.5L725.7 659.9H717.9L710.7 798.1H698.8V841.2H689.6V846.5L697.9 854.8V884.1L685.7 953.5H896.9L896.8 773.5V751.1H892.8L903.9 740Z" fill="#4367D1"/>
<path d="M191.3 720.5C190.963 717.945 189.716 715.598 187.787 713.89C185.858 712.181 183.377 711.226 180.8 711.2H179.9V707.8H176.9V711.2H171V680.2H166.4V711.2H145.6V700.6L136.3 694.2H129.7L120.3 700.6V761.9H105.9L94.4004 775.4L96.5004 919.3H159.5V870.1H194.2V756.1L197.7 751.1V726.1L191.6 722.8L191.3 720.5Z" fill="#486DD9"/>
<path d="M243.8 785.1H221.5V778.2L211.2 767.9L200.1 779.1V785.4H186.5V828.8L171.1 836.7V804.5H155.9L141.7 790.3H85.7004L66.9004 809.2L61.4004 703.1H53.4004L46.0004 844.5H33.8004V888.7H24.4004V894.1L32.9004 902.6V932.6L43.2004 948.4H236.7L236.6 819.4V796.4H232.5L243.8 785.1Z" fill="#3F61C4"/>
<path d="M24.4004 894.1H57.1004V876.2L70.5004 862.7L84.3004 876.5V894.1H107.4V858.1L120.4 845.1H149.8L162.3 857.6V902.5L32.9004 902.6L24.4004 894.1Z" fill="#3558BD"/>
<path d="M2834.9 794.5L2899 800.7L2918.8 824.4L2940.7 827.6L2965.4 891.4L2969.3 948.6H2799.5L2834.9 794.5Z" fill="#2D51BD"/>
<path d="M895.501 833.4H866.601V917.12H895.501V833.4Z" fill="#3F61C4"/>
<path d="M824.4 907.9H873.5L895.4 894.8H903.4V821.9L913.3 812H919.6L924.3 783.8H933.3L938 828.6L954.6 836.1V977.6H822.2L824.4 907.9Z" fill="#3F61C4"/>
<path d="M1186.9 736.1H1195.5V714.9H1192.2L1190.3 724H1184.3V707.4L1179.2 702.2H1173.3L1172.4 677.3H1171.1L1170.1 702.3H1164.2L1158.4 708.2V759L1148.9 768.5H1126.3V791.9H1195.5V744.3H1193.7L1191.3 742L1189.5 743.8V746.1H1185.6V737.4L1186.9 736.1ZM1191.8 727.1H1193.6V732.7H1191.8V727.1ZM1186.9 727.1H1188.7V732.7H1186.9V727.1Z" fill="#375ABF"/>
<path d="M986.7 901.5V838.7L981.9 833.8H992.8V797.8L1004.8 785.9H1016.9L1028.5 797.5V776H1062V913.6L986.7 901.5Z" fill="#3F61C4"/>
<path d="M1098.1 848.9H829.2V861.7H1098.1V848.9Z" fill="#2D51BD"/>
<path d="M954.401 948.4H1401.8V812.3L1370.3 794.6V781.6L1359.8 756.2H1313.5L1296.4 788.2L1265.5 737.3L1218 754.8L1131.1 797.8L1015.2 884.5L954.401 909.4L903.401 934.5L882 942.4V948.4H954.401Z" fill="#2D51BD"/>
<path d="M292.4 948.4H519.2V731.5C545.2 704.4 600.7 677.2 669.2 677.2H954.4V624.5H526.7V536.1L510.1 512.5H445.9L438.5 535.8V685.1H418.3L388.9 672.2V624.5L370.6 580.4H292.4L272.7 624.5V795.9L261.1 785.7H215.9L200.4 795.9V881.4L183 894.8L174.5 887.5L172.9 852.3H161.5L158.4 885.9L144.9 894.8V948.4H292.4ZM555.9 696H538.8V645.5L544.7 639.5H549.9C552.3 641.8 553.6 643.1 555.9 645.5V696ZM586.1 683.5H568.9V645.5L574.9 639.5H580.1L586.1 645.5V683.5ZM616.2 676H599.1V645.5C601.4 643.1 602.7 641.8 605.1 639.5H610.3L616.2 645.5V676ZM646.4 669.9H629.3V645.5L635.2 639.5H640.5L646.4 645.5V669.9ZM676.6 662.8H659.5V645.5L665.4 639.5H670.6C673 641.8 674.3 643.1 676.6 645.5V662.8ZM706.8 662.8H689.6V645.5L695.6 639.5H700.8L706.8 645.5V662.8ZM736.9 662.8H719.8V645.5L725.8 639.5H731L736.9 645.5V662.8ZM767.1 662.8H750V645.5C752.3 643.1 753.6 641.8 756 639.5H761.2L767.1 645.5V662.8ZM797 662.8H779.9V645.5L785.8 639.5H791.1L797 645.5V662.8ZM826.9 662.8H809.8V645.5L815.7 639.5H821L826.9 645.5V662.8ZM856.8 662.8H839.7V645.5L845.6 639.5H850.9L856.8 645.5V662.8ZM886.7 662.8H869.6V645.5L875.5 639.5H880.8L886.7 645.5V662.8ZM916.6 662.8H899.5V645.5L905.4 639.5H910.7L916.6 645.5V662.8ZM946.5 662.8H929.4V645.5L935.3 639.5H940.6L946.5 645.5V662.8Z" fill="#2A4B9C"/>
<path d="M798 871.2V840H759.6V812.8L756.2 805.6H735.5L728.6 812.8V837.2L723.4 840V775.7L716 766.5V738.4L723.4 725.8L716 724L712.5 712.6L703.3 709.1V690.7L698.2 685.1L693.6 690.2V710.8L685 714.9L682.1 723.5L675.2 728.1L682.1 740.1V769.4L673.5 780.9V812.8L668.3 805H644.7V791.2H637.3V775.1H632.1V804.4H625.8V783.8H618.9L614.9 809.5H575.8L567.9 817.4H519.2V948.4H696.8L706.9 928.6H737.2L741.2 948.4H770.2V912.4L760.8 898V871.2H798ZM794.3 853.6H796.7V863.5H794.3V853.6ZM784.3 853.6H786.7V863.5H784.3V853.6ZM774.3 853.6H776.7V863.5H774.3V853.6ZM764.2 853.6H766.7V863.5H764.2V853.6Z" fill="#2D51BD"/>
<path d="M694.401 840.1L673.5 869.9V780.9L682.1 769.4H705.701L694.401 777.9V840.1Z" fill="#264AB5"/>
<path d="M770.2 904.1L758.9 895H651.4L636.7 899.6V857.4L628.4 845.6H603.8L593.6 838.7H581.2L565.7 852.5V855.5H568.2V868.5H519.2V924.1H644.7L659.4 910.8H745.3L756.1 924.1H770.2V904.1Z" fill="#2A4B9C"/>
<path d="M655.8 889.9H649.8V899.86H655.8V889.9Z" fill="#2A4B9C"/>
<path d="M700.9 754.8C701.484 754.8 702.043 755.032 702.456 755.444C702.869 755.857 703.1 756.417 703.1 757V767.4H698.8V756.9C698.825 756.351 699.054 755.831 699.443 755.442C699.831 755.054 700.351 754.824 700.9 754.8Z" fill="#264AB5"/>
<path d="M713.401 754.8C713.666 754.8 713.92 754.905 714.108 755.093C714.295 755.28 714.401 755.535 714.401 755.8V767.4H712.5V755.7C712.523 755.469 712.625 755.253 712.789 755.088C712.953 754.924 713.169 754.822 713.401 754.8Z" fill="#264AB5"/>
<path d="M686.7 754.8C686.966 754.8 687.22 754.905 687.407 755.093C687.595 755.28 687.7 755.535 687.7 755.8V767.4H685.8V755.7C685.822 755.469 685.924 755.253 686.089 755.088C686.253 754.924 686.469 754.822 686.7 754.8Z" fill="#264AB5"/>
<path d="M675.2 728.1H714.4L707.9 738.1H695.5L682.1 750.1V740.1L675.2 728.1Z" fill="#264AB5"/>
<path d="M698.2 685.1L700.2 690.8H696.9V711.3H694.8L691.1 720.1V723.2H684.8L686.8 714L693.6 710.8V690.2L698.2 685.1Z" fill="#264AB5"/>
<path d="M706.9 716.8C707.245 716.8 707.576 716.937 707.819 717.181C708.063 717.425 708.2 717.755 708.2 718.1V723.3H705.7V718C705.723 717.689 705.857 717.397 706.077 717.177C706.298 716.957 706.59 716.823 706.9 716.8Z" fill="#264AB5"/>
<path d="M695.8 716.8H696.5C696.898 716.8 697.28 716.958 697.561 717.239C697.842 717.521 698 717.902 698 718.3V723.2H694.2V718.3C694.2 717.902 694.358 717.521 694.64 717.239C694.921 716.958 695.302 716.8 695.7 716.8H695.8Z" fill="#264AB5"/>
<path d="M701 696.5H699.9V699.16H701V696.5Z" fill="#264AB5"/>
<path d="M673.4 827H643.2V830.24H673.4V827Z" fill="#264AB5"/>
<path d="M649.8 841.2H647.5V847.19H649.8V841.2Z" fill="#264AB5"/>
<path d="M665.9 860.6H661.2V867.58H665.9V860.6Z" fill="#264AB5"/>
<path d="M743.8 848.4H710.8L718.1 841.2H736.5L743.8 848.4Z" fill="#264AB5"/>
<path d="M712.1 853.6H710.8V873.25H712.1V853.6Z" fill="#264AB5"/>
<path d="M711.4 809H708.8V815.73H711.4V809Z" fill="#264AB5"/>
<path d="M741.2 797.8H739.4V806.8H741.2V797.8Z" fill="#264AB5"/>
<path d="M748.5 801H746.2V806.79H748.5V801Z" fill="#264AB5"/>
<path d="M728.601 812.8H752.301L756.201 805.6H735.501L728.601 812.8Z" fill="#264AB5"/>
<path d="M738.3 826.5H732V826.92H738.3V826.5Z" fill="#264AB5"/>
<path d="M770.201 914.9H752.5V948.39H770.201V914.9Z" fill="#2A4B9C"/>
<path d="M644.7 920.5H519.2V948.44H644.7V920.5Z" fill="#2A4B9C"/>
<path d="M667.8 907.9L643.2 937.1V948.4H654.3L673.5 907.9H667.8Z" fill="#2A4B9C"/>
<path d="M445.9 512.5L438.5 535.8H496.6L510.1 512.5H445.9Z" fill="#233C7D"/>
<path d="M500.8 510.7H456.2V513.13H500.8V510.7Z" fill="#233C7D"/>
<path d="M466.6 495.7H462.5L461.5 512.2H467.6L466.6 495.7Z" fill="#233C7D"/>
<path d="M476.3 502.4H472.3L471.3 519H477.3L476.3 502.4Z" fill="#233C7D"/>
<path d="M388.9 624.5H272.7L292.4 580.4H370.6L388.9 624.5Z" fill="#233C7D"/>
<path d="M361.001 574.3H352.101V587.93H361.001V574.3Z" fill="#233C7D"/>
<path d="M362.2 576.9H351C350.366 575.843 350.03 574.633 350.03 573.4C350.03 572.167 350.366 570.957 351 569.9H362.2V570.1C362.733 571.097 363.02 572.207 363.038 573.338C363.055 574.469 362.802 575.587 362.3 576.6L362.2 576.9Z" fill="#233C7D"/>
<path d="M343.5 559.6H336.9V584.21H343.5V559.6Z" fill="#233C7D"/>
<path d="M311.201 703.4H474.1V809H292.5V722.3L311.201 703.4Z" fill="#274591"/>
<path d="M453.4 723.1L453.8 722.9L454.3 723.1C456.765 724.157 458.866 725.915 460.341 728.155C461.817 730.394 462.602 733.018 462.6 735.7V809H445.1V735.7C445.072 733.012 445.847 730.377 447.326 728.132C448.805 725.888 450.92 724.135 453.4 723.1Z" fill="#2A4B9C"/>
<path d="M419.7 723.1L420.2 722.9L420.6 723.1C423.065 724.157 425.166 725.915 426.641 728.155C428.117 730.394 428.902 733.018 428.9 735.7V809H411.4V735.7C411.399 733.018 412.184 730.394 413.66 728.155C415.135 725.915 417.235 724.157 419.7 723.1Z" fill="#2A4B9C"/>
<path d="M386.1 723.1L386.5 722.9L386.9 723.1C389.392 724.131 391.52 725.879 393.016 728.123C394.512 730.366 395.307 733.004 395.3 735.7V809H377.7V735.7C377.694 733.004 378.489 730.366 379.984 728.123C381.48 725.879 383.609 724.131 386.1 723.1Z" fill="#2A4B9C"/>
<path d="M352.4 723.1L352.8 722.9L353.3 723.1C355.765 724.157 357.866 725.915 359.341 728.155C360.817 730.394 361.602 733.018 361.6 735.7V809H344.1V735.7C344.072 733.012 344.847 730.377 346.326 728.132C347.805 725.888 349.92 724.135 352.4 723.1Z" fill="#2A4B9C"/>
<path d="M317.6 723.1L318 722.9L318.5 723.1C320.965 724.157 323.066 725.915 324.541 728.155C326.017 730.394 326.802 733.018 326.8 735.7V809H309.3V735.7C309.299 733.018 310.084 730.394 311.559 728.155C313.035 725.915 315.135 724.157 317.6 723.1Z" fill="#2A4B9C"/>
<path d="M330.601 785.7L352.801 798C354.401 798.9 372.201 791.9 372.201 791.9L411.401 799.7L468.801 787.4L493.801 792.7L512.801 804.1L485.801 803.5L330.601 820.2V785.7Z" fill="#243E82"/>
<path d="M330.601 801.5L389.501 823.9L433.101 828.1L502.501 866.8L504.101 871.3H445.101L364.801 894.8H330.601V801.5Z" fill="#243E82"/>
<path d="M423.8 774C408.153 774 393.146 780.216 382.081 791.281C371.016 802.345 364.8 817.352 364.8 833H482.9C482.874 817.343 476.636 802.336 465.555 791.275C454.474 780.213 439.457 774 423.8 774Z" fill="#254087"/>
<path d="M438.1 775.8H409.5L411.1 770.2H436.6L438.1 775.8Z" fill="#1B366E"/>
<path d="M474.101 712H487.701L489.401 703.4H493.101V728.8H489.401L481.001 718L474.101 722.9V712Z" fill="#274591"/>
<path d="M482.9 833H364.8V948.39H482.9V833Z" fill="#1B366E"/>
<path d="M430.7 775.8L416.9 775.2V744.5L430.7 745.1V775.8Z" fill="#1B366E"/>
<path d="M430.7 775.2H416.9C389.8 784.8 371.6 803.3 364.8 833H457.4C456.5 821.8 450.1 799.9 430.7 775.2Z" fill="#1B366E"/>
<path d="M468.8 795.9C469.808 795.9 470.775 796.3 471.487 797.013C472.2 797.726 472.6 798.692 472.6 799.7V803.5H465V799.7C465 798.692 465.401 797.726 466.113 797.013C466.826 796.3 467.793 795.9 468.8 795.9Z" fill="#193063"/>
<path d="M446.6 795.9C447.608 795.9 448.575 796.3 449.287 797.013C450 797.726 450.4 798.692 450.4 799.7V803.5H442.8V799.7C442.8 798.692 443.201 797.726 443.913 797.013C444.626 796.3 445.592 795.9 446.6 795.9Z" fill="#193063"/>
<path d="M413.3 795.9C414.308 795.9 415.275 796.3 415.987 797.013C416.7 797.726 417.1 798.692 417.1 799.7V803.5H409.5V799.7C409.5 798.692 409.901 797.726 410.613 797.013C411.326 796.3 412.293 795.9 413.3 795.9Z" fill="#193063"/>
<path d="M376 795.9C377.008 795.9 377.975 796.3 378.687 797.013C379.4 797.726 379.8 798.692 379.8 799.7V803.5H372.2V799.7C372.2 798.692 372.601 797.726 373.313 797.013C374.026 796.3 374.992 795.9 376 795.9Z" fill="#193063"/>
<path d="M563.8 894.8H465V902.31H563.8V894.8Z" fill="#1B366E"/>
<path d="M382.5 844.8H377.7V894.82H382.5V844.8Z" fill="#193063"/>
<path d="M457.4 844.8H448V894.82H457.4V844.8Z" fill="#193063"/>
<path d="M426.3 748.4H421.4L422.4 715.2H425.2L426.3 748.4Z" fill="#1B366E"/>
<path d="M504.2 822.8H500.4V833.04H504.2V822.8Z" fill="#2F54AD"/>
<path d="M1225.7 174.7H1225.3L1209.7 197V197.6L1225.3 219.8H1225.7L1241.4 197.6V197L1225.7 174.7Z" fill="#4F81FF"/>
<path d="M1273.8 246L1279.1 243.7C1279.12 243.681 1279.14 243.658 1279.15 243.632C1279.16 243.606 1279.17 243.578 1279.17 243.55C1279.17 243.522 1279.16 243.494 1279.15 243.468C1279.14 243.442 1279.12 243.419 1279.1 243.4L1273.8 241.1L1271.4 235.8C1271.4 235.7 1271.2 235.7 1271.2 235.8L1268.9 241.1H1268.8L1263.5 243.4V243.7L1268.8 246H1268.9L1271.2 251.2H1271.4L1273.8 246Z" fill="#4F81FF"/>
<path d="M756 639.5C753.6 641.8 752.3 643.1 750 645.5V662.8H745.3V645.5C747.6 643.1 748.9 641.8 751.3 639.5H756Z" fill="#26428C"/>
<path d="M725.801 639.5L719.801 645.5V662.8H715.101V645.5L721.101 639.5H725.801Z" fill="#26428C"/>
<path d="M695.6 639.5L689.6 645.5V662.8H685V645.5L690.901 639.5H695.6Z" fill="#26428C"/>
<path d="M665.4 639.5L659.5 645.5V662.8H654.8V645.5L660.7 639.5H665.4Z" fill="#26428C"/>
<path d="M635.201 639.5L629.301 645.5V669.9H624.601V645.5C626.901 643.1 628.201 641.8 630.601 639.5H635.201Z" fill="#26428C"/>
<path d="M605.1 639.5C602.7 641.8 601.4 643.1 599.1 645.5V676H594.4V645.5L600.4 639.5H605.1Z" fill="#26428C"/>
<path d="M574.9 639.5L568.9 645.5V683.5H564.3V645.5L570.2 639.5H574.9Z" fill="#26428C"/>
<path d="M544.701 639.5L538.801 645.5V696H534.101V645.5L540.001 639.5H544.701Z" fill="#26428C"/>
<path d="M785.8 639.5L779.9 645.5V662.8H775.2V645.5C777.5 643.1 778.8 641.8 781.2 639.5H785.8Z" fill="#26428C"/>
<path d="M815.701 639.5L809.801 645.5V662.8H805.101V645.5C807.401 643.1 808.701 641.8 811.101 639.5H815.701Z" fill="#26428C"/>
<path d="M845.6 639.5L839.701 645.5V662.8H835V645.5C837.3 643.1 838.6 641.8 841 639.5H845.6Z" fill="#26428C"/>
<path d="M875.5 639.5L869.6 645.5V662.8H864.9V645.5C867.2 643.1 868.5 641.8 870.9 639.5H875.5Z" fill="#26428C"/>
<path d="M905.4 639.5L899.5 645.5V662.8H894.8V645.5C897.1 643.1 898.4 641.8 900.8 639.5H905.4Z" fill="#26428C"/>
<path d="M935.3 639.5L929.4 645.5V662.8H924.7V645.5L930.7 639.5H935.3Z" fill="#26428C"/>
<path d="M758.901 662.8V677.2H669.201C600.701 677.2 545.201 704.4 519.201 731.5V739.1H508V717.1C533.9 690 589.401 662.8 657.901 662.8H758.901Z" fill="#2A4B9C"/>
<path d="M510.601 639.5H504.101V651.16H510.601V639.5Z" fill="#26428C"/>
<path d="M461 613.7L483.6 591.2L506.1 613.7H461Z" fill="#243E82"/>
<path d="M567.1 622.2H556.4V625.11H567.1V622.2Z" fill="#2A4B9C"/>
<path d="M564.9 616.1H562.3V627.23H564.9V616.1Z" fill="#2A4B9C"/>
<path d="M663.301 622.2H652.601V625.11H663.301V622.2Z" fill="#2A4B9C"/>
<path d="M661.1 616.1H658.5V627.23H661.1V616.1Z" fill="#2A4B9C"/>
<path d="M610.5 620.5H585V629.14H610.5V620.5Z" fill="#2A4B9C"/>
<path d="M604.1 625.1H591.5V601L597.1 595.5H598.5L604.1 601V625.1Z" fill="#2A4B9C"/>
<path d="M598.4 582.4H597.2V596.85H598.4V582.4Z" fill="#2A4B9C"/>
<path d="M599.4 582.4L604.6 587.3L599.9 586.6L599.4 582.4Z" fill="#2A4B9C"/>
<path d="M954.4 624.5V677.2H1055.1V624.5H954.4ZM976.4 662.8H959.3V645.5L965.2 639.5H970.5L976.4 645.5V662.8ZM1006.3 662.8H989.2V645.5L995.1 639.5H1000.4L1006.3 645.5V662.8ZM1036.2 662.8H1019.1V645.5L1025 639.5H1030.3L1036.2 645.5V662.8Z" fill="#2A4B9C"/>
<path d="M1130.5 585.4H1041.3V948.37H1130.5V585.4Z" fill="#2A4B9C"/>
<path d="M1023.2 672.8V723.2L1039.2 739.3V803L1031 811.3V824L1015.2 839.8V900.5L1021.7 907V948.4H1083.4V672.8H1023.2Z" fill="#2A4B9C"/>
<path d="M1128.3 739.1L1144.5 722.9V677.2H1117.2V739.1H1128.3Z" fill="#2A4B9C"/>
<path d="M1117.2 788.2H1164.9L1184.4 815.6V948.4H1092.6V788.2H1117.2Z" fill="#2A4B9C"/>
<path d="M1164.9 788.2L1148.7 815.6H1112.2V788.2H1164.9Z" fill="#254087"/>
<path d="M1170.1 830.3H1145.9V833.55H1170.1V830.3Z" fill="#26428C"/>
<path d="M1159.4 852.7H1157V861.64H1159.4V852.7Z" fill="#26428C"/>
<path d="M1039.2 803H1057.5L1049.5 811H1031L1039.2 803Z" fill="#254087"/>
<path d="M1115.7 760.1H1108.3V783.55H1115.7V760.1Z" fill="#274591"/>
<path d="M1105.5 760.1H1098.1V783.55H1105.5V760.1Z" fill="#274591"/>
<path d="M1089.6 768.5H1082.2V783.56H1089.6V768.5Z" fill="#274591"/>
<path d="M1144.5 722.9H1060.2L1067.3 737.3V751.7H1130.5V736.5L1144.5 722.9Z" fill="#274591"/>
<path d="M1130.5 598.1H1055.1V677.18H1130.5V598.1Z" fill="#274591"/>
<path d="M438.5 685.1H488.6V674.6L470.701 656.7V639.5H438.5V685.1Z" fill="#274591"/>
<path d="M1015.2 839.8L1041.6 866.3V897.9H1015.2V839.8Z" fill="#274591"/>
<path d="M1080.7 845.8L1100.1 826.4L1119.3 845.5L1080.7 845.8Z" fill="#254087"/>
<path d="M1174.4 884.5H1171.1V893.2H1174.4V884.5Z" fill="#26428C"/>
<path d="M1244.3 669.2H1209.3V783.58H1244.3V669.2Z" fill="#2945B3"/>
<path d="M1209.3 669.2H1195.5V783.58H1209.3V669.2Z" fill="#2D51BD"/>
<path d="M1238.3 779.7H1227.9V821.36H1238.3V779.7Z" fill="#2D51BD"/>
<path d="M1227.9 779.7H1225.8V778.1H1258.6V779.7H1256.7V793.9H1263.6V801.9H1268.9V805.3H1244.6H1238.4V779.7H1227.9Z" fill="#2945B3"/>
<path d="M1225.4 809L1242.8 791.7L1260.1 809H1225.4Z" fill="#2D51BD"/>
<path d="M1204.4 869.3L1215.6 858L1226.8 869.3H1204.4Z" fill="#2945B3"/>
<path d="M1185.6 793.8L1196.8 782.6L1208.1 793.8H1185.6Z" fill="#2945B3"/>
<path d="M1273.2 805.3H1238.4V828.83H1273.2V805.3Z" fill="#2945B3"/>
<path d="M1238.4 809H1220.8L1211.8 817.9V825.6H1221.5V842.3L1247.1 823L1238.4 809Z" fill="#2945B3"/>
<path d="M1347.3 833.6H1290.8L1274 850.3V891.9H1220.7V894.8L1223.4 896.3V922.4L1224.6 925.9L1222.5 937L1220.7 1000H1347.3V833.6Z" fill="#254087"/>
<path d="M1003.1 858.9H997.2V907.48H1003.1V858.9Z" fill="#2D51BD"/>
<path d="M1003.1 866.3L1007.8 861.6H992.8L997.2 866.3H1003.1Z" fill="#2D51BD"/>
<path d="M977.3 858.9H971.4V907.48H977.3V858.9Z" fill="#2D51BD"/>
<path d="M977.301 866.3L982.001 861.6H967.101L971.401 866.3H977.301Z" fill="#2D51BD"/>
<path d="M948.401 858.9H942.5V948.39H948.401V858.9Z" fill="#2D51BD"/>
<path d="M948.5 866.3L953.1 861.6H938.2L942.5 866.3H948.5Z" fill="#2D51BD"/>
<path d="M919.6 858.9H913.7V948.39H919.6V858.9Z" fill="#2D51BD"/>
<path d="M919.6 866.3L924.3 861.6H909.4L913.7 866.3H919.6Z" fill="#2D51BD"/>
<path d="M890.7 858.9H884.8V948.39H890.7V858.9Z" fill="#2D51BD"/>
<path d="M890.701 866.3L895.401 861.6H880.5L884.8 866.3H890.701Z" fill="#2D51BD"/>
<path d="M861.901 858.9H856V948.39H861.901V858.9Z" fill="#2D51BD"/>
<path d="M861.901 866.3L866.601 861.6H851.601L856.001 866.3H861.901Z" fill="#2D51BD"/>
<path d="M1263.3 656.6H1176.5L1195.5 681H1244.3L1263.3 656.6Z" fill="#2945B3"/>
<path d="M1176.5 656.6V649.1H1184L1204 629.1H1211.2L1219.3 621.1H1228.5L1236.4 628.9H1239.4L1260.4 649.9H1263.3V656.6H1176.5Z" fill="#2945B3"/>
<path d="M1205.7 653.8L1216.3 643.2L1226.8 653.7L1205.7 653.8Z" fill="#2D51BD"/>
<path d="M1238.1 677.2L1230.8 684.5V707.5H1226.8V681.9L1231.5 677.2H1238.1Z" fill="#2D51BD"/>
<path d="M1235.1 678.4H1231V686.79H1235.1V678.4Z" fill="#2D51BD"/>
<path d="M1218.3 602H1216.3V628.44H1218.3V602Z" fill="#2945B3"/>
<path d="M1206.7 610.6H1204.7V637.04H1206.7V610.6Z" fill="#2945B3"/>
<path d="M1242.3 618.2H1240.3V644.64H1242.3V618.2Z" fill="#2945B3"/>
<path d="M1101.5 531.6V574.3H1096.9V539.5H1095.8C1094.89 539.5 1094 539.678 1093.16 540.025C1092.32 540.372 1091.56 540.88 1090.92 541.521C1090.28 542.162 1089.77 542.922 1089.43 543.759C1089.08 544.597 1088.9 545.494 1088.9 546.4V574.3H1085.9V548.1C1085.87 545.827 1084.96 543.655 1083.35 542.048C1081.75 540.44 1079.57 539.526 1077.3 539.5H1073.5V574.3H1070.3V531.6H1101.5Z" fill="#254087"/>
<path d="M1068.5 562.1H1103.3C1109.67 562.1 1115.77 564.629 1120.27 569.13C1124.77 573.63 1127.3 579.735 1127.3 586.1V588.1H1044.4V586.1C1044.4 582.94 1045.02 579.811 1046.24 576.893C1047.45 573.974 1049.23 571.324 1051.47 569.094C1053.7 566.864 1056.36 565.098 1059.29 563.898C1062.21 562.698 1065.34 562.087 1068.5 562.1Z" fill="#2A4B9C"/>
<path d="M1079.9 662.8H1099.3C1102.85 662.8 1106.26 664.212 1108.78 666.725C1111.29 669.238 1112.7 672.646 1112.7 676.2V677.3H1066.5V676.2C1066.5 672.646 1067.91 669.238 1070.43 666.725C1072.94 664.212 1076.35 662.8 1079.9 662.8Z" fill="#243E82"/>
<path d="M1132.4 583.2H1039.4L1031.9 590.7L1039.4 598.1H1132.4L1139.9 590.7L1132.4 583.2Z" fill="#254087"/>
<path d="M1103 530.6H1068.8L1066.2 533.1L1068.8 535.6H1103L1105.6 533.1L1103 530.6Z" fill="#243E82"/>
<path d="M1103.3 562.1L1114.7 583.2H1082.2L1076.9 562.1H1103.3Z" fill="#254087"/>
<path d="M1173.9 718.6L1168.8 713.5L1163.7 718.6H1173.9Z" fill="#3053B8"/>
<path d="M1186.9 736.1H1171.6L1172.8 737.3H1177V762.2L1181.4 757.8H1184.2V738.7L1186.9 736.1Z" fill="#3053B8"/>
<path d="M1181.4 709.8H1180V712.59H1181.4V709.8Z" fill="#3053B8"/>
<path d="M1165.5 725.5H1164.1V729.76H1165.5V725.5Z" fill="#3053B8"/>
<path d="M1186.9 770.2H1172.7L1167.8 775V783.5H1179.3L1186.9 770.2Z" fill="#2D51BD"/>
<path d="M1288.9 807V788.2L1273.2 766.9V762.2H1309.2L1313.5 756.2H1359.8L1370.3 781.6H1327.4L1316.2 762.2L1312.2 766.9L1322.7 788.2H1296.4V797.6L1288.9 807Z" fill="#2945B3"/>
<path d="M1306 795.6H1302.8V815.61H1306V795.6Z" fill="#2945B3"/>
<path d="M1328.6 789.9L1319.8 798.6V807.9L1327.2 800.5H1358.3L1361.6 789.9H1342.4V775.7H1333.6V789.9H1328.6Z" fill="#2945B3"/>
<path d="M1343.4 828.8H1315.8V835.67H1343.4V828.8Z" fill="#B07081"/>
<path d="M1312.6 834.6L1315.8 815.6L1319.2 828.8H1329.6L1331.6 821.4H1333.6V819.4H1343.4V821.4H1347.3V837.7H1312.6V834.6Z" fill="#254087"/>
<path d="M1291.7 810.2H1290.7V842.31H1291.7V810.2Z" fill="#254087"/>
<path d="M1299.1 820.9H1298.1V853.01H1299.1V820.9Z" fill="#254087"/>
<path d="M1291.7 810.2C1294.4 810.2 1297.5 812 1299.1 812.2L1292.4 812.6C1294.6 813.174 1296.84 813.575 1299.1 813.8L1291.7 814.4V810.2Z" fill="#254087"/>
<path d="M1289.6 835.7V832.2H1293.3V833.6H1297L1298.1 831.1H1299.1L1300.1 833.6L1289.6 835.7Z" fill="#254087"/>
<path d="M1293.8 849.1L1300.9 863.6H1328.1L1320.7 849.1H1293.8Z" fill="#1D3575"/>
<path d="M1242 896.3V918.4L1233.2 925.1V897.9H1229.5V919.9H1225.3V896.3H1242Z" fill="#223B7D"/>
<path d="M1249.9 896.3H1247.4V917.71H1249.9V896.3Z" fill="#223B7D"/>
<path d="M1266.6 896.3H1258V917.71H1266.6V896.3Z" fill="#223B7D"/>
<path d="M1234.8 948.6L1245.2 935L1248.7 925.1L1282 917.7V889.7L1293.9 877.8H1312.4L1318.4 883.8V908.6L1324.8 907L1328.1 876.3H1330.1L1334.7 900.7H1347.3V916.1H1333.7L1319.3 930.4L1310.1 921.2H1296.4V934.3H1265L1265.6 939.3L1258 948.6H1234.8Z" fill="#1D3575"/>
<path d="M1244 891.9V882.2L1247.1 879.1L1248 868.3H1249.1L1249.9 879L1253.2 882.3V891.9H1244Z" fill="#2A4B9C"/>
<path d="M1084.6 510.3H1086.9C1090.03 510.3 1093.03 511.543 1095.24 513.756C1097.46 515.969 1098.7 518.97 1098.7 522.1V530.6H1072.9V522.1C1072.9 518.97 1074.14 515.969 1076.36 513.756C1078.57 511.543 1081.57 510.3 1084.7 510.3H1084.6Z" fill="#254087"/>
<path d="M1123.7 624.5L1112.8 613.6H1082.2L1070.8 625H1075.1V639.5H1105.5L1117.9 651.9V624.5H1123.7Z" fill="#254087"/>
<path d="M1082.1 507.2H1080.5V512.84H1082.1V507.2Z" fill="#254087"/>
<path d="M1090.8 502.9H1086.8V512.26H1090.8V502.9Z" fill="#254087"/>
<path d="M308.401 731.7H215.101V948.42H308.401V731.7Z" fill="#1B366E"/>
<path d="M308.401 745H229.601V827.7H308.401V745Z" fill="#1B366E"/>
<path d="M281.7 675.9V730.2H275.7V685.9H274.4C272.075 685.926 269.851 686.861 268.207 688.506C266.562 690.151 265.626 692.374 265.6 694.7V730.2H261.8V696.9C261.8 693.983 260.641 691.185 258.579 689.122C256.516 687.059 253.718 685.9 250.8 685.9H246V730.2H241.9V675.9H281.7Z" fill="#1B366E"/>
<path d="M243.5 707.2H280C283.297 707.2 286.56 707.849 289.606 709.111C292.651 710.372 295.418 712.221 297.749 714.552C300.08 716.882 301.928 719.649 303.19 722.695C304.451 725.74 305.1 729.004 305.1 732.3V734.4H218.4V732.3C218.4 725.643 221.045 719.259 225.752 714.552C230.459 709.845 236.843 707.2 243.5 707.2Z" fill="#1B366E"/>
<path d="M310.401 729.3H213.101L205.301 737.2L213.101 745H310.401L318.201 737.2L310.401 729.3Z" fill="#1B366E"/>
<path d="M283.6 674.6H239.9L236.7 677.8L239.9 681H283.6L286.8 677.8L283.6 674.6Z" fill="#1B366E"/>
<path d="M280 707.2L291.9 729.3H257.9L252.4 707.2H280Z" fill="#1B366E"/>
<path d="M260.1 648.8H263C266.978 648.8 270.794 650.38 273.607 653.193C276.42 656.006 278 659.822 278 663.8V674.6H245.2V663.7C245.226 659.756 246.805 655.982 249.593 653.193C252.382 650.404 256.157 648.826 260.1 648.8Z" fill="#1B366E"/>
<path d="M256.9 644.8H254.9V651.98H256.9V644.8Z" fill="#1B366E"/>
<path d="M268 639.3H263V651.22H268V639.3Z" fill="#1B366E"/>
<path d="M982.101 626.5V619.7H993.901V605L1000.9 601.8L1004.8 605V619.7H1015.2L1020.8 626.5H982.101Z" fill="#2A4B9C"/>
<path d="M1041.3 691.3H1038V701.61H1041.3V691.3Z" fill="#274591"/>
<path d="M1793.8 304.2L1799.1 301.8V301.6L1793.8 299.3C1793.8 299.273 1793.79 299.248 1793.77 299.229C1793.75 299.211 1793.73 299.2 1793.7 299.2L1791.4 293.9H1791.2L1788.8 299.2L1783.5 301.5C1783.4 301.5 1783.4 301.7 1783.5 301.7L1788.8 304.1L1791.2 309.4C1791.2 309.5 1791.4 309.5 1791.4 309.4L1793.7 304.1L1793.8 304.2Z" fill="#FFE0EF"/>
<path d="M1576.4 948.6H1774.8V836.9L1765.1 822.1V794.6H1774.8V762.5H1763.9V734.6L1760.4 727.1H1739.1L1732 734.6V759.6L1726.7 762.5V708.8V696.4L1719.1 687V658L1726.7 645.1L1719.1 643.3L1715.5 631.5L1706.1 627.9V609L1700.8 603.2L1696 608.5V629.7L1687.2 633.8L1684.2 642.7L1677.1 647.4L1684.2 659.8V689.9L1675.4 701.7V734.6L1670.1 726.5H1645.8V712.3H1638.2V695.8H1597.8L1585.1 715.6L1588.1 720.8V757.6H1579.8L1569.5 747.4L1559.2 757.7H1552.7L1546.1 770.1V777.2H1526L1517.4 785.9L1514.3 825.3L1508.7 821.2L1503.7 757.5H1498.3L1494 798.6H1484.6L1475.6 811.7L1461.9 772.2H1453.6V757.8H1447.3V764.9H1442.9V781.5L1438.2 780.2L1436.9 759.9H1433.2L1427.2 770.1L1422.6 783.9H1397.2V948.6H1576.4Z" fill="#2D51BD"/>
<path d="M1597.8 830.6L1787.6 837.8V826.3L1597.8 819.1V830.6Z" fill="#2A4B9C"/>
<path d="M1597.8 866.8L1787.6 874V862.6L1597.8 855.3V866.8Z" fill="#2A4B9C"/>
<path d="M1641.3 934H1645.8V827.73H1641.3V934Z" fill="#2A4B9C"/>
<path d="M1614.2 934H1618.7V827.73H1614.2V934Z" fill="#2A4B9C"/>
<path d="M1666.3 934H1670.8V827.73H1666.3V934Z" fill="#2A4B9C"/>
<path d="M1691.4 934H1695.9V827.73H1691.4V934Z" fill="#BF7887"/>
<path d="M1716.4 934H1720.9V827.73H1716.4V934Z" fill="#2A4B9C"/>
<path d="M1738.1 934H1742.6V827.73H1738.1V934Z" fill="#2A4B9C"/>
<path d="M1802.2 665.7H1830.5C1838.95 665.7 1845.8 658.857 1845.8 650.415C1845.8 641.973 1838.95 635.13 1830.5 635.13H1802.2C1793.75 635.13 1786.9 641.973 1786.9 650.415C1786.9 658.857 1793.75 665.7 1802.2 665.7Z" fill="#294896"/>
<path d="M1633.2 948.6H1812.2L1759.8 845.8L1719.3 872.2L1693.7 877.5L1660.6 921.9L1633.2 933.9L1617.8 928L1597.8 921.9V948.6H1633.2Z" fill="#2A4B9C"/>
<path d="M1765.1 853.5L1730 880.9L1710.4 915L1660.6 921.9L1693.7 877.5L1719.3 872.2L1759.8 845.8L1765.1 853.5Z" fill="#385ABF"/>
<path d="M1782 749.2L1776.6 746.8C1776.58 746.781 1776.56 746.758 1776.55 746.732C1776.54 746.706 1776.53 746.678 1776.53 746.65C1776.53 746.622 1776.54 746.594 1776.55 746.568C1776.56 746.542 1776.58 746.519 1776.6 746.5L1782 744.1H1782.1L1784.5 738.7C1784.5 738.6 1784.6 738.6 1784.7 738.7L1787.1 744.1H1787.2L1792.6 746.5C1792.62 746.519 1792.64 746.542 1792.65 746.568C1792.66 746.594 1792.67 746.622 1792.67 746.65C1792.67 746.678 1792.66 746.706 1792.65 746.732C1792.64 746.758 1792.62 746.781 1792.6 746.8L1787.2 749.2H1787.1L1784.7 754.6C1784.6 754.7 1784.5 754.7 1784.5 754.6L1782.1 749.2H1782Z" fill="#FFD5CA"/>
<path d="M2887 948.6H2252.2L2210.1 612.1V540.4L2214.5 530.6H2219.6L2243.1 466.1H2248L2272.4 530.7H2280.4L2287.9 539.3V607.6H2295.9L2304 613.2V601.2L2316 582.1H2329.4L2344.9 624.3L2352.3 631.8V714.3L2379.5 732.2L2454.2 682.1L2487.4 601.2L2523.8 578L2539 534.4L2580.2 503.2L2593.5 466.1L2625.6 442.9L2656.2 448.4L2707.6 487.1L2734.7 500L2759.9 599.4L2778.3 623.9L2811.5 752.3L2838.5 778L2871.5 861.7L2888 920L2887 948.6Z" fill="#2D51BD"/>
<path d="M2643.2 704.8H2625.3V699.2L2617.1 691L2608.2 700V705H2597.3V739.7L2585 746V720.3H2572.9L2561.5 708.9H2516.7L2501.6 724L2497.2 639.2H2490.9L2485 752.3H2497.1V787.6H2489.5V792L2496.3 798.8V822.8L2518.4 800.7H2541.3L2535.6 806.5H2558.2L2571.8 792.9V835.4H2589.5V810L2623.2 776.3H2612.3L2608.9 772.9H2601.5L2592.8 781.6V765.6H2609.2V732.2H2637.4V713.8H2634.1L2643.2 704.8Z" fill="#3F61C4"/>
<path d="M2301.5 640.6C2300.97 636.65 2299.03 633.025 2296.03 630.397C2293.03 627.768 2289.19 626.313 2285.2 626.3H2283.8V621H2279.1V626.3H2270V578.3H2262.8V626.3H2230.6V609.8L2216.3 599.9H2206L2191.4 609.8V704.8H2169.2L2151.3 725.7L2154.5 948.6H2252.2V872.3H2305.9V695.7L2311.3 688V649.3L2301.9 644.3L2301.5 640.6Z" fill="#3F61C4"/>
<path d="M2593.5 466.1L2619.4 462.4L2606.4 471.4L2625.6 487.1V539.5L2601.3 522.8V506.1L2580.2 503.2L2593.5 466.1Z" fill="#2945B3"/>
<path d="M2707.6 599.7L2597.4 615.7V592.8L2602.9 582.9L2588.9 557.4H2575.8V527.8L2569.8 522.8L2566.5 489.3L2570.3 485.2H2559.8L2562.3 489.3L2559.8 523.2L2555.2 528.6V545.3L2546.9 539.5V502.7H2542.3V522.8L2526.5 529.4V553.6L2510.2 565.7L2503.1 583.7L2512.7 596.5V621.2H2516.9V603.7H2524.8V652.9L2531.5 659.6L2539 645.4H2584.9L2564 666.3H2588.6V682.1H2644.6L2648.8 661.1L2707.6 651.5V599.7Z" fill="#4B6CCC"/>
<path d="M2602.9 582.9H2549.1L2558.8 557.3L2590.8 557.4L2602.9 582.9Z" fill="#374994"/>
<path d="M2616.4 626.2C2615.26 626.347 2614.21 626.906 2613.46 627.772C2612.7 628.638 2612.29 629.751 2612.3 630.9V647.6L2621.8 646.9V630.9C2621.79 630.224 2621.64 629.558 2621.36 628.945C2621.07 628.332 2620.66 627.785 2620.15 627.342C2619.64 626.898 2619.04 626.567 2618.4 626.37C2617.75 626.173 2617.07 626.115 2616.4 626.2Z" fill="#2D51BD"/>
<path d="M2635.4 623.4C2634.27 623.567 2633.23 624.132 2632.48 624.993C2631.73 625.855 2631.31 626.957 2631.3 628.1V646.9H2640.8V628.1C2640.79 627.424 2640.64 626.758 2640.36 626.145C2640.07 625.532 2639.66 624.985 2639.15 624.542C2638.64 624.098 2638.04 623.767 2637.4 623.57C2636.75 623.373 2636.07 623.315 2635.4 623.4Z" fill="#2D51BD"/>
<path d="M2654.4 620.7C2653.26 620.847 2652.21 621.406 2651.46 622.272C2650.7 623.138 2650.29 624.251 2650.3 625.4V642.4H2659.8V625.4C2659.79 624.724 2659.64 624.058 2659.36 623.445C2659.07 622.832 2658.66 622.285 2658.15 621.842C2657.64 621.398 2657.04 621.067 2656.4 620.87C2655.75 620.673 2655.07 620.615 2654.4 620.7Z" fill="#2D51BD"/>
<path d="M2673.4 617.9C2672.27 618.067 2671.23 618.632 2670.48 619.493C2669.73 620.355 2669.31 621.457 2669.3 622.6V641.6L2678.8 640.2V622.6C2678.79 621.924 2678.64 621.258 2678.36 620.645C2678.07 620.032 2677.66 619.485 2677.15 619.042C2676.64 618.598 2676.04 618.267 2675.4 618.07C2674.75 617.873 2674.07 617.815 2673.4 617.9Z" fill="#2D51BD"/>
<path d="M2597.4 647.5V656.2L2707.6 640.3V630.7L2597.4 647.5Z" fill="#4B6CCC"/>
<path d="M2692.3 615.2C2691.18 615.369 2690.16 615.938 2689.42 616.801C2688.69 617.665 2688.29 618.766 2688.3 619.9V632.7H2697.8V619.9C2697.79 619.215 2697.64 618.539 2697.35 617.918C2697.06 617.297 2696.64 616.745 2696.12 616.3C2695.6 615.854 2694.99 615.526 2694.33 615.336C2693.67 615.146 2692.98 615.1 2692.3 615.2Z" fill="#2D51BD"/>
<path d="M2634.5 615.1H2639.2V579.58H2634.5V615.1Z" fill="#4B6CCC"/>
<path d="M2580.2 603.7H2576V597.2C2576 596.643 2576.22 596.109 2576.62 595.715C2577.01 595.321 2577.54 595.1 2578.1 595.1C2578.66 595.1 2579.19 595.321 2579.59 595.715C2579.98 596.109 2580.2 596.643 2580.2 597.2V603.7Z" fill="#5475D6"/>
<path d="M2558.3 621.1H2554.1V614.5C2554.1 613.943 2554.32 613.409 2554.72 613.015C2555.11 612.621 2555.64 612.4 2556.2 612.4C2556.76 612.4 2557.29 612.621 2557.69 613.015C2558.08 613.409 2558.3 613.943 2558.3 614.5V621V621.1Z" fill="#5475D6"/>
<path d="M2583.7 637H2579.5V630.5C2579.5 629.943 2579.72 629.409 2580.12 629.015C2580.51 628.621 2581.04 628.4 2581.6 628.4C2582.16 628.4 2582.69 628.621 2583.08 629.015C2583.48 629.409 2583.7 629.943 2583.7 630.5V637Z" fill="#3F61C4"/>
<path d="M2525.3 583.6H2523.6V581C2523.6 580.788 2523.68 580.584 2523.83 580.434C2523.98 580.284 2524.19 580.2 2524.4 580.2C2524.5 580.2 2524.61 580.221 2524.71 580.261C2524.8 580.301 2524.89 580.36 2524.97 580.434C2525.04 580.509 2525.1 580.597 2525.14 580.694C2525.18 580.791 2525.2 580.895 2525.2 581V583.6H2525.3Z" fill="#3F61C4"/>
<path d="M2533.2 583.6H2531.5V581C2531.5 580.895 2531.52 580.791 2531.56 580.694C2531.6 580.597 2531.66 580.509 2531.73 580.434C2531.81 580.36 2531.9 580.301 2531.99 580.261C2532.09 580.221 2532.2 580.2 2532.3 580.2C2532.41 580.2 2532.51 580.221 2532.61 580.261C2532.7 580.301 2532.79 580.36 2532.87 580.434C2532.94 580.509 2533 580.597 2533.04 580.694C2533.08 580.791 2533.1 580.895 2533.1 581V583.6H2533.2Z" fill="#3F61C4"/>
<path d="M2538.4 555.7H2536.7V553.1C2536.7 552.888 2536.78 552.684 2536.93 552.534C2537.08 552.384 2537.29 552.3 2537.5 552.3C2537.71 552.3 2537.92 552.384 2538.07 552.534C2538.22 552.684 2538.3 552.888 2538.3 553.1V555.7H2538.4Z" fill="#3F61C4"/>
<path d="M2567 529.6H2565V534.03H2567V529.6Z" fill="#3F61C4"/>
<path d="M2569.8 522.8H2565L2564.1 489.8L2566.5 489.3L2569.8 522.8Z" fill="#3F61C4"/>
<path d="M2571.3 558.7L2569.8 545.8H2567.1L2566.1 558.7H2571.3Z" fill="#374994"/>
<path d="M2183.8 842.7L2165.2 948.6H2680.5V822.3L2252.2 792L2183.8 842.7Z" fill="#254087"/>
<path d="M2866 733H2790.3V979.8L2888 948.6V769.9L2866 733Z" fill="#27438F"/>
<path d="M2866 655.9V647.3L2846.2 623.6H2804.7L2781.2 647.1V657.2L2784.6 660.6V667L2781.2 673.1V713.8L2790.3 717.3V797.7L2764.4 771.8H2692.2L2676.8 787.2V826L2824.8 836.5L2866 828L2857.3 743V716.5L2866 712.3V673.2L2862.3 668V659.6L2866 655.9Z" fill="#27438F"/>
<path d="M2764.4 771.8L2800.5 807.9H2723.6V771.8H2764.4Z" fill="#233B80"/>
<path d="M2781.2 713.8H2824.8V732.5L2790.3 752.7V717.3L2781.2 713.8Z" fill="#233B80"/>
<path d="M2791.5 706.8H2795.6V698.21H2791.5V706.8Z" fill="#233B80"/>
<path d="M2813.6 698.2H2817.7V689.61H2813.6V698.2Z" fill="#233B80"/>
<path d="M2797.4 678.9H2801.5V670.31H2797.4V678.9Z" fill="#233B80"/>
<path d="M2824.8 623.6H2804.7L2781.2 647.1H2793.6L2800.6 640L2807.6 647H2820.1L2827.4 640.1L2834.6 647.3H2866L2846.2 623.6H2824.8Z" fill="#243E85"/>
<path d="M2815 615H2813.4L2812.2 625.1H2816.2L2815 615Z" fill="#243E85"/>
<path d="M2803.5 656.9H2781.2L2784.6 660.6H2798.2L2803.5 656.9Z" fill="#27438F"/>
<path d="M2837.1 605.6H2840.3L2841.2 627.4H2836.2L2837.1 605.6Z" fill="#243E85"/>
<path d="M2831.6 624.5H2838.1V620.89H2831.6V624.5Z" fill="#243E85"/>
<path d="M2252.2 817.2V852.3L2261.8 852.9L2267.2 853.3V826.2L2259.3 817.7L2252.2 817.2Z" fill="#965D6B"/>
<path d="M2312.9 821.5L2300 820.6L2291 829.1V855L2320.8 857.1V830L2312.9 821.5Z" fill="#1D3575"/>
<path d="M2366.5 825.3L2353.6 824.4L2344.6 832.9V858.8L2374.4 860.9V833.8L2366.5 825.3Z" fill="#1D3575"/>
<path d="M2420.1 829.1L2407.3 828.2L2398.2 836.7V862.6L2428 864.7V837.6L2420.1 829.1Z" fill="#1D3575"/>
<path d="M2473.7 832.9L2460.9 832L2451.8 840.5V866.4L2481.6 868.5V841.4L2473.7 832.9Z" fill="#1D3575"/>
<path d="M2527.3 836.7L2514.5 835.8L2505.4 844.3V870.2L2535.2 872.3V845.2L2527.3 836.7Z" fill="#1D3575"/>
<path d="M2580.9 840.5L2568.1 839.6L2559 848.1V874L2588.8 876.1V849L2580.9 840.5Z" fill="#1D3575"/>
<path d="M2634.5 844.3L2621.7 843.4L2612.6 851.9V877.8L2642.4 879.9V852.8L2634.5 844.3Z" fill="#1D3575"/>
<path d="M2252.2 880.4V1000H2267.2V889.3C2264.1 886.1 2262.3 884.2 2259.3 880.9L2252.2 880.4Z" fill="#1D3575"/>
<path d="M2291 892.2V1000H2320.8V893.1L2312.9 884.7L2300 883.8L2292.7 890.6L2291 892.2Z" fill="#1D3575"/>
<path d="M2344.6 896V1000H2374.4V896.9C2371.3 893.7 2369.5 891.8 2366.5 888.5L2353.7 887.6L2349.7 891.3L2345.4 895.3L2344.6 896Z" fill="#1D3575"/>
<path d="M2398.2 899.8V1000H2428V900.7L2420.1 892.3L2407.3 891.4L2403.3 895.1L2399.1 899L2398.2 899.8Z" fill="#1D3575"/>
<path d="M2451.8 903.6V1000H2481.6V904.5L2473.7 896.1L2460.9 895.2L2457 898.8L2454.7 900.9L2453.1 902.4L2451.8 903.6Z" fill="#1D3575"/>
<path d="M2505.4 907.4V1000H2535.2V908.3L2527.3 899.9L2514.5 899L2510.6 902.6L2505.4 907.4Z" fill="#1D3575"/>
<path d="M2559 911.2V1000H2588.8V912.1L2580.9 903.7L2568.1 902.8L2559 911.2Z" fill="#1D3575"/>
<path d="M2612.6 915V1000H2642.4V915.9L2634.5 907.5L2621.7 906.6L2612.6 915Z" fill="#1D3575"/>
<path d="M2252.2 820.6V852.3L2261.8 852.9V828.4L2254.7 820.8L2252.2 820.6Z" fill="#BF7887"/>
<path d="M2308.3 824.6L2296.7 823.8L2288.5 831.4V854.8L2315.4 856.7V832.2L2308.3 824.6Z" fill="#2945B3"/>
<path d="M2361.9 828.4L2350.3 827.6L2342.1 835.2V858.6L2369 860.5V836L2361.9 828.4Z" fill="#2945B3"/>
<path d="M2415.5 832.2L2403.9 831.4L2395.7 839V862.4L2422.6 864.3V839.8L2415.5 832.2Z" fill="#2945B3"/>
<path d="M2469.1 836L2457.5 835.2L2449.3 842.8V866.2L2476.2 868.1V843.6L2469.1 836Z" fill="#2945B3"/>
<path d="M2522.7 839.7L2511.1 838.9L2502.9 846.5V870L2529.8 871.9V847.4L2522.7 839.7Z" fill="#2945B3"/>
<path d="M2576.3 843.5L2564.7 842.7L2556.5 850.3V873.8L2583.4 875.7V851.2L2576.3 843.5Z" fill="#2945B3"/>
<path d="M2629.9 847.4L2618.3 846.5L2610.1 854.2V877.6L2637 879.5V855L2629.9 847.4Z" fill="#2945B3"/>
<path d="M2252.2 884.5V1000H2261.8V892.6L2254.4 884.7L2252.2 884.5Z" fill="#BF7887"/>
<path d="M2287.5 895.5V1000H2315.4V896.4L2308 888.4L2296 887.6L2294.2 889.2L2292.7 890.6L2291 892.2C2289.9 893.2 2288.9 894.2 2287.5 895.5Z" fill="#2945B3"/>
<path d="M2341.2 899.2V1000H2369V900.1L2361.7 892.2L2349.7 891.3L2345.4 895.3C2345.11 895.541 2344.84 895.809 2344.6 896.1L2341.2 899.2Z" fill="#2945B3"/>
<path d="M2394.9 903V1000H2422.6V903.8L2415.3 895.9L2403.3 895.1L2399.1 899L2398.2 899.8L2394.9 903Z" fill="#2945B3"/>
<path d="M2448.5 906.7V1000H2476.2V907.5L2468.9 899.7L2457 898.8L2454.7 900.9L2453.1 902.4L2451.8 903.6L2448.5 906.7Z" fill="#2945B3"/>
<path d="M2502.2 910.4V1000H2529.8V911.3L2522.5 903.4L2510.6 902.6L2505.4 907.5L2502.2 910.4Z" fill="#2945B3"/>
<path d="M2556 914.1V1000H2583.4V915L2576.2 907.2L2564.3 906.4L2559 911.3L2556 914.1Z" fill="#2945B3"/>
<path d="M2609.7 917.8V1000H2637V918.7L2629.8 910.9L2618 910.1L2612.6 915.1L2609.7 917.8Z" fill="#2945B3"/>
<path d="M1854.7 765L1854.2 948.6H2037.2V778L1854.7 765Z" fill="#254087"/>
<path d="M1908.3 794.1L1895.5 793.2L1886.4 801.6V827.6L1916.2 829.7V802.6L1908.3 794.1Z" fill="#1D3575"/>
<path d="M1961.9 797.9L1949.1 797L1940 805.4V831.4L1969.8 833.5V806.4L1961.9 797.9Z" fill="#1D3575"/>
<path d="M2015.5 801.7L2002.7 800.8L1993.6 809.2V835.2L2023.4 837.3V810.2L2015.5 801.7Z" fill="#1D3575"/>
<path d="M1886.4 864.8V948.6H1916.2V865.7L1908.3 857.3L1895.5 856.4L1891.6 859.9L1886.4 864.8Z" fill="#1D3575"/>
<path d="M1940 868.6V948.6H1969.8V869.5L1961.9 861.1L1949.1 860.2L1940 868.6Z" fill="#1D3575"/>
<path d="M1993.6 872.4V948.6H2023.4V873.3L2015.5 864.9L2002.7 864L1993.6 872.4Z" fill="#1D3575"/>
<path d="M1903.7 797.1L1892.1 796.3L1883.9 803.9V827.4L1910.8 829.3V804.8L1903.7 797.1Z" fill="#2945B3"/>
<path d="M1957.3 800.9L1945.7 800.1L1937.5 807.7V831.2L1964.4 833.1V808.6L1957.3 800.9Z" fill="#2945B3"/>
<path d="M2010.9 804.8L1999.3 803.9L1991.1 811.6V835L2018 836.9V812.4L2010.9 804.8Z" fill="#2945B3"/>
<path d="M1883.2 867.8V948.6H1910.8V868.6L1903.5 860.8L1891.6 859.9L1886.4 864.9C1885.4 865.7 1884.4 866.7 1883.2 867.8Z" fill="#2945B3"/>
<path d="M1937 871.5V948.6H1964.4V872.4L1957.2 864.6L1945.3 863.7L1940 868.7L1937 871.5Z" fill="#2945B3"/>
<path d="M1990.7 875.2V948.6H2018V876.1L2010.8 868.3L1999 867.4L1993.6 872.5L1990.7 875.2Z" fill="#2945B3"/>
<path d="M2469.3 817.2V795.2L2448.5 792V760.1L2429.4 741L2413.3 757.1V789.5H2394.9L2390.9 811.5L2469.3 817.2Z" fill="#254087"/>
<path d="M2429.4 741L2448.5 760.1L2428 757.2V792L2413.3 789.5V757.1L2429.4 741Z" fill="#1D3575"/>
<path d="M2428.8 752.3H2430.1V711.34H2428.8V752.3Z" fill="#1D3575"/>
<path d="M2428.7 719.2C2426.1 718.5 2421.5 718.8 2417.2 719.9C2420.2 717.5 2427.3 715.5 2427.3 715.5C2423.98 714.694 2420.52 714.694 2417.2 715.5C2421.3 712.4 2428.7 711.4 2428.7 711.4V719.2Z" fill="#1D3575"/>
<path d="M2429.41 712.219L2430.83 710.804L2429.43 709.404L2428.01 710.818L2429.41 712.219Z" fill="#1D3575"/>
<path d="M2649.3 781.4L2616.8 778V828.1L2649.3 831.6V781.4Z" fill="#254087"/>
<path d="M2649.3 781.4L2640.4 769.9H2630.8L2627.5 758.4H2625.3L2623.6 769.9H2619.7L2616.8 778L2649.3 781.4Z" fill="#254087"/>
<path d="M2638.4 773.8L2629.3 785.5L2621.6 777.9H2616.8L2621.9 773.8H2638.4Z" fill="#1D3575"/>
<path d="M2342.1 798.3L2327.6 786.9L2296.7 784.3L2285.8 794.4L2342.1 798.3Z" fill="#1D3575"/>
<path d="M2329.4 582.1L2322.4 595.6H2307.5L2316 582.1H2329.4Z" fill="#2945B3"/>
<path d="M2344.23 687.553L2462.03 691.087L2462.3 682.157L2344.5 678.623L2344.23 687.553Z" fill="#2D51BD"/>
<path d="M2366.2 736.2H2370.7V697.08H2366.2V736.2Z" fill="#2D51BD"/>
<path d="M2386.3 736.2H2390.8V697.08H2386.3V736.2Z" fill="#2D51BD"/>
<path d="M2407.2 736.2H2411.7V697.08H2407.2V736.2Z" fill="#2D51BD"/>
<path d="M1896.1 731V768L2037.2 778L2076.5 769.9V597.4L2057.6 575H2018L1995.6 597.4V607L1998.9 610.2V616.4L1995.6 622.2V661L2004.3 664.4V741L1979.6 716.3H1910.8L1896.1 731Z" fill="#2D51BD"/>
<path d="M1759.9 1000H1864.6V715.21H1759.9V1000Z" fill="#254087"/>
<path d="M1759.8 758.3V822.4L1769.3 833.5V872L1745.1 896.2V948.6H1798.5V758.3H1759.8Z" fill="#254087"/>
<path d="M1993.6 779.3V746.6L1997.9 745.1L1981.3 724.6L1975.2 724.1L1959 742.3L1961.6 744.9V759.3H1950.1L1939.4 772.9L1993.6 779.3Z" fill="#254087"/>
<path d="M1981.3 724.6L1997.9 745.1L1979.5 743L1972.5 733.4L1965.4 741.6L1959 742.3L1975.2 724.1L1981.3 724.6Z" fill="#1D3575"/>
<path d="M1979.9 694H1979.2L1978.5 731.6H1980.7L1979.9 694Z" fill="#1D3575"/>
<path d="M1970.6 754.3H1975V744.66H1970.6V754.3Z" fill="#1D3575"/>
<path d="M1950.1 759.3H1961.6V772.6L1940.8 771.1L1950.1 759.3Z" fill="#1D3575"/>
<path d="M2015.4 784.6H2080.7L2084 746.5H2049.9L2015.4 757.1V784.6Z" fill="#254087"/>
<path d="M1990.4 769.9L2002.7 771V778.7H1990.4V769.9Z" fill="#254087"/>
<path d="M2021.9 731.6H2021.3L2020.8 761.4H2022.3L2021.9 731.6Z" fill="#254087"/>
<path d="M2020.8 737.3V731.6L2014.6 738.9L2020.8 737.3Z" fill="#254087"/>
<path d="M1978.7 699.7L1978.8 694.2L1970.4 698.5L1978.7 699.7Z" fill="#254087"/>
<path d="M1976.9 726.1L1976 715.1H1974.1L1972.7 726.8L1976.9 726.1Z" fill="#1D3575"/>
<path d="M1896.1 731H1923.3L1928.7 725.6L1934.1 731.1H1948.7L1960.9 716.3H1910.8L1896.1 731Z" fill="#3445A1"/>
<path d="M1927.2 717.9H1929.5V713.72H1927.2V717.9Z" fill="#3445A1"/>
<path d="M1939.8 717.1H1955.2V714.88H1939.8V717.1Z" fill="#3445A1"/>
<path d="M1940.1 711.4H1937.9L1936.9 718.6H1940.5L1940.1 711.4Z" fill="#3445A1"/>
<path d="M1920.3 711.7H1919.5L1919 718H1920.8L1920.3 711.7Z" fill="#3445A1"/>
<path d="M1995.6 661H2037.2V678.8L2004.3 698.1V664.4L1995.6 661Z" fill="#2945B3"/>
<path d="M2005.4 654.4H2009.3V646.21H2005.4V654.4Z" fill="#2945B3"/>
<path d="M2026.6 646.2H2030.5V638.01H2026.6V646.2Z" fill="#2945B3"/>
<path d="M2011.2 627.7H2015.1V619.51H2011.2V627.7Z" fill="#2945B3"/>
<path d="M2037.2 575H2018L1995.6 597.4H2007.4L2014.1 590.7L2020.8 597.3H2032.7L2039.6 590.7L2046.5 597.6H2076.5L2057.6 575H2037.2Z" fill="#3445A1"/>
<path d="M2021.7 596.3L2027.2 590.8H2016.4L2021.7 596.3Z" fill="#314299"/>
<path d="M2047.4 596.3L2052.9 590.8H2042.1L2047.4 596.3Z" fill="#314299"/>
<path d="M2026.3 709.3H2028.2V698.06H2026.3V709.3Z" fill="#2945B3"/>
<path d="M2027.9 566.8H2026.3L2025.2 576.5H2029L2027.9 566.8Z" fill="#3445A1"/>
<path d="M2005.3 563.3C2007.43 562.786 2009.64 562.718 2011.8 563.1C2010.4 563.4 2008.6 564.6 2006.2 566.5C2009.2 565.8 2011 565.3 2013.3 566V560.7C2009.4 560.6 2008.8 561.1 2005.3 563.3Z" fill="#3445A1"/>
<path d="M2014.5 560.1L2013.9 559.5L2013.3 560.1L2013.6 560.4L2013.4 583H2014.3L2014.2 560.4L2014.5 560.1Z" fill="#3445A1"/>
<path d="M2016.9 606.7H1995.6L1998.9 610.2H2011.8L2016.9 606.7Z" fill="#2945B3"/>
<path d="M1957.1 716.2H1964.1V694.11H1957.1V716.2Z" fill="#3445A1"/>
<path d="M1762.2 756.2H1762.3C1771.8 756.2 1779.5 748.499 1779.5 739V711.27C1779.5 701.771 1771.8 694.07 1762.3 694.07H1762.2C1752.7 694.07 1745 701.771 1745 711.27V739C1745 748.499 1752.7 756.2 1762.2 756.2Z" fill="#254087"/>
<path d="M1762.3 704.4V683.5L1776.5 667L1774.6 662.8V656.8L1783.4 648.3H1800.1V762.8L1762.3 704.4Z" fill="#254087"/>
<path d="M1871.9 704.4V683.5L1857.7 667L1859.6 662.8V656.8L1850.8 648.3H1792.6V736.2L1834.1 762.8L1871.9 704.4Z" fill="#254087"/>
<path d="M1762.3 683.5H1850.7L1840.2 694H1795.4L1816.7 715.3H1771.8V702.1L1762.3 694V683.5Z" fill="#1D3575"/>
<path d="M1859.6 656.8H1774.6V662.8L1776.5 667H1812.2L1805.2 674L1795.8 683.4H1871.9L1857.7 667L1859.6 662.8V656.8Z" fill="#1D3575"/>
<path d="M1801.8 581.9V641.6H1831V581.9H1801.8ZM1813.6 621.8H1806.2V589.3H1807.1C1808.81 589.3 1810.45 589.971 1811.66 591.168C1812.88 592.366 1813.57 593.993 1813.6 595.7V621.8ZM1828 621.8H1816.4V597.3C1816.4 595.178 1817.24 593.143 1818.74 591.643C1820.24 590.143 1822.28 589.3 1824.4 589.3H1828V621.8Z" fill="#294896"/>
<path d="M1800.4 581H1832.4L1834.8 583.3L1832.4 585.7H1800.4L1798 583.3L1800.4 581Z" fill="#254087"/>
<path d="M1821.4 562.7V559.1H1820V562.3C1819.22 562.102 1818.41 562.002 1817.6 562H1815.5V555.1H1811.8V562.7C1809.66 563.434 1807.8 564.824 1806.49 566.672C1805.18 568.521 1804.48 570.734 1804.5 573V581H1828.6V573C1828.58 570.757 1827.88 568.572 1826.6 566.733C1825.31 564.894 1823.5 563.488 1821.4 562.7Z" fill="#294896"/>
<path d="M1833.4 648.3L1828 656.8H1774.6L1783.3 648.2L1833.4 648.3Z" fill="#1D3575"/>
<path d="M1790.7 678.3L1781.5 669L1771.7 678.8L1790.7 678.3Z" fill="#1D3575"/>
<path d="M1681.7 895.9H1707V784.54H1681.7V895.9Z" fill="#3D5EBF"/>
<path d="M1678.7 807.2H1709.9V787L1706.1 783.2H1682.5L1678.7 787V807.2Z" fill="#3D5EBF"/>
<path d="M1709.9 807.2L1705.8 811.4H1681.7L1678.7 807.2H1709.9Z" fill="#B07081"/>
<path d="M1701.6 852.7H1724.7L1737.5 865.5L1707.8 895.3L1699.5 879.3L1701.6 852.7Z" fill="#385ABF"/>
<path d="M1724.7 852.7L1716.4 860.9H1692.2L1701.1 852.1L1724.7 852.7Z" fill="#254087"/>
<path d="M1681.4 797.2L1689.1 789.5L1696.8 797.2H1681.4Z" fill="#3445A1"/>
<path d="M1689.1 800.5V807.2H1678.7L1681.7 811.4H1695.9V829.1L1707 827V810.2L1709.9 807.2H1706.6V792H1705.2V803.9H1696.8V800.2L1689.1 800.5Z" fill="#2C4EA3"/>
<path d="M1706.1 783.2V772.8L1691.9 761.4L1682.5 771.6V783.2H1706.1Z" fill="#3D5EBF"/>
<path d="M1686.9 771.5L1682.5 771.6L1691.9 761.4L1706.1 772.8H1699.1L1690.7 767.1L1686.9 771.5Z" fill="#3445A1"/>
<path d="M1692.9 766.3H1693.8V742.23H1692.9V766.3Z" fill="#3445A1"/>
<path d="M1689.2 764.7H1691.1V759.49H1689.2V764.7Z" fill="#3445A1"/>
<path d="M1699.8 757.6H1701.6L1702.4 771.1H1699L1699.8 757.6Z" fill="#3445A1"/>
<path d="M1698.7 778.8H1699.6V775.64H1698.7V778.8Z" fill="#3253B5"/>
<path d="M1695.7 788H1696.7V784.6H1695.7V788Z" fill="#3253B5"/>
<path d="M1701.3 801.4H1702.4V796.84H1701.3V801.4Z" fill="#3253B5"/>
<path d="M1685.2 784.7H1685.8V781.89H1685.2V784.7Z" fill="#3253B5"/>
<path d="M2252.2 792L2037.2 778V948.6H2287.5L2288.5 831.4L2252.2 792Z" fill="#254087"/>
<path d="M2259.3 817.7L2246.4 816.8L2237.4 825.3V851.2L2267.2 853.3V826.2L2259.3 817.7Z" fill="#1D3575"/>
<path d="M2237.4 888.4V1000H2267.2V889.3L2259.3 880.9L2246.4 880L2239.1 886.8L2237.4 888.4Z" fill="#1D3575"/>
<path d="M2254.7 820.8L2243.1 820L2234.9 827.6V851L2261.8 852.9V828.4L2254.7 820.8Z" fill="#2945B3"/>
<path d="M2233.9 891.7V1000H2261.8V892.6L2254.4 884.6L2242.4 883.8L2240.6 885.4L2239.1 886.8L2237.4 888.4C2236.3 889.4 2235.3 890.4 2233.9 891.7Z" fill="#2945B3"/>
<path d="M2205.7 813.9L2192.8 813L2183.8 821.5V847.4L2213.5 849.5V822.4L2205.7 813.9Z" fill="#965D6B"/>
<path d="M2183.8 884.6V948.6H2213.5V885.5L2205.7 877.1L2192.8 876.2L2185.5 883L2183.8 884.6Z" fill="#965D6B"/>
<path d="M2201.1 817L2189.4 816.2L2181.3 823.8V847.2L2208.2 849.2V824.6L2201.1 817Z" fill="#BF7887"/>
<path d="M2180.3 887.9V948.6H2208.2V888.8L2200.8 880.9L2188.8 880L2187 881.6L2185.5 883L2183.8 884.6C2182.58 885.639 2181.41 886.741 2180.3 887.9Z" fill="#BF7887"/>
<path d="M2152.1 810.1L2139.2 809.2L2130.1 817.7V843.6L2159.9 845.7V818.6L2152.1 810.1Z" fill="#965D6B"/>
<path d="M2130.1 880.9V948.6H2159.9V881.7L2152 873.3L2139.2 872.4L2131.9 879.2L2130.1 880.9Z" fill="#965D6B"/>
<path d="M2147.5 813.2L2135.8 812.4L2127.7 820V843.5L2154.6 845.4V820.8L2147.5 813.2Z" fill="#BF7887"/>
<path d="M2126.7 884.1V948.6H2154.5V885L2147.2 877.1L2135.2 876.2L2133.4 877.8L2131.9 879.2L2130.1 880.9L2126.7 884.1Z" fill="#BF7887"/>
<path d="M2098.4 806.3L2085.6 805.4L2076.5 813.9V839.8L2106.3 841.9V814.8L2098.4 806.3Z" fill="#965D6B"/>
<path d="M2076.5 877.1V948.6H2106.3V878L2098.4 869.5L2085.6 868.6L2078.3 875.4L2076.5 877.1Z" fill="#965D6B"/>
<path d="M2093.8 809.4L2082.2 808.6L2074 816.2V839.7L2100.9 841.6V817L2093.8 809.4Z" fill="#BF7887"/>
<path d="M2073.1 880.3V948.6H2100.9V881.2L2093.6 873.3L2081.5 872.4L2079.8 874L2078.3 875.4L2076.5 877.1L2073.1 880.3Z" fill="#BF7887"/>
<path d="M2516.7 708.9L2497.1 728.6H2546.8L2561.5 708.9H2516.7Z" fill="#3445A1"/>
<path d="M2544.9 758.4H2500.5V760.19H2544.9V758.4Z" fill="#3445A1"/>
<path d="M2563.4 739.7H2560.3V746H2563.4V739.7Z" fill="#3445A1"/>
<path d="M2585 759.3H2572.5L2562.9 768.8H2582.8L2592.8 760.1L2585 752.3V759.3Z" fill="#3445A1"/>
<path d="M2608.2 700L2625.3 699.2L2617.1 691L2608.2 700Z" fill="#3445A1"/>
<path d="M2619.7 717.8H2618.2V725.42H2619.7V717.8Z" fill="#3445A1"/>
<path d="M2606.3 711.2H2604.8V718.82H2606.3V711.2Z" fill="#3445A1"/>
<path d="M2603 739.1H2601.5V746.72H2603V739.1Z" fill="#3445A1"/>
<path d="M2633.5 723.9H2632V731.52H2633.5V723.9Z" fill="#3445A1"/>
<path d="M2219.9 741H2216.1V750.39H2219.9V741Z" fill="#3445A1"/>
<path d="M2234 661H2230.2V668.25H2234V661Z" fill="#3445A1"/>
<path d="M2288.7 681.6V655.6L2291.1 650.4H2252.2H2240.5V687.9H2225.8L2216.6 678.7L2199.6 695.7H2191.4V704.8H2169.2L2151.3 725.7H2165L2173.5 717.2L2182.3 726H2192.3L2213.5 704.8H2228.5V738.8H2252.2H2257.3L2277.8 759.3V733.6L2291.5 719.9V696.2H2296.1L2307.3 685H2291.1L2288.7 681.6Z" fill="#385ABF"/>
<path d="M2237.3 769.4H2198.6V771.76H2237.3V769.4Z" fill="#3445A1"/>
<path d="M2058 771.8H2062.1V761.46H2058V771.8Z" fill="#965D6B"/>
<path d="M2049.9 746.5L2029.2 767.1V777.3L2037.2 778V789.6H2073.1V746.5H2049.9Z" fill="#1B366E"/>
<path d="M2048.9 557.8H2052L2052.9 578.6H2048L2048.9 557.8Z" fill="#3445A1"/>
<path d="M2043.7 575.9H2049.9V572.46H2043.7V575.9Z" fill="#3445A1"/>
<path d="M2194.4 778.7H2160.4V740.1L2174.2 726.3V681.3H2160.4V536.5L2170.5 521H2156.4L2153.6 512.8C2152.24 508.924 2149.71 505.565 2146.36 503.183C2143.01 500.802 2139.01 499.515 2134.9 499.5H2126.7V446L2132.4 442L2120.6 433.8C2121.4 433.169 2122.06 432.364 2122.51 431.447C2122.96 430.529 2123.19 429.522 2123.2 428.5C2123 426.851 2122.2 425.333 2120.96 424.232C2119.71 423.131 2118.11 422.523 2116.45 422.523C2114.79 422.523 2113.19 423.131 2111.94 424.232C2110.7 425.333 2109.9 426.851 2109.7 428.5C2109.71 429.522 2109.94 430.529 2110.4 431.447C2110.85 432.364 2111.5 433.169 2112.3 433.8L2100.5 442L2106.3 446V499.5H2098C2093.89 499.515 2089.89 500.802 2086.54 503.183C2083.19 505.565 2080.66 508.924 2079.3 512.8L2076.5 521H2062.5L2072.5 536.5V677H2054.6V726.6L2070.5 742.5V805.3L2062.3 813.4V825.9L2046.7 841.5V901.4L2053.2 907.8V949.1H2114V948.6H2213.5V817.7L2194.4 778.7Z" fill="#1B366E"/>
<path d="M2249.1 530.6L2242.5 481L2223 530.6H2214.5L2210.1 540.4H2229.6V557.8L2221.7 549.9H2210.1V590.6L2241.1 559.5H2266.4V552.8H2259.7V539.7H2287.9L2280.4 530.7L2249.1 530.6Z" fill="#2945B3"/>
<path d="M2667.6 736.3H2707.6V948.6H2673.9V760.1L2667.6 752.3V736.3Z" fill="#1B366E"/>
<path d="M2739.7 736.3H2699.7V948.6H2733.5V760.1L2739.7 752.3V736.3Z" fill="#1B366E"/>
<path d="M2678.7 755H2728.5V643.8H2678.7V755Z" fill="#1B366E"/>
<path d="M965.201 639.5L959.301 645.5V662.8H954.601V645.5C956.901 643.1 958.201 641.8 960.601 639.5H965.201Z" fill="#26428C"/>
<path d="M995.1 639.5L989.201 645.5V662.8H984.5V645.5C986.8 643.1 988.1 641.8 990.5 639.5H995.1Z" fill="#26428C"/>
<path d="M1025 639.5L1019.1 645.5V662.8H1014.4V645.5C1016.7 643.1 1018 641.8 1020.4 639.5H1025Z" fill="#26428C"/>
<path d="M758.9 895L785.4 911.7H792.6V883.2L798 879.1V805.6H839.7V841.2L848.7 850.1V920.5L866.6 931.7V948.4H758.9V895Z" fill="#2A4B9C"/>
<path d="M794.201 814.9V807.3L791.101 801.6L799.101 787H806.601V770L810.101 767.1L812.001 747.9L809.801 745.5H815.801L814.401 747.9L815.801 767.3L818.401 770.4V780L823.201 776.7V755.6H825.901V767.1L835.001 770.9V784.8L844.301 791.8L848.401 802.1L843.601 808.7V814.9L838.001 820.4H799.801L794.201 814.9Z" fill="#2A4B9C"/>
<path d="M1401.8 948.4H1347.3V821.4H1354.4L1368.9 835.8V809L1375.1 802.8H1382.1V775.7L1379.4 773V758.8L1387.4 750.8H1401.8L1408.5 758.9V772.4L1405.3 775.2V790.4L1408.5 793.3L1409 803.1H1410.6L1411.8 798.4H1413.5L1415 802.9V822.2L1419.1 825V948.6L1401.8 948.4Z" fill="#254087"/>
<path d="M1347.3 900.7L1356.6 891.3H1364.8L1361.6 900.7L1377.4 916.4V931H1371.8L1360.6 916.1H1340.7L1347.3 900.7Z" fill="#1D3575"/>
<path d="M330.6 785.7L292.4 756.2V948.4H330.6V785.7Z" fill="#243E82"/>
<path d="M550.5 948.4H292.4V894.8H559.1L550.5 948.4Z" fill="#1B366E"/>
<path d="M522.6 948.4L502.701 909.9L465 902.3L472.6 907.9L489.9 924.1L495.8 920.5L522.6 948.4Z" fill="#254087"/>
<path d="M311.5 894.8V849.4L318 841.2V772.7L301.5 756.2H292.4V907.9L311.5 894.8Z" fill="#1B366E"/>
<path d="M305.2 624.5L317.9 611.8L334.1 628.1L305.2 624.5Z" fill="#2A4B9C"/>
<path d="M336.9 645.3H324.5V673.7H336.9V645.3Z" fill="#2F54AD"/>
<path d="M1406.1 842.4V866.6H1525.5V842.4H1406.1ZM1430 861.2H1420.4V851.4L1423.8 848.1H1426.7L1430 851.4V861.2ZM1447.1 861.2H1437.5V851.4L1440.9 848.1H1443.8L1447.1 851.4V861.2ZM1464 861.2H1454.4V851.4L1457.7 848.1H1460.7L1464 851.4V861.2ZM1480.9 861.2H1471.3V851.4L1474.6 848.1H1477.5L1480.9 851.4V861.2ZM1499.7 861.2H1490.1V851.4L1493.4 848.1H1496.4L1499.7 851.4V861.2ZM1518.5 861.2H1509V851.4L1512.3 848.1H1515.2L1518.5 851.4V861.2Z" fill="#254087"/>
<path d="M1474.6 848.1L1471.3 851.4V861.2H1468.7V851.4L1472 848.1H1474.6Z" fill="#1D3575"/>
<path d="M1457.7 848.1L1454.4 851.4V861.2H1451.8V851.4L1455.1 848.1H1457.7Z" fill="#1D3575"/>
<path d="M1440.9 848.1L1437.5 851.4V861.2H1434.9V851.4L1438.2 848.1H1440.9Z" fill="#1D3575"/>
<path d="M1493.4 848.1L1490.1 851.4V861.2H1487.5V851.4L1490.8 848.1H1493.4Z" fill="#1D3575"/>
<path d="M1512.3 848.1L1509 851.4V861.2H1506.3V851.4L1509.7 848.1H1512.3Z" fill="#1D3575"/>
<path d="M1423.8 848.1L1420.4 851.4V861.2H1417.8V851.4L1421.1 848.1H1423.8Z" fill="#1D3575"/>
<path d="M1455.7 840.5H1448.2V842.67H1455.7V840.5Z" fill="#254087"/>
<path d="M1469.5 828.8L1466 832.3V843.9H1473.1V832.3L1469.5 828.8Z" fill="#254087"/>
<path d="M1469.9 821.3H1469.3V831.72H1469.9V821.3Z" fill="#254087"/>
<path d="M1470.5 821.3L1473.7 823L1470.5 823.3V821.3Z" fill="#254087"/>
<path d="M1471.3 834.5H1470.5V837.13H1471.3V834.5Z" fill="#1D3575"/>
<path d="M1442.4 840.5H1440.7V843.02H1442.4V840.5Z" fill="#254087"/>
<path d="M1419.1 891L1434.9 904.7L1439.7 913.9L1448.2 923L1451.8 891H1459.2L1461.4 912.4H1473.1L1484.6 926.2L1506.1 931L1517.8 948.6H1401.8L1419.1 891Z" fill="#254087"/>
<path d="M1602.6 792H1537.2V948.58H1602.6V792Z" fill="#2A4B9C"/>
<path d="M1610.4 834.5H1532.1V783.6L1541.6 774.1H1600.9L1610.4 783.6V834.5Z" fill="#2A4B9C"/>
<path d="M1603.7 809.3L1584.4 790L1565.1 809.3H1603.7Z" fill="#254087"/>
<path d="M1584.4 817.5V834.5H1610.4L1603 845H1567.4V889.5L1539.5 884.1V842L1532.1 834.5H1540.5V796.3H1543.9V826.3H1565.1V816.9L1584.4 817.5Z" fill="#284794"/>
<path d="M1541.6 774.1V748L1577.3 719.3L1600.9 745.1V774.1H1541.6Z" fill="#2A4B9C"/>
<path d="M1590 744.8L1600.9 745.1L1577.3 719.3L1541.6 748H1559.2L1580.3 733.7L1590 744.8Z" fill="#254087"/>
<path d="M1583.9 714.7H1579.2V727.77H1583.9V714.7Z" fill="#254087"/>
<path d="M1557.4 710H1553L1551 743.9H1559.4L1557.4 710Z" fill="#254087"/>
<path d="M1560.4 755.2H1558.2V763.13H1560.4V755.2Z" fill="#3D5EBF"/>
<path d="M1567.6 777.7H1565.1V786.25H1567.6V777.7Z" fill="#274691"/>
<path d="M1553.8 808.5H1551V819.96H1553.8V808.5Z" fill="#254087"/>
<path d="M1594.2 770.9H1592.7V777.95H1594.2V770.9Z" fill="#274691"/>
<path d="M1560.9 828.4H1525.4V948.56H1560.9V828.4Z" fill="#254087"/>
<path d="M1568.9 834H1519.3L1530.2 848H1558L1568.9 834Z" fill="#254087"/>
<path d="M1519.3 834V829.7H1523.6L1535 818.3H1539.1L1543.7 813.7H1549L1553.5 818.2H1555.3L1567.2 830.2H1568.9V834H1519.3Z" fill="#254087"/>
<path d="M1527.4 883.5L1522.8 890.1V916.7L1527.4 926.2V883.5Z" fill="#254087"/>
<path d="M1549.8 894.1L1558.7 888.5H1566.4L1571.4 894.1V916.5L1575.2 919V948.6H1552.6L1549.8 894.1Z" fill="#254087"/>
<path d="M2220.1 595.2H2201.9L2191.4 609.8H2230.6L2220.1 595.2Z" fill="#3445A1"/>
<path d="M1692.2 860.9V869.5L1681.7 877.1L1679.8 896.1L1700.8 886.6L1705 889L1691.2 910.5L1711 905.3L1714.8 907.3L1730 880.9L1734.1 877.6L1734.4 862.4L1724.7 852.7L1716.4 860.9H1692.2Z" fill="#2C4EA3"/>
<path d="M2545 687.7L2556.3 676.5L2567.5 687.7H2545Z" fill="#2945B3"/>
<path d="M2351.9 772.1L2363.2 760.9L2374.4 772.1H2351.9Z" fill="#2945B3"/>
<path d="M2632 473.6L2637.6 468L2643.2 473.6H2632Z" fill="#2945B3"/>
<path d="M2662 560.1L2676.6 545.6L2691.1 560.1H2662Z" fill="#2945B3"/>
<path d="M1021.7 907H1101.6L1106.8 912.2L1121.9 897.1V861.7H1127.4V874.3H1164.9V907L1184.4 920.1V1000H1021.7V907Z" fill="#254087"/>
<path d="M2703.7 617.3C2700.44 617.287 2697.2 617.919 2694.18 619.159C2691.16 620.399 2688.41 622.224 2686.1 624.528C2683.79 626.833 2681.95 629.571 2680.7 632.586C2679.45 635.602 2678.8 638.835 2678.8 642.1H2728.6C2728.57 635.513 2725.94 629.206 2721.27 624.558C2716.61 619.91 2710.29 617.3 2703.7 617.3Z" fill="#1B366E"/>
<path d="M2709.7 618H2697.6L2698.3 615.7H2709L2709.7 618Z" fill="#1B366E"/>
<path d="M2728.6 642.1H2678.8V690.74H2728.6V642.1Z" fill="#1B366E"/>
<path d="M2730 660H2677.4L2671.9 654.5V647.6L2677.4 642.1H2730L2735.4 647.6V654.5L2730 660Z" fill="#1B366E"/>
<path d="M2706.6 618L2700.8 617.8V604.8L2706.6 605V618Z" fill="#1B366E"/>
<path d="M2704.7 606.5H2702.6L2703.1 592.5H2704.2L2704.7 606.5Z" fill="#1B366E"/>
<path d="M2689.4 855.4H2660.6L2627.5 889.8V948.6H2823.9V927.5L2810.4 912.5V850.6L2791.6 824.3H2778.8L2772.8 795.6H2765.6L2764 813.9H2755.7V823.9H2749.3L2747.7 804.8H2742.9L2739.7 823.9H2699.7L2689.4 855.4Z" fill="#1B366E"/>
<path d="M2866 733H2836.2L2888 769.9L2866 733Z" fill="#233B80"/>
<path d="M2846.4 755.2H2842.1V760.89H2846.4V755.2Z" fill="#233B80"/>
<path d="M2844.8 810.1L2825.8 823.3H2863.9L2844.8 810.1Z" fill="#233B80"/>
<path d="M2820.8 778.9H2819V783.65H2820.8V778.9Z" fill="#233B80"/>
<path d="M2857.3 948.6V910.1L2871.1 899.5H2879.7L2884 849.7H2901.5L2906.8 883.9L2917.7 875.7L2929.6 884.3L2932.4 918.1L2940.7 926.4V948.6H2857.3Z" fill="#233B80"/>
<path d="M2857.3 910.1L2871.1 899.5H2899V910.1H2857.3Z" fill="#1B366E"/>
<path d="M126.4 898.1C126.676 898.1 126.949 898.154 127.204 898.26C127.459 898.365 127.69 898.52 127.885 898.715C128.08 898.91 128.235 899.142 128.34 899.396C128.446 899.651 128.5 899.924 128.5 900.2V916.6H124.2V900.2C124.2 899.916 124.257 899.634 124.369 899.373C124.481 899.111 124.644 898.875 124.85 898.679C125.056 898.482 125.299 898.33 125.566 898.23C125.832 898.131 126.116 898.086 126.4 898.1Z" fill="#3558BD"/>
<path d="M112.501 898.1C112.777 898.1 113.05 898.154 113.304 898.26C113.559 898.365 113.791 898.52 113.986 898.715C114.181 898.91 114.335 899.142 114.441 899.396C114.546 899.651 114.601 899.924 114.601 900.2V916.6H110.301V900.2C110.3 899.916 110.358 899.634 110.47 899.373C110.581 899.111 110.745 898.875 110.951 898.679C111.156 898.482 111.4 898.33 111.666 898.23C111.933 898.131 112.217 898.086 112.501 898.1Z" fill="#3558BD"/>
<path d="M98.6004 898.1C98.8762 898.1 99.1492 898.154 99.404 898.26C99.6588 898.365 99.8903 898.52 100.085 898.715C100.28 898.91 100.435 899.142 100.541 899.396C100.646 899.651 100.7 899.924 100.7 900.2V916.6H96.4004V900.2C96.4001 899.916 96.4575 899.634 96.5692 899.373C96.681 899.111 96.8447 898.875 97.0504 898.679C97.2561 898.482 97.4996 898.33 97.766 898.23C98.0325 898.131 98.3163 898.086 98.6004 898.1Z" fill="#3558BD"/>
<path d="M84.7 898.1C84.9758 898.1 85.2488 898.154 85.5036 898.26C85.7584 898.365 85.9899 898.52 86.1849 898.715C86.3799 898.91 86.5346 899.142 86.6401 899.396C86.7457 899.651 86.8 899.924 86.8 900.2V916.6H82.5V900.2C82.4997 899.916 82.5571 899.634 82.6689 899.373C82.7806 899.111 82.9443 898.875 83.15 898.679C83.3557 898.482 83.5992 898.33 83.8656 898.23C84.1321 898.131 84.4159 898.086 84.7 898.1Z" fill="#3558BD"/>
<path d="M141.7 790.3H85.7004L66.9004 809.2H162L141.7 790.3Z" fill="#3558BD"/>
<path d="M551.7 941L546.3 973.5L573.7 1000H640.6L655.8 943.4L551.7 941Z" fill="#2A4B9C"/>
<path d="M866.6 941.6L872.401 961.4H880.5L882 942.4H1021.9V976.3L1021.7 1000H748.5L752.5 941.6H866.6Z" fill="#2A4B9C"/>
<path d="M640.601 1000L655.801 943.4H752.501V970.5L764.201 988.2V1000H640.601Z" fill="#2D51BD"/>
<path d="M881.101 953.5L906.101 961.8L962.001 951.2L990.301 968.5L1003.1 959.8L1021.9 942.4L997.201 926.5L882.001 942.4L881.101 953.5Z" fill="#2D51BD"/>
<path d="M1220.7 948.4L1214.3 968.5L1184.4 989.4V948.4H1220.7Z" fill="#2D51BD"/>
<path d="M2065.3 926L2037.2 938.3L2008.5 929H1822.6L1781.2 960.3V1000H2219.9V935.8L2169.2 912.4L2065.3 926Z" fill="#1B366E"/>
<path d="M1767.3 943.1H1726.8V1000.02H1767.3V943.1Z" fill="#254087"/>
<path d="M2649.3 935H2569.9L2545 961.6V1000H2857.3V989.7L2823.9 948.6L2649.3 935Z" fill="#1B366E"/>
<path d="M2857.3 948.6L2817.5 969.8V1000H2957.9V970.8L2940.7 948.6H2857.3Z" fill="#233B80"/>
<path d="M2301.9 967.5L2208.2 956.2V1000H2301.9V967.5Z" fill="#1B366E"/>
<path d="M1841.2 848.7L1817.9 872V956.2H1864.5V872L1841.2 848.7Z" fill="#1B366E"/>
<path d="M144.9 940.6L100.7 959.7V1000H215.1V935.6L144.9 940.6Z" fill="#2A4B9C"/>
</g>
<defs>
<linearGradient id="paint0_linear" x1="1535.22" y1="733.01" x2="1535.22" y2="125.47" gradientUnits="userSpaceOnUse">
<stop stop-color="#6496E7"/>
<stop offset="1" stop-color="#1D3ECF"/>
</linearGradient>
<linearGradient id="paint1_linear" x1="344.5" y1="578.18" x2="438.52" y2="578.18" gradientUnits="userSpaceOnUse">
<stop stop-color="#F2FFDE"/>
<stop offset="1" stop-color="#FCBAE0"/>
</linearGradient>
<linearGradient id="paint2_linear" x1="27950.4" y1="11467" x2="30080.1" y2="11467" gradientUnits="userSpaceOnUse">
<stop stop-color="#F2FFDE"/>
<stop offset="1" stop-color="#FCBAE0"/>
</linearGradient>
<linearGradient id="paint3_linear" x1="36197" y1="3015.74" x2="36441.8" y2="3015.74" gradientUnits="userSpaceOnUse">
<stop stop-color="#F2FFDE"/>
<stop offset="1" stop-color="#FCBAE0"/>
</linearGradient>
<linearGradient id="paint4_linear" x1="2051.66" y1="81.59" x2="2051.66" y2="78.63" gradientUnits="userSpaceOnUse">
<stop stop-color="#A8D8FF"/>
<stop offset="0.15" stop-color="#84B0F3"/>
<stop offset="0.34" stop-color="#5F87E6"/>
<stop offset="0.52" stop-color="#4267DC"/>
<stop offset="0.69" stop-color="#2E50D5"/>
<stop offset="0.86" stop-color="#2143D0"/>
<stop offset="1" stop-color="#1D3ECF"/>
</linearGradient>
<clipPath id="clip0">
<rect width="3000" height="1000" fill="white"/>
</clipPath>
</defs>
</svg>
