<svg xmlns="http://www.w3.org/2000/svg" xmlns:svgjs="http://svgjs.com/svgjs" xmlns:xlink="http://www.w3.org/1999/xlink" style="enable-background:new 0 0 512 512" width="512" height="512" x="0" y="0" version="1.1" viewBox="0 0 497.882 497.882" xml:space="preserve"><g><path xmlns="http://www.w3.org/2000/svg" fill="#5865F2" d="m295.617 0c-106.104 61.135-93.353 233.382-93.353 233.382s-46.676-15.559-46.676-85.573c-55.688 32.291-93.353 94.357-93.353 163.367 0 103.115 83.591 186.706 186.706 186.706s186.706-83.591 186.706-186.706c-.001-151.698-140.03-182.816-140.03-311.176zm-30.276 433.549c-37.518 9.354-75.517-13.477-84.873-50.997-9.354-37.518 13.477-75.519 50.997-84.873 90.58-22.584 101.932-73.521 101.932-73.521s45.169 181.16-68.056 209.391z" data-original="#000000"/></g></svg>