<svg xmlns="http://www.w3.org/2000/svg" xmlns:svgjs="http://svgjs.com/svgjs" xmlns:xlink="http://www.w3.org/1999/xlink" style="enable-background:new 0 0 512 512" width="512" height="512" x="0" y="0" version="1.1" viewBox="0 0 512 512" xml:space="preserve"><g><linearGradient xmlns="http://www.w3.org/2000/svg" id="SVGID_1_" x1="256" x2="256" y1="512" y2="0" gradientUnits="userSpaceOnUse"><stop offset="0" stop-color="#ed4245" stop-opacity="1"/><stop offset="1" stop-color="#fd3a84" stop-opacity="1"/></linearGradient><linearGradient xmlns="http://www.w3.org/2000/svg" id="SVGID_2_" x1="256" x2="256" y1="421" y2="121" gradientUnits="userSpaceOnUse"><stop offset="0" stop-color="#ff9cd1" stop-opacity="1"/><stop offset="1" stop-color="#ffc2cc" stop-opacity="1"/></linearGradient><g xmlns="http://www.w3.org/2000/svg"><g><g><circle cx="256" cy="256" r="256" fill="url(#SVGID_1_)" data-original="url(#SVGID_1_)"/></g></g><g><g><path fill="url(#SVGID_2_)" d="m331 121c-32.928 0-58.183 18.511-75 46.058-16.82-27.552-42.077-46.058-75-46.058-25.511 0-48.788 10.768-65.541 30.32-15.772 18.409-24.459 42.993-24.459 69.225 0 28.523 10.698 54.892 33.666 82.986 20.138 24.632 49.048 49.971 82.524 79.313 12.376 10.848 25.174 22.065 38.775 34.306 2.853 2.567 6.444 3.85 10.035 3.85s7.182-1.283 10.035-3.851c13.601-12.241 26.398-23.458 38.775-34.306 33.476-29.341 62.386-54.681 82.524-79.313 22.968-28.092 33.666-54.462 33.666-82.985 0-53.637-36.748-99.545-90-99.545z" data-original="url(#SVGID_2_)"/></g></g></g></g></svg>