<svg xmlns="http://www.w3.org/2000/svg" xmlns:svgjs="http://svgjs.com/svgjs" xmlns:xlink="http://www.w3.org/1999/xlink" style="enable-background:new 0 0 512 512" width="512" height="512" x="0" y="0" version="1.1" viewBox="0 0 512 512" xml:space="preserve"><g><g xmlns="http://www.w3.org/2000/svg"><path fill="#5865F2" d="M56.12,463.255H5.151c-2.833,0-5.151,2.317-5.151,5.15v34.413h56.12V463.255z" data-original="#9ea7af"/><path fill="#5865F2" d="M506.849,463.255H455.88v39.563H512v-34.413C512,465.572,509.682,463.255,506.849,463.255z" data-original="#9ea7af"/></g><g xmlns="http://www.w3.org/2000/svg" style="opacity:.1"><path fill="#00003f" d="M36.571,463.255H5.151c-2.833,0-5.151,2.317-5.151,5.15v34.413h31.42v-34.413 C31.42,465.572,33.738,463.255,36.571,463.255z" data-original="#00003f"/></g><rect xmlns="http://www.w3.org/2000/svg" width="151.89" height="40.631" x="180.06" y="396" fill="#5865F2" data-original="#9ea7af"/><path xmlns="http://www.w3.org/2000/svg" fill="#5d79da" d="M55.12,502.818V440.6c0-2.833,2.318-5.151,5.151-5.151H451.73c2.833,0,5.151,2.318,5.151,5.151 v62.218H55.12z" data-original="#c5ccd3"/><g xmlns="http://www.w3.org/2000/svg" style="opacity:.1"><path fill="#00003f" d="M92.211,435.449h-31.94c-2.833,0-5.151,2.318-5.151,5.151v62.218h31.941V440.6 C87.061,437.767,89.378,435.449,92.211,435.449z" data-original="#00003f"/></g><path xmlns="http://www.w3.org/2000/svg" fill="#5865F2" d="M99.371,86.082c-2.62,0-5.139-0.425-7.5-1.2V138h15V84.882 C104.51,85.657,101.99,86.082,99.371,86.082z" data-original="#9ea7af"/><circle xmlns="http://www.w3.org/2000/svg" cx="99.37" cy="63.16" r="24.04" fill="#ED4245" data-original="#fb8276"/><path xmlns="http://www.w3.org/2000/svg" fill="#5865F2" d="M412.629,86.082c-2.62,0-5.139-0.425-7.5-1.2V138h15V84.882 C417.769,85.657,415.249,86.082,412.629,86.082z" data-original="#9ea7af"/><circle xmlns="http://www.w3.org/2000/svg" cx="412.63" cy="63.16" r="24.04" fill="#ED4245" data-original="#fb8276"/><g xmlns="http://www.w3.org/2000/svg"><path fill="#5865F2" d="M47.545,202.723H10.302C4.636,202.723,0,207.359,0,213.025v108.008 c0,5.666,4.636,10.302,10.302,10.302h37.244L47.545,202.723L47.545,202.723z" data-original="#9ea7af"/><path fill="#5865F2" d="M501.698,202.723h-37.244v128.612h37.244c5.666,0,10.302-4.636,10.302-10.302V213.025 C512,207.359,507.364,202.723,501.698,202.723z" data-original="#9ea7af"/></g><g xmlns="http://www.w3.org/2000/svg" style="opacity:.1"><path fill="#00003f" d="M21.119,321.033V213.025c0-5.666,4.636-10.302,10.302-10.302H10.302 C4.636,202.723,0,207.359,0,213.025v108.008c0,5.666,4.636,10.302,10.302,10.302H31.42 C25.754,331.335,21.119,326.699,21.119,321.033z" data-original="#00003f"/></g><path xmlns="http://www.w3.org/2000/svg" fill="#5d79da" d="M61.998,136.579c-8.499,0-15.453,6.954-15.453,15.453v229.994c0,8.499,6.954,15.453,15.453,15.453 h388.004c8.499,0,15.453-6.954,15.453-15.453V152.032c0-8.499-6.954-15.453-15.453-15.453H61.998z" data-original="#c5ccd3"/><g xmlns="http://www.w3.org/2000/svg" style="opacity:.1"><path fill="#00003f" d="M71.27,382.026V152.032c0-8.499,6.954-15.453,15.453-15.453H61.998 c-8.499,0-15.453,6.954-15.453,15.453v229.994c0,8.499,6.954,15.453,15.453,15.453h24.724 C78.223,397.478,71.27,390.525,71.27,382.026z" data-original="#00003f"/></g><path xmlns="http://www.w3.org/2000/svg" fill="#36393f" d="M88.443,360.732c-2.833,0-5.151-2.318-5.151-5.151V178.476c0-2.833,2.318-5.151,5.151-5.151h335.114 c2.833,0,5.151,2.318,5.151,5.151v177.105c0,2.833-2.318,5.151-5.151,5.151H88.443z" data-original="#004777"/><g xmlns="http://www.w3.org/2000/svg" style="opacity:.1"><path fill="#00003f" d="M115.589,355.581V178.476c0-2.833,2.318-5.151,5.151-5.151H88.443c-2.833,0-5.151,2.318-5.151,5.151 v177.105c0,2.833,2.318,5.151,5.151,5.151h32.297C117.907,360.732,115.589,358.414,115.589,355.581z" data-original="#00003f"/></g><path xmlns="http://www.w3.org/2000/svg" fill="#fcdb67" d="M200.154,173.326l11.461,22.796c0.764,1.518,2.779,2.761,4.479,2.761h79.811 c1.7,0,3.715-1.242,4.479-2.761l11.461-22.796H200.154z" data-original="#fcdb67"/><g xmlns="http://www.w3.org/2000/svg"><path fill="#57F287" d="M170.259,271.899c0,1.7-1.391,3.091-3.091,3.091h-25.666c-1.7,0-3.09-1.391-3.09-3.091v-47.714 c0-1.699,1.391-3.09,3.09-3.09h25.666c1.7,0,3.091,1.391,3.091,3.09V271.899z" data-original="#33c7ca"/><path fill="#57F287" d="M373.588,271.899c0,1.7-1.391,3.091-3.09,3.091h-25.666c-1.7,0-3.091-1.391-3.091-3.091v-47.714 c0-1.699,1.391-3.09,3.091-3.09h25.666c1.7,0,3.09,1.391,3.09,3.09L373.588,271.899L373.588,271.899z" data-original="#33c7ca"/><path fill="#57F287" d="M311.12,314.005c0,1.699-1.391,3.09-3.09,3.09H203.971c-1.7,0-3.09-1.391-3.09-3.09v-21.686 c0-1.699,1.391-3.09,3.09-3.09H308.03c1.7,0,3.09,1.391,3.09,3.09V314.005z" data-original="#33c7ca"/><path fill="#57F287" d="M267.964,93.737c-2.102,0-4.877-0.735-7.563-3.677l-32.668-35.799v8.492 c0,6.976-5.675,12.651-12.651,12.651h-54.46c-4.142,0-7.5-3.358-7.5-7.5s3.358-7.5,7.5-7.5h52.111V40.065 c0-6.737,4.446-8.985,5.809-9.513c1.362-0.527,6.162-1.865,10.703,3.112l32.667,35.799V19.242c0-6.774,4.472-8.998,5.842-9.518 c1.371-0.519,6.191-1.824,10.686,3.246l31.171,35.174c0.514,0.544,2.207,1.306,2.963,1.33h38.803c4.142,0,7.5,3.358,7.5,7.5 s-3.358,7.5-7.5,7.5h-38.812c-4.94,0-10.904-2.684-14.181-6.382l-21.473-24.23v49.796c0,6.737-4.446,8.984-5.809,9.513 C270.547,93.386,269.417,93.737,267.964,93.737z" data-original="#33c7ca"/></g><path xmlns="http://www.w3.org/2000/svg" fill="#368c0e" d="M337.13,477.244c-1.97,0-3.91-0.8-5.3-2.19c-1.4-1.4-2.2-3.33-2.2-5.31c0-1.97,0.8-3.9,2.2-5.3 c1.39-1.4,3.33-2.2,5.3-2.2c1.98,0,3.91,0.8,5.3,2.2c1.4,1.4,2.2,3.33,2.2,5.3c0,1.98-0.8,3.91-2.2,5.31 C341.04,476.443,339.11,477.244,337.13,477.244z" data-original="#368c0e"/><path xmlns="http://www.w3.org/2000/svg" fill="#c0272d" d="M376.65,477.244c-1.97,0-3.91-0.8-5.3-2.19c-1.4-1.4-2.2-3.33-2.2-5.31c0-1.97,0.8-3.91,2.2-5.3 c1.39-1.4,3.33-2.2,5.3-2.2c1.98,0,3.91,0.8,5.3,2.2c1.4,1.4,2.2,3.33,2.2,5.3c0,1.98-0.8,3.91-2.2,5.31 C380.56,476.443,378.63,477.244,376.65,477.244z" data-original="#c0272d"/><g xmlns="http://www.w3.org/2000/svg"><path fill="#57F287" d="M416.17,477.244c-1.97,0-3.91-0.8-5.3-2.19c-1.4-1.4-2.2-3.33-2.2-5.31c0-1.97,0.8-3.9,2.2-5.3 c1.39-1.4,3.33-2.2,5.3-2.2s3.91,0.8,5.3,2.2c1.4,1.4,2.2,3.33,2.2,5.3c0,1.98-0.8,3.91-2.2,5.31 C420.08,476.443,418.14,477.244,416.17,477.244z" data-original="#33c7ca"/><path fill="#57F287" d="M159.524,477.246H95.83c-4.142,0-7.5-3.358-7.5-7.5s3.358-7.5,7.5-7.5h63.694 c4.142,0,7.5,3.358,7.5,7.5S163.666,477.246,159.524,477.246z" data-original="#33c7ca"/></g></g></svg>