<svg xmlns="http://www.w3.org/2000/svg" xmlns:svgjs="http://svgjs.com/svgjs" xmlns:xlink="http://www.w3.org/1999/xlink" style="enable-background:new 0 0 512 512" width="512" height="512" x="0" y="0" version="1.1" viewBox="0 0 512 512" xml:space="preserve"><g><linearGradient xmlns="http://www.w3.org/2000/svg" id="SVGID_1_" x1="256" x2="256" y1="464.305" y2="0" gradientUnits="userSpaceOnUse"><stop offset="0" stop-color="#ffc2cc"/><stop offset="1" stop-color="#fff2f4"/></linearGradient><linearGradient xmlns="http://www.w3.org/2000/svg" id="SVGID_2_" x1="256" x2="256" y1="512" y2="0" gradientUnits="userSpaceOnUse"><stop offset="0" stop-color="#ed4245" stop-opacity="1"/><stop offset="1" stop-color="#eb459e" stop-opacity="1"/></linearGradient><g xmlns="http://www.w3.org/2000/svg"><g><g><path fill="url(#SVGID_1_)" d="m328.48 319.695c-11.191-11.396-26.221-17.666-42.334-17.666-10.664 0-21.035 2.798-30.146 8.013-9.111-5.215-19.482-8.013-30.146-8.013-16.113 0-31.143 6.27-42.158 17.461-11.455 11.265-17.783 26.353-17.783 42.51 0 16.143 6.328 31.245 17.695 42.407l50.742 50.713c5.303 5.918 13.008 9.185 21.65 9.185s16.348-3.267 21.094-8.599l51.211-51.196c11.455-11.265 17.783-26.367 17.783-42.51 0-16.157-6.328-31.245-17.608-42.305zm2.52-107.695c8.401 0 15-6.601 15-15v-182c0-8.401-6.599-15-15-15h-45l-30 113.056 30 98.944zm-150 0h45l30-98.499-30-113.501h-45c-8.401 0-15 6.599-15 15v182c0 8.399 6.599 15 15 15zm60-15v60c0 8.291 6.709 15 15 15s15-6.709 15-15v-60c0-8.291-6.709-15-15-15s-15 6.709-15 15z" data-original="url(#SVGID_1_)"/></g></g><g><g><path fill="url(#SVGID_2_)" d="m286 0h-60v212h60zm-30 242c-74.399 0-135 60.599-135 135 0 74.399 60.601 135 135 135s135-60.601 135-135c0-74.401-60.601-135-135-135zm61.8 151.8-51.301 51.299c-2.699 3.001-6.599 4.201-10.499 4.201s-7.8-1.2-10.499-4.201l-51.301-51.299c-17.701-17.4-17.701-46.201 0-63.6 16.8-17.101 44.099-17.4 61.8-1.8 17.701-15.601 45-15.301 61.8 1.8 17.701 17.399 17.701 46.199 0 63.6z" data-original="url(#SVGID_2_)"/></g></g></g></g></svg>