<?xml version="1.0" encoding="iso-8859-1"?>
<!-- Generator: Adobe Illustrator 19.0.0, SVG Export Plug-In . SVG Version: 6.00 Build 0)  -->
<svg version="1.1" id="Capa_1" xmlns="http://www.w3.org/2000/svg" xmlns:xlink="http://www.w3.org/1999/xlink" x="0px" y="0px"
	 viewBox="0 0 512 512" style="enable-background:new 0 0 512 512;" xml:space="preserve">
<g>
	<g>
		<path d="M432,0H80C35.888,0,0,35.888,0,80v352c0,44.112,35.888,80,80,80h352c44.112,0,80-35.888,80-80V80
			C512,35.888,476.112,0,432,0z M472,432c0,22.056-17.944,40-40,40H80c-22.056,0-40-17.944-40-40V80c0-22.056,17.944-40,40-40h352
			c22.056,0,40,17.944,40,40V432z"/>
	</g>
</g>
<g>
</g>
<g>
</g>
<g>
</g>
<g>
</g>
<g>
</g>
<g>
</g>
<g>
</g>
<g>
</g>
<g>
</g>
<g>
</g>
<g>
</g>
<g>
</g>
<g>
</g>
<g>
</g>
<g>
</g>
</svg>
