<?xml version="1.0" encoding="iso-8859-1"?>
<!-- Generator: Adobe Illustrator 16.0.0, SVG Export Plug-In . SVG Version: 6.00 Build 0)  -->
<!DOCTYPE svg PUBLIC "-//W3C//DTD SVG 1.1//EN" "http://www.w3.org/Graphics/SVG/1.1/DTD/svg11.dtd">
<svg version="1.1" id="Capa_1" xmlns="http://www.w3.org/2000/svg" xmlns:xlink="http://www.w3.org/1999/xlink" x="0px" y="0px"
	 width="595.021px" height="595.021px" viewBox="0 0 595.021 595.021" style="enable-background:new 0 0 595.021 595.021;"
	 xml:space="preserve">
<g>
	<g>
		<g>
			<path d="M533.831,248.109L118.233,8.164C109.55,3.15,99.695,0.5,89.735,0.5h-0.001h-0.001h-0.003
				C58.265,0.503,32.668,26.103,32.668,57.564v479.893c0,31.465,25.599,57.064,57.065,57.064c9.961,0,19.815-2.65,28.499-7.664
				l415.599-239.945c8.987-5.189,16.379-12.699,21.377-21.715c4.675-8.436,7.146-18.01,7.146-27.688
				c-0.001-9.678-2.472-19.252-7.146-27.686C550.209,260.805,542.816,253.297,533.831,248.109z M512.411,309.811L96.813,549.758
				c-2.289,1.32-4.716,1.924-7.081,1.924c-7.42,0-14.225-5.934-14.225-14.225V57.564c0-8.291,6.807-14.223,14.225-14.225
				c2.365,0,4.792,0.602,7.081,1.925L512.411,285.21C521.88,290.677,521.88,304.344,512.411,309.811z"/>
			<path d="M89.733,595.021c-31.741,0-57.565-25.823-57.565-57.564V57.564C32.168,25.827,57.99,0.003,89.729,0
				c10.054,0,19.995,2.674,28.754,7.73l415.598,239.945c9.065,5.234,16.522,12.809,21.563,21.905
				c4.715,8.507,7.208,18.165,7.209,27.928c0,9.763-2.492,19.421-7.208,27.93c-5.043,9.097-12.5,16.672-21.564,21.905
				L118.482,587.29C109.722,592.348,99.781,595.021,89.733,595.021z M89.735,1C58.542,1.003,33.168,26.378,33.168,57.564v479.893
				c0,31.189,25.375,56.564,56.565,56.564c9.873,0,19.641-2.627,28.249-7.597l415.599-239.945
				c8.907-5.144,16.234-12.587,21.189-21.524c4.634-8.361,7.083-17.852,7.083-27.446c-0.001-9.595-2.45-19.084-7.084-27.444
				c-4.953-8.937-12.28-16.38-21.188-21.523L117.983,8.597C109.376,3.627,99.608,1,89.735,1z M89.733,552.182
				c-8.12,0-14.725-6.605-14.725-14.725V57.564c0-8.118,6.605-14.723,14.725-14.725l0,0c2.577,0,5.043,0.67,7.331,1.992
				l415.598,239.946c4.604,2.658,7.352,7.417,7.352,12.733c0,5.315-2.748,10.076-7.352,12.733L97.063,550.19
				C94.773,551.512,92.307,552.182,89.733,552.182z M89.732,43.84c-7.568,0.001-13.725,6.158-13.725,13.725v479.893
				c0,7.567,6.157,13.725,13.725,13.725c2.396,0,4.695-0.625,6.831-1.856l415.598-239.947c4.29-2.478,6.852-6.914,6.852-11.868
				c0-4.954-2.562-9.39-6.852-11.867L96.563,45.698C94.43,44.465,92.131,43.84,89.732,43.84L89.732,43.84z"/>
		</g>
	</g>
</g>
<g>
</g>
<g>
</g>
<g>
</g>
<g>
</g>
<g>
</g>
<g>
</g>
<g>
</g>
<g>
</g>
<g>
</g>
<g>
</g>
<g>
</g>
<g>
</g>
<g>
</g>
<g>
</g>
<g>
</g>
</svg>
