<?xml version="1.0" standalone="no"?><svg xmlns="http://www.w3.org/2000/svg" viewBox="0 0 1440 320"><path fill="#36393f" fill-opacity="1" d="M0,256L21.8,229.3C43.6,203,87,149,131,128C174.5,107,218,117,262,144C305.5,171,349,213,393,213.3C436.4,213,480,171,524,160C567.3,149,611,171,655,170.7C698.2,171,742,149,785,144C829.1,139,873,149,916,165.3C960,181,1004,203,1047,192C1090.9,181,1135,139,1178,112C1221.8,85,1265,75,1309,69.3C1352.7,64,1396,64,1418,64L1440,64L1440,0L1418.2,0C1396.4,0,1353,0,1309,0C1265.5,0,1222,0,1178,0C1134.5,0,1091,0,1047,0C1003.6,0,960,0,916,0C872.7,0,829,0,785,0C741.8,0,698,0,655,0C610.9,0,567,0,524,0C480,0,436,0,393,0C349.1,0,305,0,262,0C218.2,0,175,0,131,0C87.3,0,44,0,22,0L0,0Z"></path></svg>