<?xml version="1.0" standalone="no"?><svg xmlns="http://www.w3.org/2000/svg" viewBox="0 0 1440 320"><path fill="#7289da" fill-opacity="1" d="M0,160L21.8,160C43.6,160,87,160,131,149.3C174.5,139,218,117,262,112C305.5,107,349,117,393,122.7C436.4,128,480,128,524,144C567.3,160,611,192,655,208C698.2,224,742,224,785,197.3C829.1,171,873,117,916,128C960,139,1004,213,1047,240C1090.9,267,1135,245,1178,202.7C1221.8,160,1265,96,1309,69.3C1352.7,43,1396,53,1418,58.7L1440,64L1440,320L1418.2,320C1396.4,320,1353,320,1309,320C1265.5,320,1222,320,1178,320C1134.5,320,1091,320,1047,320C1003.6,320,960,320,916,320C872.7,320,829,320,785,320C741.8,320,698,320,655,320C610.9,320,567,320,524,320C480,320,436,320,393,320C349.1,320,305,320,262,320C218.2,320,175,320,131,320C87.3,320,44,320,22,320L0,320Z"></path></svg>